<svg width="130" height="134" viewBox="0 0 130 134" fill="none" xmlns="http://www.w3.org/2000/svg">
<path fill-rule="evenodd" clip-rule="evenodd" d="M6.93478 84.0559C5.803 83.4644 4.69795 82.8216 3.61037 82.1526C2.84432 81.6937 3.52253 80.5379 4.30802 80.9556C4.70966 81.1692 5.10976 81.3849 5.51129 81.5972C5.19528 81.3246 4.90236 81.0279 4.63972 80.7045L4.65784 80.6864C3.64529 79.7779 4.9459 78.0638 6.09746 78.8101C7.113 79.5472 8.13782 80.2994 9.30353 80.7848C11.718 81.8101 14.3812 81.9797 16.9727 82.0093C17.9211 81.9379 18.8269 82.1025 19.7471 82.2859C19.3863 80.8366 18.4835 79.7421 18.0046 78.3385C17.6513 76.9213 19.6941 75.956 20.418 77.3182C20.5957 77.6527 20.7651 77.9911 20.9307 78.3312C22.4955 79.7564 25.1084 79.6309 26.6866 81.1612C27.5855 81.9602 28.0255 83.0442 28.1992 84.1323C28.3172 84.8711 28.1338 85.6117 28.5799 86.2661C30.7366 89.3209 34.1444 94.1492 35.8751 97.511C37.1004 89.5225 40.3723 79.6418 43.7524 72.3373C44.8701 70.0012 46.1488 67.7185 47.8274 65.7384C47.6372 65.078 48.3088 63.9058 48.7358 64.2667C50.0503 62.6586 52.374 62.2423 54.2424 61.4429C56.7647 60.3629 58.8573 58.118 59.886 55.5665C61.2077 50.7078 64.4614 50.0906 68.9738 50.3053C73.2923 50.2999 76.4874 52.1496 77.4297 56.5518C79.344 59.8931 83.8638 59.3405 87.1155 60.225C89.4987 60.7702 91.8114 61.6131 94.0093 62.6831C96.4544 60.3605 105.212 70.1079 106.008 72.6165C105.539 72.7075 105.073 72.8169 104.612 72.9503C104.201 73.0693 104.373 73.6911 104.788 73.5916C105.304 73.4675 105.823 73.382 106.345 73.3228C106.36 73.3727 106.374 73.4224 106.385 73.4715C106.443 73.4675 106.502 73.4625 106.56 73.4585C106.43 73.5262 106.306 73.6047 106.184 73.706C105.889 73.9508 106.273 74.4231 106.585 74.2281C106.88 74.0073 107.266 74.0422 107.619 73.9681C107.64 74.6959 110.234 73.8816 110.637 73.6404C112.427 73.4162 114.27 73.6568 115.941 72.7921C118.165 72.3231 120.406 71.8044 122.605 71.2071C123.187 71.4343 123.734 72.2476 123.272 72.8444C123.012 73.116 123.346 73.5594 123.674 73.3664C124.772 72.719 125.622 71.7083 126.342 70.6196C126.681 70.2771 127.283 70.3508 127.738 70.2086C127.799 70.3182 127.835 70.4403 127.834 70.5655C129.766 70.884 128.388 72.997 127.417 73.6554C127.932 73.9913 127.952 74.6492 127.907 75.1985C128.016 75.3942 128.052 75.6368 127.957 75.8561C127.594 76.6944 126.808 77.4004 126.211 78.0797C125.551 78.8298 124.963 79.584 124.16 80.1921C121.101 82.5274 117.409 83.833 113.622 84.3436C112.277 84.5505 110.342 84.867 109.51 86.0057C109.714 87.3572 110.089 88.6533 110.429 89.9712C110.905 91.7204 110.873 93.5518 110.879 95.3352C110.946 95.2817 111.074 95.2927 111.093 95.3947C111.203 96.134 111.286 96.8899 111.734 97.511C112.128 98.6661 112.389 99.8982 112.536 101.112C113.126 106.865 113.266 112.788 111.938 118.451C111.425 120.552 110.592 122.549 109.456 124.388C109.117 124.936 108.573 125.097 108.084 124.989C106.447 125.84 104.386 126.113 102.622 125.897C96.6089 124.192 98.704 128.297 90.2731 127.04C75.7204 125.184 61.0133 128.832 46.4916 126.69C46.1339 129.456 41.4519 128.663 39.8255 127.493C34.949 123.863 32.5277 112.369 30.0804 106.539C28.3981 101.943 25.5812 93.8036 21.8922 90.7199C20.7861 89.8535 19.449 89.3974 18.1111 89.0292C13.1182 87.7408 8.106 86.5224 3.10354 85.2698C2.25517 85.0606 2.40765 83.6117 3.3148 83.7047C4.51873 83.828 5.72676 83.9397 6.93478 84.0559Z" fill="#EDB98A"/>
<path fill-rule="evenodd" clip-rule="evenodd" d="M118.085 83.1942C118.423 83.1522 118.755 83.0316 119.084 82.9364C119.587 82.7893 120.079 82.6178 120.564 82.4219C121.565 82.0204 122.537 81.5456 123.447 80.9647C124.918 80.0253 126.217 78.8215 127.197 77.372L127.265 77.2709C127.824 76.4175 128.856 74.5224 127.699 73.8744C128.445 73.2504 129.15 72.1295 129.11 71.2642C129.054 70.0405 127.555 70.0572 126.781 70.576C126.274 70.9157 125.894 71.3915 125.512 71.8596C125.09 72.3796 124.639 72.8753 124.171 73.3522C124.047 73.4783 123.921 73.6019 123.793 73.7236L123.665 73.8445C123.685 73.797 123.702 73.7483 123.718 73.6984C123.976 72.8919 123.668 71.8419 122.863 71.4723C122.37 71.246 121.858 71.3842 121.38 71.5763L121.307 71.6062C120.664 71.8727 120.013 72.1085 119.343 72.2977C116.614 73.0689 113.766 73.1973 110.969 73.5823C109.892 73.7317 108.795 73.9197 107.723 74.1963C107.314 72.4581 106.312 70.7919 105.225 69.421C100.018 62.8628 91.4319 60.6953 83.5769 59.2923C82.8609 59.1651 82.2676 60.1144 81.851 59.8898C81.061 59.4649 80.366 58.863 79.7561 58.2091C78.4555 56.8138 77.5329 55.1729 76.449 53.6183C75.9131 52.8504 74.68 53.5375 75.1772 54.3619L75.4208 54.7647C76.4237 56.4149 77.5343 58.1155 78.9727 59.3952C79.7373 60.0746 80.5859 60.6112 81.556 60.9464C82.2908 61.1998 83.3217 61.4134 84.1261 61.1676L84.2226 61.0268C84.1906 61.0739 84.1585 61.1209 84.1261 61.1677C82.0267 64.2138 79.3926 66.7919 76.617 69.225C73.8154 71.6796 70.793 73.8776 67.7525 76.0267L67.4991 76.2057C62.5458 72.5877 58.3614 67.8686 55.4256 62.4768C56.0409 62.4026 56.6498 62.0077 57.1757 61.7132C57.8088 61.3571 58.4044 60.9321 58.8685 60.3655C59.8795 59.1318 59.748 57.5418 59.9303 56.0448C59.9414 55.9518 59.8187 55.9286 59.7623 55.9751C59.2143 56.4309 59.0221 57.1778 58.7933 57.8229C58.5414 58.5321 58.2563 59.1165 57.6785 59.6154C57.1404 60.0802 56.484 60.422 55.8465 60.7263C55.5177 60.8824 53.8856 61.2836 53.6996 61.6159C50.8798 60.9531 48.133 62.0983 46.0435 64.0302C44.0248 65.8968 42.5431 68.3233 41.2349 70.7188C39.8394 73.2747 38.6958 75.939 37.7102 78.6775C36.7113 81.4571 35.9456 84.2974 35.5246 87.2229C35.1693 89.6893 34.9514 92.1945 34.8104 94.6886L34.7932 95.0003C32.7071 91.7218 30.569 88.4776 28.3868 85.2622C28.8829 83.9356 28.3338 82.5812 27.4045 81.5566C26.3747 80.4225 24.9505 79.8958 23.5881 79.2828L23.409 79.2017C22.7524 78.9018 22.0979 78.5715 21.5307 78.1222C20.9849 77.6884 20.5838 77.0909 20.0092 76.6915C19.1739 76.1095 17.6579 76.2334 17.6193 77.5048C17.5994 78.203 17.8988 78.9686 18.1728 79.596C18.4833 80.3053 18.9021 80.9481 19.3993 81.5389C19.4223 81.5665 19.4474 81.5882 19.4729 81.6054L19.4921 81.6175C18.8048 81.7315 18.1121 81.8233 17.406 81.8554C15.9817 81.9207 14.542 81.8156 13.1476 81.5146C11.72 81.207 10.3367 80.707 9.05273 80.0098C7.95554 79.4145 6.93901 78.6444 5.69265 78.463C5.57775 78.4453 5.46173 78.4342 5.3424 78.4276C5.14351 78.4165 4.94462 78.6511 5.02307 78.8479C5.06616 78.9565 5.11146 79.0638 5.16119 79.1722C5.5921 80.1226 6.25305 81.0446 7.07747 81.7445L7.14121 81.7978C6.85059 81.6972 6.56441 81.5843 6.28265 81.4571C4.62636 80.7102 3.12367 79.5816 1.34805 79.128C1.26407 79.1058 1.17899 79.0859 1.09391 79.0671C0.544756 78.9487 0.255259 79.5462 0.577899 79.9556C0.629831 80.022 0.681768 80.0873 0.73591 80.1525C1.52814 81.1373 2.40214 82.0512 3.36563 82.8722C3.69601 83.1532 4.03634 83.4254 4.38328 83.6856C4.52949 83.7958 4.67651 83.9036 4.82505 84.0097L4.89821 84.0617C4.72474 83.9389 4.55347 83.8139 4.38331 83.6856C3.29606 83.3557 2.22427 82.9651 1.1757 82.5326C0.759138 82.361 0.435396 82.7837 0.391199 83.1311C0.243139 84.2952 1.5337 85.1373 2.37345 85.697C3.21541 86.2592 4.14244 86.6863 5.09157 87.0292C6.91648 87.6896 8.83319 87.9895 10.7469 88.2583L11.6764 88.3879C15.3554 88.9031 19.1981 89.519 21.8379 92.3857C23.3174 93.9922 24.3185 95.9883 25.2344 97.9523C26.1493 99.9141 26.9526 101.928 27.715 103.953C28.505 106.048 29.1934 108.183 29.9249 110.299C30.5967 112.243 31.3991 114.162 32.1938 116.061L32.3192 116.361C34.0065 120.397 36.0219 124.199 38.8306 127.569C39.2936 128.126 40.0416 127.336 39.614 126.785C36.676 122.992 34.6319 118.516 32.9446 114.051C32.1767 112.02 31.5336 109.94 30.7956 107.897L30.3564 106.684C29.7699 105.066 29.1784 103.451 28.5614 101.846C27.7802 99.8156 26.9217 97.8095 25.9394 95.8688L25.8352 95.6644C24.8735 93.7922 23.7309 91.9469 22.1583 90.5301C19.3278 87.9787 15.5613 87.3666 11.9196 86.8818L10.774 86.7306C9.23435 86.5258 7.69037 86.2996 6.19319 85.8873C5.32913 85.6507 4.48496 85.3474 3.69162 84.9291C3.37561 84.7632 3.06734 84.5807 2.76901 84.3815C3.61981 84.6316 4.48275 84.8362 5.36117 84.9966C5.79099 85.0752 6.21639 85.1339 6.64069 85.1749C7.73342 85.2832 8.81735 85.2787 9.93665 85.2202C10.0317 85.2146 10.0626 85.0653 9.96095 85.0465C9.18147 84.9077 8.40108 84.7341 7.62393 84.5458L7.3909 84.4887C7.38648 84.3594 7.33566 84.2221 7.22958 84.0916C6.84286 83.6203 6.10808 83.379 5.59871 83.0459C5.06503 82.6974 4.54792 82.3213 4.05512 81.9184C3.60431 81.5501 3.17118 81.1605 2.75462 80.7534L2.62973 80.6305C2.67118 80.6716 2.71282 80.7126 2.75462 80.7534C3.87944 81.2735 4.94569 81.9406 6.12023 82.3523C7.0539 82.6808 8.03286 82.9021 9.02067 82.9807L9.082 82.9855L9.14332 82.9895C10.1742 83.0637 11.2118 83.0338 12.2272 83.2573C12.341 83.2828 12.3763 83.1301 12.2747 83.0869C11.3874 82.7173 10.4648 82.5746 9.53227 82.402C9.51239 82.3289 9.46156 82.2637 9.37316 82.2216L9.13456 82.1075C8.42403 81.7658 7.76174 81.4209 7.17105 80.8662C6.64952 80.376 6.21527 79.803 5.88932 79.1678C7.19424 79.4544 8.34006 80.4446 9.52675 81.0012C10.8195 81.6086 12.1874 82.0446 13.5929 82.2926L13.753 82.32C16.3795 82.7587 19.5379 82.7028 21.8909 81.3353C21.966 81.2911 21.9119 81.1905 21.8346 81.2026C21.1672 81.3121 20.5064 81.4416 19.8457 81.5566C19.975 81.4383 20.0324 81.2258 19.8833 81.0554C19.2898 80.3744 18.8205 79.596 18.5205 78.7442L18.4631 78.5777C18.3249 78.1826 18.0915 77.569 18.3297 77.2126C18.5574 76.873 19.0932 76.9194 19.4137 77.0633C20.0799 77.3642 20.523 78.1156 21.0843 78.5692C21.6965 79.0649 22.3926 79.4322 23.1052 79.7608L23.2557 79.8293C24.4884 80.3846 25.8055 80.852 26.7747 81.8322C27.2962 82.3588 27.7448 83.0172 27.8951 83.7552C27.9636 84.0938 27.9636 84.4423 27.873 84.7776C27.8012 85.0398 27.6509 85.2015 27.7371 85.468C27.8498 85.8121 28.2487 86.2237 28.4542 86.5302C28.6929 86.8844 28.9304 87.2395 29.168 87.5946C29.642 88.305 30.1138 89.0176 30.5856 89.729C31.5292 91.1542 32.4629 92.5859 33.3888 94.0221C33.6901 94.4898 33.9904 94.9579 34.2897 95.4266L34.7379 96.13L34.9748 96.5008L35.3788 97.1367C35.3644 97.1955 35.3655 97.2575 35.3843 97.3116C35.4532 97.508 35.5822 97.6423 35.7424 97.7397L35.771 97.7564C38.129 101.489 40.4493 105.245 42.7929 108.986C42.9177 110.128 43.0349 111.271 43.1365 112.414C43.3674 115.001 43.5254 117.594 43.5763 120.191C43.6006 121.448 43.5 122.713 43.4459 123.969C43.4194 124.568 43.3831 125.167 43.3357 125.765L43.3009 126.189C43.2542 126.772 43.2277 127.351 43.437 127.907C43.6227 128.395 44.1884 128.504 44.5232 128.132C48.891 127.956 53.2621 127.823 57.6332 127.74C65.4572 127.589 73.2845 127.612 81.1096 127.764C85.0398 127.84 88.9712 127.948 92.9003 128.08C94.8362 128.145 96.7731 128.235 98.71 128.262C99.7536 128.276 101.396 127.896 101.48 126.72L101.482 126.684C101.613 126.719 101.747 126.748 101.886 126.769C101.947 126.779 102.006 126.776 102.061 126.763L102.088 126.756C103.643 127.231 105.611 126.553 107.089 126.158L107.211 126.126C108.622 125.758 109.756 125.231 110.681 124.06C112.3 122.01 112.852 119.257 113.139 116.72C113.409 114.332 113.424 111.901 113.096 109.517C113.29 107.575 113.101 105.572 112.881 103.641C112.772 102.686 112.645 101.732 112.493 100.783C112.408 100.253 112.296 99.7281 112.182 99.2048C112.137 98.9957 112.099 98.7705 112.042 98.5529L112.016 98.4601C112.192 98.4834 112.386 98.4446 112.572 98.3418C113.017 98.0973 113.146 97.6026 113.154 97.1292C113.178 95.7017 113.008 94.2335 112.858 92.815C112.706 91.3988 112.498 89.9768 112.227 88.5783L112.156 88.2177C111.95 87.1715 111.715 86.0915 111.3 85.1084C112.859 84.8429 114.413 84.5608 115.926 84.0805C116.664 83.8448 117.391 83.5517 118.085 83.1942ZM36.7114 98.0486C36.7357 98.0541 36.7589 98.0608 36.7821 98.0674C37.4052 98.2422 38.0351 98.3905 38.6627 98.5498C39.7477 98.8231 40.8084 99.1285 41.8172 99.6032C42.0286 102.274 42.3418 104.937 42.6397 107.6L42.699 108.133C42.2415 107.283 41.773 106.44 41.2836 105.607C39.793 103.068 38.2682 100.548 36.7114 98.0486ZM111.636 98.3131C111.632 98.6306 111.698 98.9604 111.734 99.2657C111.791 99.7615 111.838 100.259 111.896 100.755C112.016 101.751 112.117 102.748 112.191 103.748C112.239 104.387 112.27 105.027 112.297 105.668C111.671 103.323 110.841 101.029 110.052 98.7323C110.184 98.7184 110.319 98.6862 110.458 98.6492L110.692 98.586C110.83 98.5504 111.278 98.4402 111.636 98.3131ZM34.7378 96.13L34.7334 96.2351C34.7168 96.608 34.94 96.8182 35.2107 96.8724C35.0538 96.6246 34.8958 96.3767 34.7378 96.13ZM106.426 78.4574C105.766 78.516 105.12 78.6566 104.503 78.9L104.444 78.9233C103.988 79.0995 103.321 79.321 103.172 79.8084C103.13 79.9468 103.243 80.0606 103.372 80.0718C103.867 80.1116 104.45 79.5804 104.909 79.4012C105.419 79.202 105.954 79.0537 106.495 78.9752C107.712 78.797 108.98 78.9321 110.125 79.3758C110.193 79.4024 110.235 79.2949 110.174 79.2628C109.02 78.6344 107.737 78.3413 106.426 78.4574ZM120.404 81.622C120.481 81.5544 120.557 81.4836 120.632 81.4129C121.224 80.8517 121.749 80.1967 122.137 79.477L122.24 79.2823C122.556 78.6689 122.944 77.7951 122.201 77.3532C121.757 77.0888 121.222 77.1551 120.727 77.3155C120.695 77.3255 120.663 77.3367 120.631 77.3476C120.41 77.4252 120.197 77.518 120.007 77.6065C119.181 77.9861 118.453 78.5382 117.691 79.0251C116.865 79.5529 116.049 79.8904 115.095 80.0879L115.006 80.1061C114.111 80.2832 113.141 80.3971 112.516 81.134C112.359 81.32 112.503 81.6684 112.774 81.5766C114.5 80.9936 116.326 80.8651 117.91 79.908C118.567 79.5119 119.188 79.0572 119.858 78.682C120.214 78.4827 120.582 78.3085 120.973 78.189L121.187 78.1258C121.312 78.0892 121.462 78.053 121.562 78.0891C121.754 78.1555 121.693 78.258 121.633 78.437L121.627 78.4552C121.162 79.8959 119.836 81.1019 118.608 81.8996C118.326 82.0833 118.038 82.2516 117.744 82.4076C115.754 83.4695 113.528 83.9637 111.342 84.5504C111.342 84.5504 110.078 84.9038 109.659 85.0365C109.193 84.9977 108.661 85.1627 108.31 85.3596C107.968 85.5509 107.693 85.8078 107.485 86.1098C107.485 86.1098 107.285 86.2769 107.249 86.5358C107.144 86.7759 107.073 87.0347 107.038 87.3048C107.018 87.463 107.058 87.5846 107.133 87.6709C106.907 91.1445 107.844 94.5984 108.9 97.8995L109.005 98.225L109.072 98.4313C110.211 101.931 111.518 105.406 112.102 109.055C112.492 111.492 112.48 114.015 112.194 116.463L112.173 116.632C111.891 118.948 111.349 121.545 109.879 123.408C109.129 124.359 108.24 124.781 107.105 125.087L107.042 125.104C106.015 125.375 104.954 125.759 103.894 125.875C102.911 125.982 102.087 125.616 101.202 125.273L101.201 125.272C99.3366 123.62 98.4902 121.215 97.8648 118.787C96.2439 112.505 96.445 105.983 97.3643 99.6087C97.8438 96.2783 98.4957 92.9766 99.1454 89.676C99.4703 88.0262 99.8206 86.3798 100.111 84.7245L100.284 83.7503C100.379 83.2091 100.471 82.6674 100.55 82.1232C100.656 81.3918 100.688 80.6726 100.724 79.9368C101.617 78.4552 102.913 77.2348 104.415 76.3596C105.49 75.7322 106.628 75.2974 107.803 74.982C111.16 74.0758 114.821 74.14 118.2 73.4429C119.335 73.209 120.413 72.8618 121.489 72.4456L121.636 72.3885C122.13 72.196 122.634 72.0886 122.879 72.6717C123.054 73.0867 122.95 73.5182 122.688 73.8667C122.046 74.7209 120.756 75.117 119.784 75.4246C119.2 75.6105 118.603 75.7577 118 75.8672C117.397 75.9768 116.791 76.0044 116.212 76.218C115.989 76.2998 115.945 76.655 116.212 76.718C116.946 76.8896 117.684 76.7424 118.413 76.5997C119.214 76.4414 120.003 76.2169 120.77 75.9325C120.911 75.8803 121.058 75.8252 121.207 75.7667L121.319 75.7222C121.203 75.8064 121.087 75.8894 120.97 75.9724C120.939 75.9944 120.958 76.0531 120.999 76.0387C122.802 75.3651 124.442 74.1498 125.713 72.7118L125.776 72.6397C126.224 72.1262 127.244 70.5727 128.103 71.0054C128.911 71.4111 127.535 72.9753 127.012 73.6148L126.951 73.6897C126.357 73.7052 125.781 74.0758 125.299 74.3745C124.463 74.8936 123.589 75.3406 122.698 75.7587C120.928 76.5919 119.049 77.1795 117.297 78.0546C117.274 78.0669 117.292 78.0967 117.314 78.0935C118.429 77.9152 119.531 77.6309 120.609 77.278L120.657 77.2629L120.705 77.2469C121.378 77.0256 122.042 76.7757 122.695 76.5089C123.421 76.2125 124.13 75.8794 124.818 75.5021C125.442 75.1613 126.133 74.5472 126.856 74.4565C126.933 74.4466 127.002 74.4453 127.061 74.451C127.891 74.5206 127.205 75.8971 126.973 76.3087C126.594 76.9847 126.137 77.6088 125.612 78.1786C124.548 79.336 123.258 80.2532 121.863 80.9669C121.387 81.2103 120.899 81.425 120.404 81.622Z" fill="black"/>
<path fill-rule="evenodd" clip-rule="evenodd" d="M86.9221 13.2467C86.3503 12.631 85.619 12.1722 84.8195 12.0256C85.5503 12.392 86.2646 12.7738 86.9221 13.2467ZM88.042 18.556C88.1431 18.0868 88.211 17.613 88.2324 17.1393C88.1046 17.3342 87.9005 17.4645 87.6713 17.5317C87.8194 17.8645 87.9453 18.2072 88.042 18.556ZM49.7797 25.9133C50.4397 23.1563 53.519 17.8533 54.2468 16.8326C55.0371 14.3053 50.7267 12.2786 53.0709 10.3023C54.1323 9.4106 55.535 9.09504 56.8509 8.77881C65.9616 6.58313 75.7503 7.69048 84.2002 11.7281C85.4855 11.4567 86.8246 11.9871 87.7592 12.9188C92.1503 17.3477 86.1661 25.3389 84.8575 30.3319C82.6124 35.8993 87.2372 36.8359 86.7412 41.5464C86.3558 43.98 83.8996 44.6232 81.8268 44.991C81.4946 45.069 81.0505 45.0807 80.9433 45.4331C80.6074 47.4902 79.4561 49.4505 77.9104 50.7809C78.0456 51.1828 77.9424 51.6706 77.4657 52.0236C73.147 55.2442 67.7016 56.8559 62.3152 56.5662C55.8961 56.2209 52.5765 52.5288 51.7755 51.5781C47.3465 45.5759 47.8757 37.6564 48.7791 30.5032C49.4085 25.5201 48.6104 30.7973 49.7797 25.9133Z" fill="#EDB98A"/>
<path fill-rule="evenodd" clip-rule="evenodd" d="M69.5727 2.97216C69.371 2.33926 68.7998 1.95863 68.146 2.03719C67.5671 2.10579 66.9475 2.68226 67.018 3.31848C67.0313 3.4413 67.0489 3.55637 67.0698 3.66481L67.0671 3.66577V3.66577L67.0643 3.66591L67.0787 3.70796C67.1217 3.91044 67.1812 4.0919 67.2694 4.26341C67.3819 4.59203 67.4899 4.92175 67.5969 5.25259C67.4425 5.24595 67.2848 5.2548 67.125 5.28468C66.9596 4.85979 66.7931 4.43602 66.6277 4.01002C66.4502 3.55527 66.3256 2.97105 65.975 2.61919C65.5262 2.16997 64.7478 2.07702 64.2009 2.3979C63.6231 2.73648 63.4169 3.3384 63.5426 3.98347C63.6065 4.31251 63.8256 4.5415 64.0967 4.68537L64.1259 4.70046L64.3343 5.19616C64.2703 5.1685 64.2042 5.14305 64.1325 5.12203C64.0201 5.08883 63.9098 5.06781 63.8017 5.05896C63.504 4.51789 63.1766 3.99232 62.8381 3.47671C62.4489 2.88364 61.6881 2.63136 61.0497 3.00646C60.4785 3.34172 60.172 4.22247 60.581 4.80115C60.892 5.24042 61.1864 5.68854 61.4764 6.14108C61.4267 6.14993 61.3771 6.161 61.3297 6.17538C61.3077 6.14551 61.2845 6.11563 61.2603 6.08576C60.9438 5.69186 60.5755 5.39643 60.1973 5.06892C59.8434 4.76132 59.6802 4.27779 59.2149 4.04433C58.6294 3.75111 57.9238 3.89163 57.5754 4.47585C56.8278 5.72726 58.0826 6.64121 58.8853 7.39914C58.1873 6.96208 57.4607 6.56265 56.7153 6.21743C56.2964 6.0238 55.8707 5.8368 55.4385 5.67526C54.7979 5.43626 54.2797 5.51272 53.7538 5.95741C53.5189 6.15657 53.402 6.59153 53.5101 6.88131C53.7196 7.43676 54.0504 7.77423 54.6303 7.93467C55.0383 8.04753 55.4562 8.12388 55.8641 8.24227C56.5477 8.43922 57.2115 8.67932 57.8554 8.97918C57.8091 9.00794 57.765 9.03892 57.7242 9.07433C57.2435 8.91832 56.7539 8.78333 56.2622 8.66826C55.4466 8.47635 54.6165 8.34669 53.7827 8.26559L53.5057 8.23971C52.5062 8.14346 51.3042 7.96581 50.6907 8.92606C50.489 9.24251 50.4669 9.76477 50.6907 10.0779C51.1185 10.6798 51.5441 10.7993 52.252 10.8104C51.5552 10.8845 50.8594 10.9764 50.167 11.0837C49.6897 11.1567 49.2125 11.2395 48.7373 11.3313L48.4999 11.378C47.921 11.4942 47.2749 11.5617 46.7776 11.898C45.6927 12.6327 46.2021 14.0634 47.4039 14.2161C47.985 14.2891 48.63 14.0424 49.2 13.9273C49.7535 13.8155 50.3092 13.7171 50.8672 13.6308C51.156 13.5854 51.4449 13.5456 51.7349 13.5091C51.145 13.5943 50.5595 13.7149 49.9895 13.8853L49.8311 13.9332C48.7291 14.2702 47.2416 14.807 46.8978 15.9887C46.6894 16.7068 47.2595 17.333 47.9497 17.3751C48.5914 17.4138 49.1262 17.0298 49.6708 16.7466C50.0678 16.5408 50.4713 16.387 50.8991 16.2553C51.3413 16.1192 51.7922 16.0064 52.2465 15.9145C51.8626 16.1268 51.4887 16.36 51.1298 16.621L50.9649 16.7433C50.011 17.4565 48.5563 18.5608 48.8924 19.8978C48.9982 20.3194 49.4669 20.7221 49.9167 20.679C51.0877 20.5694 51.7338 19.318 52.617 18.6475C52.8474 18.4727 53.0999 18.3001 53.3645 18.1319C52.026 19.734 50.9609 21.5863 50.1505 23.4994C48.3694 27.7081 47.823 31.6058 47.8099 36.1312L47.8096 36.2713C47.8074 38.7675 47.8637 41.3091 48.1062 43.7942C48.3312 46.0901 48.7435 48.3562 49.7811 50.4353C51.5199 53.9217 54.9082 56.637 58.6449 57.6704C62.8028 58.8212 67.4502 57.9216 70.8562 55.2661C71.725 54.5889 70.5728 53.1185 69.6852 53.7436C66.1404 56.2387 61.5557 57.0287 57.4872 55.3402C54.2599 54.0014 51.661 51.1212 50.5595 47.8052C49.8584 45.6955 49.6543 43.4461 49.4042 41.2476L49.3875 41.1011C49.1228 38.8018 48.9696 36.4871 48.9718 34.1724C48.9751 29.8737 49.5903 26.3352 51.4747 22.436C52.3612 20.5993 53.5112 18.901 54.885 17.4105C55.3018 17.4957 55.7451 17.3762 56.1662 17.3308C56.3812 17.3076 56.5963 17.2854 56.8113 17.2655C56.5916 17.408 56.3762 17.5562 56.1645 17.7078L55.8868 17.9088C55.0178 18.5334 53.9152 19.2447 54.1386 20.4521C54.1992 20.7786 54.5234 21.0784 54.8376 21.1525C55.9766 21.4247 56.7594 20.3138 57.5291 19.6544C58.1983 19.0812 58.8985 18.5678 59.6119 18.0533C59.7739 17.9371 59.9371 17.821 60.1014 17.7059C59.9471 17.8865 59.7969 18.0699 59.6505 18.255L59.4339 18.5304C58.7787 19.3531 57.8342 20.4224 58.4177 21.4889C58.5831 21.7899 58.936 21.9901 59.2778 21.9835C60.4531 21.9592 60.9206 20.6203 61.4719 19.775C61.9461 19.0503 62.461 18.3676 62.9935 17.6849C63.1402 17.4979 63.2879 17.3109 63.4379 17.1239C65.9066 17.2522 68.3665 17.5798 70.7834 18.1031C72.4439 18.4627 74.0769 18.9287 75.6977 19.4386L75.8324 19.4816C76.7096 19.765 77.6133 20.1278 78.2458 20.7498C78.3361 21.1783 78.2668 21.6303 78.1804 22.0583L78.1131 22.3859C77.8358 23.7558 77.6468 25.1003 77.7882 26.5067C77.9348 27.9573 78.3704 29.2618 78.9018 30.6095C79.1532 31.2446 79.4134 31.1296 79.5027 31.8112C79.5712 32.3303 79.5288 32.8663 79.4821 33.3898L79.4431 33.8336C79.345 34.9961 79.2958 36.2636 80.0551 37.2229C80.1731 37.3701 80.4256 37.3114 80.5094 37.1643C80.5425 37.1056 80.5778 37.0492 80.6164 36.995C80.9824 36.4627 81.5437 36.1596 82.1854 36.0423C82.267 36.0279 82.235 35.9184 82.1666 35.9095C81.6241 35.8453 81.1103 35.9814 80.6737 36.2625C80.8808 35.544 82.4837 35.8934 83.0107 36.033L83.0289 36.0379C83.686 36.2149 84.3079 36.5026 84.8559 36.9098C85.9585 37.7285 86.5958 39.0054 86.5638 40.3808C86.5318 41.7329 85.8361 42.9821 84.6409 43.6293C84.0642 43.9414 83.4081 44.0918 82.7554 44.0852C82.074 44.0786 81.4676 43.7787 80.7851 43.8208C80.3903 43.8451 80.0882 44.27 80.3165 44.6407C80.4686 44.8885 80.6671 45.0832 80.8964 45.2326C80.3374 46.5261 79.624 47.7598 78.8015 48.8983C78.3461 49.5301 77.8301 50.1133 77.2623 50.6455C76.819 51.0615 75.8587 51.5428 75.9127 52.2366C75.9314 52.4866 76.0604 52.6393 76.2876 52.7323C76.9937 53.022 77.8524 52.0244 78.3247 51.5435L78.3627 51.5052C78.9514 50.9165 79.4884 50.2659 79.9559 49.5755C80.7851 48.3495 81.3 46.9676 81.5128 45.5159C82.6452 45.8578 84.1447 45.5369 85.0687 45.1175C87.9729 43.8008 88.9222 39.8762 87.157 37.2627C86.8152 36.7571 86.3874 36.3244 85.9 35.9748C86.007 35.9162 86.1073 35.8409 86.1966 35.7458C86.6907 35.2191 87.04 34.5319 87.3866 33.8985L87.4282 33.8227C87.736 33.2651 88.0263 32.6987 88.2984 32.1235L88.3996 31.9074C89.0071 30.5963 89.5397 30.0231 89.973 28.6444C90.3898 27.3145 90.7184 25.959 90.9312 24.5804L90.9877 24.2155C91.1108 23.4155 91.2272 22.56 91.1374 21.7478C91.7559 21.9503 92.3778 22.0753 92.9897 21.7711C93.3933 21.5708 93.616 20.9866 93.4782 20.5672C93.3778 20.2585 93.2103 20.0162 92.9974 19.8259C93.1242 19.7617 93.2433 19.6798 93.3481 19.5891L93.4396 19.5095V19.5095C93.8101 19.1863 93.8365 18.5723 93.6116 18.1673C93.5895 18.1286 93.5675 18.0887 93.5465 18.05C93.3326 17.6661 92.8905 17.4149 92.4539 17.4215C92.3833 17.4226 92.3127 17.4226 92.2411 17.4215C92.445 17.3762 92.6446 17.3065 92.8343 17.1892C93.6899 16.6614 93.5818 15.2307 92.5465 14.9784C92.1121 14.8733 91.6324 14.9165 91.1539 15.0293C91.1715 15.0194 91.1892 15.0094 91.2068 14.9984C91.5685 14.776 91.8717 14.3411 91.8375 13.8952C91.8 13.4017 91.6413 13.0499 91.2068 12.791C90.8297 12.5675 90.2961 12.5464 89.9212 12.791C89.5959 13.0045 89.2773 13.2402 88.9708 13.4936C89.2784 13.114 89.5452 12.7013 89.6533 12.2632C89.7867 11.7177 89.564 11.1235 89.0744 10.8358C88.6841 10.6068 88.2717 10.6322 87.9034 10.8093C87.9233 10.5227 87.8538 10.2306 87.6642 9.97168C87.2761 9.44068 86.5704 9.13519 85.9563 9.52245C85.8758 9.57335 85.7677 9.66076 85.663 9.76809C85.8669 9.11638 85.6828 8.43258 84.9871 8.13826C84.5626 7.9579 83.9881 8.04863 83.6198 8.35955C83.8536 7.09043 81.9869 6.15768 81.2614 7.46885C81.0967 7.76587 80.9338 8.07863 80.7881 8.39858L80.7343 8.51888L80.7288 8.51667L80.7659 8.42871V8.42871L80.8038 8.34074C81.0056 7.87049 81.2625 7.38143 81.3331 6.87135C81.4367 6.11674 81.1015 5.40086 80.2834 5.29021C79.8611 5.23267 79.3914 5.4252 79.108 5.76167C79.2613 4.59092 77.958 3.74005 77.0197 4.61416C76.5753 5.02798 76.3383 5.63321 76.056 6.16432C75.8961 6.46417 75.733 6.76292 75.5731 7.06388C75.5323 7.01519 75.4882 6.96651 75.4419 6.91893C75.6789 6.20636 75.8631 5.4761 76.0185 4.7414C76.1663 4.04875 75.8212 3.32955 75.1089 3.13381C74.4617 2.95445 73.6513 3.35511 73.5068 4.04665C73.4054 4.53338 73.2852 5.01481 73.1529 5.4938C73.0625 5.47167 72.9732 5.45618 72.8849 5.44511C72.8776 5.35512 72.8693 5.26464 72.86 5.17464L72.8252 4.85458C72.7481 4.12326 72.6704 3.28843 72.2895 2.66677C71.6401 1.60456 69.9752 2.04494 69.9575 3.30078C69.9476 3.95028 70.2111 4.59424 70.3027 5.2371C70.3424 5.51703 70.3655 5.80029 70.3787 6.08355C70.2012 5.14305 69.9575 4.21472 69.6753 3.30078C69.6422 3.19124 69.6069 3.0817 69.5727 2.97216ZM83.9373 39.24C82.4763 39.0132 81.1411 39.8309 80.2756 40.9761C80.1179 41.1852 80.2215 41.4806 80.3638 41.6565C80.4663 41.786 80.6041 41.8015 80.7596 41.8214C80.9382 41.8446 81.1643 41.6997 81.2425 41.5437C81.7994 40.4284 82.7928 39.7235 83.9373 39.2898C83.9582 39.282 83.9649 39.2444 83.9373 39.24ZM81.9122 19.2567L81.8679 19.209C81.5723 18.9013 82.0395 18.4313 82.3358 18.7397C82.6477 19.0643 82.855 19.4587 83.0543 19.8583C83.2443 20.2394 82.6738 20.576 82.4831 20.1935L82.3962 20.0196C82.2599 19.7493 82.1145 19.4822 81.9122 19.2567V19.2567ZM86.015 18.6251C85.596 18.5543 85.7737 17.9145 86.1909 17.985C86.7314 18.0764 87.2698 18.1803 87.8104 18.2718C88.2293 18.3427 88.0516 18.9825 87.6344 18.912C87.0939 18.8205 86.5555 18.7166 86.015 18.6251ZM61.0558 14.2567C61.4605 14.1211 61.6342 14.7621 61.2316 14.8969C60.6754 15.0831 60.1236 15.274 59.5959 15.5326C59.2147 15.7193 58.879 15.1469 59.262 14.9593C59.8412 14.6755 60.4451 14.4612 61.0558 14.2567ZM86.1103 13.3963C86.5056 13.2376 86.6772 13.8795 86.2862 14.0365L84.8572 14.61V14.61C84.4619 14.7686 84.2902 14.1269 84.6813 13.9699L86.1103 13.3963V13.3963ZM56.0661 11.8376L56.1182 11.8046C56.4766 11.5715 56.8086 12.146 56.4522 12.3778C56.243 12.5138 55.9887 12.6061 55.7971 12.7681L55.757 12.8039C55.4476 13.0971 54.9789 12.6287 55.2892 12.3345C55.5162 12.1194 55.8036 11.9997 56.0661 11.8376V11.8376Z" fill="black"/>
<path d="M56.3015 8.51407C55.2157 7.68597 52.1478 5.82325 51.006 7.42332C50.4134 8.25381 50.9449 9.42121 51.5355 10.0482C52.2946 10.8541 52.9898 10.7386 53.9185 11.0829" stroke="black" stroke-width="2" stroke-linecap="round"/>
<path d="M60.2423 8.97273C59.7736 8.28364 58.8427 7.14895 58.9694 6.26116C59.1549 4.96102 61.8494 8.2892 61.8921 8.33052" stroke="black" stroke-width="2" stroke-linecap="round"/>
<path d="M60.0595 4.75256C60.8528 5.15682 61.62 5.77986 62.2134 6.42946C62.565 6.81438 62.9369 7.20468 63.1554 7.67821C64.5425 10.6846 62.449 7.19908 62.9008 9.98203" stroke="black" stroke-width="2" stroke-linecap="round"/>
<path d="M60.334 6.31213C62.1099 5.2258 64.56 5.34376 66.1794 6.66892C66.8355 7.20581 67.5234 8.13697 67.3404 9.04409C67.2214 9.6339 66.9351 9.47359 66.5664 9.70669" stroke="black" stroke-width="2" stroke-linecap="round"/>
<path d="M65.0084 5.48647C66.8467 5.42075 69.1433 5.6511 70.6858 6.73523C71.2104 7.10393 71.5412 7.52562 71.475 8.17766C71.3823 9.09157 70.53 9.08966 69.9576 9.52325" stroke="black" stroke-width="2" stroke-linecap="round"/>
<path d="M69.1326 4.47723C70.8185 5.14589 72.5349 6.16286 73.8782 7.38249C74.1574 7.63594 75.0962 8.4785 74.7846 9.12565C74.54 9.63365 73.7009 9.55432 73.3487 9.79844" stroke="black" stroke-width="2" stroke-linecap="round"/>
<path d="M71.9739 4.20203C73.0698 4.77388 74.1203 5.45894 75.0901 6.22551C75.5724 6.60676 76.0707 6.98045 76.4751 7.44368C80.2271 11.7417 75.1156 6.05185 76.7399 9.06451" stroke="black" stroke-width="2" stroke-linecap="round"/>
<path d="M73.8993 3.46808C74.9863 4.19678 75.9672 5.0587 76.8577 6.02165C77.2688 6.46624 77.6939 6.90883 78.0135 7.42331C80.8799 12.0374 76.9523 5.94031 78.0237 9.06452" stroke="black" stroke-width="2" stroke-linecap="round"/>
<path d="M75.64 4.84424C76.6002 5.47502 78.4098 6.55278 79.2552 7.47426C81.9418 10.4026 78.3758 6.86025 79.7644 9.33974" stroke="black" stroke-width="2" stroke-linecap="round"/>
<path d="M76.557 5.57825C77.6892 6.19061 78.7018 6.94915 79.6325 7.84639C80.028 8.22764 80.439 8.60657 80.7425 9.06456C83.0017 12.4734 79.8258 8.01909 80.5898 10.4407" stroke="black" stroke-width="2" stroke-linecap="round"/>
<path d="M77.9316 5.48645C79.2432 6.29924 80.8497 7.36725 81.5162 8.81985C81.9238 9.70794 81.7515 10.4627 80.9561 11.0115C79.788 11.8175 79.6531 11.1806 78.3899 11.6334" stroke="black" stroke-width="2" stroke-linecap="round"/>
<path d="M76.8317 9.43156C78.5687 8.85906 80.9285 9.54592 82.1934 10.8332C82.8233 11.4743 82.927 11.9856 83.2627 12.7599C83.4354 13.1581 83.7141 14.0436 84.3575 13.9169C85.7148 13.6496 86.2846 11.383 85.8239 10.298C85.5753 9.71237 85.1743 9.36896 84.5051 9.47234C83.3977 9.64341 82.7624 10.92 82.7892 11.9393C82.8389 13.8323 85.0606 15.6352 86.9288 15.3032C88.8656 14.9591 88.0319 11.9779 87.158 11.0116C86.8929 10.7185 86.2807 10.3557 85.9359 10.8587C85.2133 11.913 86.1603 13.5386 86.7863 14.3195C88.3815 16.3095 91.433 17.9406 94.032 17.8415C94.1578 17.8367 94.4956 17.7248 94.4088 17.816C94.0673 18.1749 93.7159 18.4815 93.4108 18.8813C93.3087 19.015 92.607 20.0384 92.6113 19.9924C92.6459 19.6296 92.8339 19.446 93.1562 19.3196C93.9197 19.0202 94.3862 18.4541 94.3935 17.5918C94.4056 16.1599 92.9666 16.0414 92.148 17.0158C91.0922 18.2725 92.2246 19.4722 93.5992 19.4623C95.3821 19.4495 94.669 17.313 94.032 16.4144C93.5329 15.7105 92.8055 15.2389 91.9239 15.4154C91.1419 15.5719 91.1421 16.0248 90.6714 16.4959" stroke="black" stroke-width="2" stroke-linecap="round"/>
<path d="M92.6879 20.0738C93.3103 19.797 93.3729 19.132 93.4161 18.4887C93.5131 17.0441 93.2677 15.4628 92.5352 14.192C92.2059 13.6207 91.3848 12.7524 90.7785 13.5701C90.2147 14.3305 90.6715 15.1342 90.6715 15.9453" stroke="black" stroke-width="2" stroke-linecap="round"/>
<path d="M93.7874 14.1104C92.7339 13.8912 91.0553 13.2815 90.0652 14.1002C89.4286 14.6267 89.8841 15.527 90.5388 15.7414C92.4569 16.3698 91.0246 12.1327 90.8545 11.5416" stroke="black" stroke-width="2" stroke-linecap="round"/>
<path d="M89.2048 13.8353C88.9625 13.1419 87.6195 8.77142 86.1548 9.72202C85.3803 10.2247 85.8959 12.8883 86.6589 12.4183C87.0031 12.2063 86.8843 11.3443 86.8422 11.1543C86.5846 9.99228 85.9022 8.79757 84.8768 8.15216C84.3915 7.84675 83.9651 7.72564 83.4663 8.01964C82.9976 8.29594 83.0986 8.72987 82.9724 9.15626" stroke="black" stroke-width="2" stroke-linecap="round"/>
<path d="M83.9802 9.98199C83.9938 9.15039 84.2002 7.89391 84.9375 7.37236C85.3943 7.04922 85.8338 7.37091 86.017 7.79031C86.521 8.9442 85.824 8.33571 85.9966 9.52327" stroke="black" stroke-width="2" stroke-linecap="round"/>
<path d="M80.8645 7.78009C81.9126 7.46077 83.3792 7.19827 84.276 8.02474C84.7535 8.4648 84.8918 9.03174 84.831 9.65576C84.8045 9.92803 84.7308 10.2053 84.5917 10.4407C83.9578 11.5133 84.1669 10.5296 83.3391 11.3581" stroke="black" stroke-width="2" stroke-linecap="round"/>
<path d="M79.123 6.77092C80.0933 6.36 81.3686 6.29262 82.3614 6.66898C83.1499 6.96791 83.8437 7.5414 84.0723 8.39175C84.5234 10.07 83.7056 9.2344 83.7056 10.8994" stroke="black" stroke-width="2" stroke-linecap="round"/>
<path d="M78.848 7.59661C79.3161 7.3834 80.2786 7.03052 80.6301 6.56703C81.3707 5.59032 80.0463 4.73361 79.3419 4.43141C78.4462 4.04718 77.6387 3.93869 76.6788 4.05933C76.3462 4.10114 76.0151 4.19237 75.7114 4.33457C74.3973 4.94989 75.7859 4.50731 74.9069 5.21124" stroke="black" stroke-width="2" stroke-linecap="round"/>
<path d="M78.9397 5.39468C77.7157 4.81034 75.9302 4.04078 74.5505 4.37529C72.9986 4.75155 74.3809 6.33421 74.7236 6.95434" stroke="black" stroke-width="2" stroke-linecap="round"/>
<path d="M75.5483 6.03697C75.0629 5.64144 71.6935 2.05606 73.6134 2.03078C74.6264 2.01743 75.7326 2.98978 75.9862 3.93194C76.0565 4.19285 76.0537 4.48682 75.9659 4.74235C75.6435 5.68055 75.3678 5.12184 74.8151 5.85348" stroke="black" stroke-width="2" stroke-linecap="round"/>
<path d="M70.0493 5.1195C69.927 4.52356 69.6283 3.36357 69.7031 2.70355C69.8156 1.70988 70.6702 1.74059 71.3274 2.20915C71.8582 2.58757 72.2021 3.06222 72.2796 3.72294C72.4109 4.84397 71.581 5.01799 71.0575 5.76172" stroke="black" stroke-width="2" stroke-linecap="round"/>
<path d="M67.1164 4.47729C67.1022 3.8877 67.1395 3.17364 66.6683 2.72394C65.9887 2.07543 64.9096 2.31614 64.5399 3.18267C64.1043 4.20391 64.6122 5.81152 65.874 5.91463C66.2866 5.94835 66.865 5.68123 67.0757 5.30299C67.5222 4.50113 66.7961 5.15812 66.8414 4.47729" stroke="black" stroke-width="2" stroke-linecap="round"/>
<path d="M62.9922 7.87184C62.2935 8.02726 61.1292 7.34195 60.5176 7.13788" stroke="black" stroke-width="2" stroke-linecap="round"/>
<path d="M58.0428 4.20201C58.7521 3.88478 59.5789 3.75508 60.3444 3.96755C60.9139 4.12563 61.4449 4.45951 61.7803 4.95636C62.4811 5.99469 61.734 5.3312 62.1672 6.40389" stroke="black" stroke-width="2" stroke-linecap="round"/>
<path d="M59.326 6.03698C59.0413 4.89695 59.482 3.64018 60.6601 3.20817C63.168 2.28849 64.7984 4.62928 66.3833 6.03698" stroke="black" stroke-width="2" stroke-linecap="round"/>
<path d="M61.1589 10.8077C60.7633 9.56307 58.529 7.449 57.1669 8.59562C56.1841 9.42302 56.4849 11.1319 56.6628 12.1839C56.8159 13.0891 57.0169 14.0387 57.2178 14.9362" stroke="black" stroke-width="2" stroke-linecap="round"/>
<path d="M58.9595 12.459C58.7873 13.3326 58.6428 14.2164 58.4197 15.0789C58.1611 16.0791 57.704 16.8488 57.3097 17.7803" stroke="black" stroke-width="2" stroke-linecap="round"/>
<path d="M62.1673 13.7435C62.7013 14.6267 63.0183 15.8396 62.7375 16.8628C62.5061 17.7061 61.949 18.2718 61.2202 18.6977C60.0904 19.3579 60.5093 18.8319 59.4177 19.2482" stroke="black" stroke-width="2" stroke-linecap="round"/>
<path d="M63.3586 15.5784C63.9151 16.3095 63.146 17.876 62.7323 18.4684C62.2639 19.1393 61.7851 19.5427 61.0877 19.9567C60.3069 20.4202 59.7733 20.3555 58.9593 20.5327" stroke="black" stroke-width="2" stroke-linecap="round"/>
<path d="M60.334 16.4958C60.3113 17.6985 60.2984 19.0337 61.057 20.0636C61.6872 20.9192 62.5977 21.3259 63.6335 21.399C65.6416 21.5409 64.6549 21.0204 66.5664 20.8078" stroke="black" stroke-width="2" stroke-linecap="round"/>
<path d="M64.5497 16.2206C64.2908 16.9611 64.6859 18.1959 65.1607 18.7589C66.4386 20.2736 68.6935 19.868 70.4155 19.8904" stroke="black" stroke-width="2" stroke-linecap="round"/>
<path d="M70.4159 17.3215C70.1449 17.7285 70.2091 18.3928 70.3956 18.8098C70.9436 20.0355 72.1173 20.4374 73.1655 21.0831" stroke="black" stroke-width="2" stroke-linecap="round"/>
<path d="M69.2244 17.8721C69.1297 18.6146 69.0856 19.3892 68.7967 20.0943C68.0824 21.837 68.6524 19.9578 67.7579 21.4501" stroke="black" stroke-width="2" stroke-linecap="round"/>
<path d="M61.8921 17.5968C60.9045 17.6881 59.3523 17.7763 58.3482 18.0555C54.8601 19.0254 59.3123 17.9056 56.9428 18.973" stroke="black" stroke-width="2" stroke-linecap="round"/>
<path d="M62.5342 15.4866C61.2479 15.844 59.9664 16.2143 58.6847 16.5876" stroke="black" stroke-width="2" stroke-linecap="round"/>
<path d="M61.2502 14.2021C59.8979 14.7918 58.6167 15.4526 57.3092 16.1288" stroke="black" stroke-width="2" stroke-linecap="round"/>
<path d="M55.2932 14.7526C54.7264 15.6109 54.1639 16.4014 54.0661 17.4591C53.9954 18.2235 54.285 18.7308 54.4683 19.4316" stroke="black" stroke-width="2" stroke-linecap="round"/>
<path d="M54.3767 16.3123C54.02 16.8352 53.6839 17.3767 53.4194 17.9535C53.2751 18.2684 53.1226 18.5849 53.0426 18.922C52.3777 21.7258 53.363 18.0537 53.2769 20.1656" stroke="black" stroke-width="2" stroke-linecap="round"/>
<path d="M51.7188 17.7803C51.071 18.4798 50.7628 18.9971 50.8166 19.9974C50.8688 20.9678 51.3065 21.5939 51.627 22.4593" stroke="black" stroke-width="2" stroke-linecap="round"/>
<path d="M52.1767 18.7894C51.1448 20.4421 53.0185 21.7686 54.1931 22.7345" stroke="black" stroke-width="2" stroke-linecap="round"/>
<path d="M52.8186 21.0831C52.2786 21.8639 51.1164 22.262 50.344 22.7345" stroke="black" stroke-width="2" stroke-linecap="round"/>
<path d="M52.2688 15.0279C50.9463 15.9088 49.6867 16.8288 48.4194 17.7802" stroke="black" stroke-width="2" stroke-linecap="round"/>
<path d="M49.4272 16.1289C48.8855 17.2057 48.4747 18.1347 48.6015 19.34" stroke="black" stroke-width="2" stroke-linecap="round"/>
<path d="M48.0521 17.0463C48.0702 17.5776 48.0652 18.1801 48.1744 18.7079C48.4811 20.1905 48.2001 18.466 48.6025 19.7069" stroke="black" stroke-width="2" stroke-linecap="round"/>
<path d="M48.4184 16.8629C48.6221 17.6334 48.8739 18.1283 49.2441 18.7895" stroke="black" stroke-width="2" stroke-linecap="round"/>
<path d="M52.5439 15.3032C52.0431 15.6108 51.5535 15.9376 51.0877 16.2971C50.8403 16.4879 50.5904 16.6774 50.3646 16.8934C47.9666 19.1876 51.1747 16.1518 49.7943 17.7803" stroke="black" stroke-width="2" stroke-linecap="round"/>
<path d="M54.1016 13.1931C53.8689 13.3412 53.4927 13.4523 53.2614 13.5549C52.6104 13.8439 52.0586 14.2239 51.4436 14.5692" stroke="black" stroke-width="2" stroke-linecap="round"/>
<path d="M55.8434 11.1746C55.9613 11.4106 55.3319 11.3133 55.0694 11.3377C54.256 11.4131 53.8165 11.2081 53.0938 10.9911" stroke="black" stroke-width="2" stroke-linecap="round"/>
<path d="M57.0344 10.716C57.4003 9.84261 56.637 8.81482 55.7055 8.81482C55.0729 8.81482 54.5799 9.11516 54.1575 9.55388C53.9936 9.72421 53.8599 9.92827 53.7655 10.1451C53.3644 11.0663 53.8763 10.2807 53.7349 11.083" stroke="black" stroke-width="2" stroke-linecap="round"/>
<path d="M56.668 7.41309C55.285 7.43154 53.9038 7.35908 52.7269 8.2286C52.4641 8.42273 52.2337 8.66869 52.0548 8.94217C51.3359 10.0408 52.1179 9.28331 51.7187 10.3489" stroke="black" stroke-width="2" stroke-linecap="round"/>
<path d="M53.6435 8.14708C53.8104 7.56222 55.4577 7.56737 55.833 7.57112C57.4036 7.58684 58.7244 8.0541 60.1509 8.6058" stroke="black" stroke-width="2" stroke-linecap="round"/>
<path d="M54.4684 9.43149C53.7948 9.49278 55.8044 9.29748 55.2882 8.93199C54.8778 8.64144 53.323 8.51789 53.8218 8.5803C54.0894 8.61379 54.24 8.62622 54.5448 8.64656C54.9023 8.67042 55.8091 8.9201 55.6192 8.61598C55.4665 8.37144 54.5277 8.27499 54.8147 8.29997C54.989 8.31514 55.9296 8.37621 55.2831 8.43249C54.3698 8.51199 56.2465 8.98011 54.835 8.69753" stroke="black" stroke-width="2" stroke-linecap="round"/>
<path d="M53.7348 8.42231C53.761 8.42528 55.3602 8.62647 55.6494 8.6058C55.8783 8.58943 55.1453 8.52176 55.018 8.33057" stroke="black" stroke-width="2" stroke-linecap="round"/>
<path d="M54.2851 8.14709C54.9598 8.22852 55.6298 8.32272 56.3015 8.42233" stroke="black" stroke-width="2" stroke-linecap="round"/>
<path d="M53.9182 7.59657C53.9901 7.57724 54.6354 7.45934 54.743 7.28056C54.8178 7.15651 54.3828 6.87999 54.4579 6.85242C55.179 6.58776 56.0881 7.05097 56.8511 6.82184C57.7534 6.55085 58.2217 6.14121 58.8674 7.0461" stroke="black" stroke-width="2" stroke-linecap="round"/>
<path d="M59.2344 6.40394C58.5878 6.38306 57.8086 6.49185 57.269 6.88305C56.6035 7.36543 57.9209 7.82575 58.0887 7.65778C58.2167 7.52971 57.7452 7.54234 57.5694 7.49978C57.3557 7.44808 56.8714 7.33101 56.6274 7.32648C56.283 7.3201 56.7032 7.51205 56.7292 7.52526C56.8756 7.59963 57.5952 7.99112 57.7781 7.91263C57.9972 7.81865 56.8704 7.62118 57.0958 7.69856C57.2547 7.75308 58.5958 8.23515 58.6234 8.15219C58.787 7.66079 59.5341 7.62947 59.9727 7.61191C62.7129 7.5022 65.198 8.927 67.6665 9.89025" stroke="black" stroke-width="2" stroke-linecap="round"/>
<path d="M66.6586 7.41309C69.3662 8.04647 71.9263 9.1461 74.5408 10.0737" stroke="black" stroke-width="2" stroke-linecap="round"/>
<path d="M70.416 6.12872C71.9422 6.46707 73.3015 7.20261 74.6881 7.91265C75.6311 8.39553 76.522 8.98416 77.4937 9.40606C77.7823 9.53136 77.056 8.95333 76.847 8.71797C76.527 8.35759 75.6741 7.40347 75.9661 6.80152C76.3387 6.0337 78.1201 7.30828 78.451 7.52529C80.3429 8.76637 77.1566 6.85511 77.6108 6.57725C77.8332 6.44118 78.6508 7.28192 78.7463 7.37238C78.8394 7.46061 79.2375 7.85195 79.3166 8.03498C79.398 8.22345 79.1371 8.09816 79.1231 8.14711" stroke="black" stroke-width="2" stroke-linecap="round"/>
<path d="M77.1068 6.5874C78.1819 7.42222 79.1449 8.37029 80.0805 9.36014C80.5677 9.87568 81.0533 10.3941 81.5062 10.9402C85.7422 16.0484 80.1767 9.41704 82.9726 13.193" stroke="black" stroke-width="2" stroke-linecap="round"/>
<path d="M58.9785 15.2928C58.8273 15.1066 58.6022 14.9628 58.369 14.9021C57.8579 14.7689 57.7173 15.0428 57.3868 15.3483C56.7506 15.9364 56.0285 15.4282 55.4426 15.066" stroke="#EDB98A" stroke-linecap="round"/>
<path d="M77.2144 15.4803C77.1649 15.2741 77.0602 14.736 76.931 14.5181C76.8266 14.342 76.7356 14.3694 76.5735 14.4041C76.4164 14.4378 76.3485 14.5102 76.1843 14.4465C75.9257 14.3463 76.101 14.3064 75.8797 14.1443" stroke="#EDB98A" stroke-linecap="round"/>
<path d="M72.3289 8.7052C72.1429 8.56461 72.0444 8.45705 71.8098 8.40568C71.4073 8.3175 70.9584 8.40627 70.5481 8.35399C70.0652 8.29247 69.5809 8.14165 69.1115 8.03723" stroke="#EDB98A" stroke-linecap="round"/>
<path d="M64.2234 17.1578C64.0515 17.8 63.875 18.4385 63.9841 19.1131C64.0638 19.6056 64.205 19.9094 64.5076 20.3006C64.6256 20.4532 64.7634 20.5911 64.9101 20.7162C65.4542 21.1802 65.1348 20.807 65.6672 21.1642" stroke="black" stroke-linecap="round"/>
<path d="M59.4106 18.9075C58.9556 19.2692 58.6808 19.6109 58.3678 20.1035C57.9957 20.689 57.623 21.2708 57.0267 21.6601C56.5462 21.9737 55.9604 22.1384 55.4688 21.753C55.3463 21.657 55.2455 21.5297 55.1719 21.3924C54.8448 20.7823 55.2209 21.2015 55.0537 20.6064" stroke="black" stroke-linecap="round"/>
<path d="M58.3721 19.1356C57.9702 19.6868 57.5595 20.1858 56.9226 20.4795C56.4724 20.6871 56.0386 20.711 55.5603 20.7331" stroke="black" stroke-linecap="round"/>
<path d="M60.9302 16.245C60.9807 16.162 61.0466 16.0919 61.1077 16.0168" stroke="black" stroke-linecap="round"/>
<path d="M61.2344 15.6364C60.7997 15.5828 60.4927 15.4746 60.0748 15.6984C59.2963 16.1152 59.7454 16.2128 59.0559 16.8028" stroke="black" stroke-linecap="round"/>
<path d="M58.9041 14.7997C58.6299 14.5721 58.2989 14.4492 58.0006 14.763C57.7275 15.0504 57.5649 15.5917 57.3954 15.9266C55.6061 19.4634 58.2838 14.1798 56.8269 16.6253" stroke="black" stroke-linecap="round"/>
<path fill-rule="evenodd" clip-rule="evenodd" d="M56.7115 47.4991L56.6351 47.4814C56.0246 47.3373 55.4372 47.1412 54.8687 47.52C54.3269 47.8808 54.2517 48.5483 54.6738 49.0351C55.1076 49.5357 55.6839 49.5076 56.2921 49.5145L56.3302 49.515C56.8352 49.522 57.3487 49.5144 57.8518 49.4696C58.3208 49.4278 58.7928 49.361 59.2564 49.2732L59.5306 49.2194C59.8107 49.1627 60.0866 49.0888 60.2309 48.8174C60.4826 48.3441 58.6117 47.9728 58.3845 47.9078C57.8329 47.7502 57.2709 47.626 56.7115 47.4991ZM55.6739 41.793C55.9721 42.1027 56.366 42.3143 56.8082 42.4459C57.9196 42.7768 59.3377 42.6006 60.2454 42.2634C60.4337 42.1934 60.6097 42.0508 60.7108 41.8726C60.8032 41.7097 60.8344 41.5182 60.7641 41.3228C60.7441 41.2673 60.7197 41.2129 60.6953 41.1592C60.6287 41.0133 60.493 40.8997 60.3336 40.8348C60.1681 40.7673 59.9798 40.7536 59.8288 40.8011C59.8086 40.8075 59.7878 40.8141 59.7665 40.8208C59.1913 41.0023 58.248 41.303 57.4665 41.2447C56.9976 41.2097 56.5851 41.0438 56.3718 40.6141C56.2594 40.3875 56.2905 40.1634 56.3902 39.9583C56.5406 39.6489 56.8417 39.3797 57.0954 39.1942C57.4531 38.9327 57.8345 38.8283 58.2291 38.7181C58.3778 38.6765 58.5283 38.6344 58.6803 38.584C58.7304 38.5675 58.7743 38.5349 58.8072 38.4927C58.8397 38.4509 58.861 38.3999 58.8676 38.3487C58.8746 38.2957 58.866 38.2429 58.8415 38.1974C58.8187 38.1551 58.7824 38.118 58.728 38.0936C57.9561 37.7473 56.9577 37.9762 56.2042 38.521C55.8275 38.7933 55.5134 39.1431 55.3198 39.5339C55.1401 39.8967 55.0638 40.2947 55.1342 40.7005C55.213 41.1549 55.4051 41.5138 55.6739 41.793ZM68.3251 34.0654C68.1082 33.9697 67.93 34.4177 67.8854 34.5399L67.7931 34.7933C67.6425 35.2019 67.4696 35.6174 67.1529 35.9206C66.8878 36.1746 66.4631 36.3898 66.1556 36.0927C65.8639 35.8109 66.0061 35.4934 65.9631 35.1477C65.8856 34.5223 65.034 33.8972 64.522 34.5498C63.3653 36.0243 65.1549 38.0748 66.8032 37.7151C67.6415 37.5321 68.3163 36.859 68.5936 36.0586L68.6078 36.0164C68.7737 35.5093 68.9416 34.3377 68.3251 34.0654ZM53.3994 35.0923L53.4074 35.0736C53.9583 33.8188 51.9931 33.2795 51.8265 34.4062L51.8159 34.4822C51.6539 35.733 51.9954 37.415 53.5252 37.5397C55.2425 37.6798 55.9576 35.7611 55.8042 34.3531C55.7767 34.1011 55.4713 34.0662 55.377 34.2952L55.3569 34.3452C55.0796 35.0528 54.8163 36.4137 53.8393 36.4122C53.1866 36.4113 53.2178 35.5289 53.3994 35.0923V35.0923ZM52.1534 31.4598C51.1662 31.4247 51.1676 32.9717 52.1534 32.995C55.4463 33.0725 58.7418 33.1757 62.0357 33.1934L62.6344 33.197C65.7284 33.2178 68.833 33.2601 71.9179 33.0001C72.1812 32.9779 72.1323 32.6077 71.9123 32.6227C68.6781 32.1617 65.4044 32.0269 62.1455 31.8518C58.8178 31.6729 55.4836 31.5781 52.1534 31.4598Z" fill="black"/>
</svg>
