<svg width="55" height="101" viewBox="0 0 55 101" fill="none" xmlns="http://www.w3.org/2000/svg">
<path d="M6.53439 2.836C1.76744 11.0578 -1.2363 20.6259 4.61536 40.5745C9.45983 57.0896 19.7731 75.3265 34.8342 86.5788C39.8263 90.3084 45.4924 93.1217 51.1001 96.0891C52.0984 96.6173 52.617 97.2801 52.1992 96.149" stroke="#120E07" stroke-width="1.5" stroke-linecap="round"/>
<path d="M53.511 96.636C52.8129 96.6853 52.063 95.4314 51.81 95.0707C51.174 94.1641 50.682 93.1964 50.2253 92.2119C49.9648 91.6502 50.0295 91.3443 49.8947 91.9421C49.6926 92.8375 49.2647 93.7067 48.8114 94.5271C48.0567 95.8929 48.3173 95.3052 47.58 96.4856C47.4116 96.7552 47.0477 97.0543 47.5823 97.1619C48.6892 97.3847 50.0487 97.2334 51.1809 97.2854C51.9779 97.322 52.7768 97.3581 53.5609 97.3428" stroke="#120E07" stroke-width="1.5" stroke-linecap="round"/>
</svg>
