<svg width="34" height="100" viewBox="0 0 34 100" fill="none" xmlns="http://www.w3.org/2000/svg">
<path d="M0.939819 93.0225L0.939819 5.38782L2.21765 5.3943L5.53103 0.31607L7.06144 2.67715L8.59184 0.331599L11.9052 5.44345L12.4203 5.44607L15.7337 0.367834L18.2844 4.30297L20.8351 0.393716L22.3655 2.7548L23.8959 0.409245L26.4466 4.34438L28.9972 0.435127L32.3106 5.54698L33.5885 5.55346L33.5885 93.1882L32.9733 93.1851L28.9972 99.2789L26.4466 95.3438L23.8959 99.2531L21.8554 96.105L19.8148 99.2324L17.2641 95.2972L14.7135 99.2065L12.1628 95.2714L9.61211 99.1806L7.57157 96.0325L5.53103 99.1599L1.55495 93.0257L0.939819 93.0225Z" fill="#fffcf2"/>
</svg>
