<svg width="33" height="34" viewBox="0 0 33 34" fill="none" xmlns="http://www.w3.org/2000/svg">
<path d="M15.4469 2.47911C15.4469 1.7471 14.732 3.75979 14.3101 4.35803C13.1019 6.07155 11.5578 7.49835 10.3268 9.19623C9.66389 10.1106 10.6126 9.65657 11.332 9.65657C14.3862 9.65657 17.4446 9.75051 20.5011 9.75051C20.6556 9.75051 22.1943 9.7887 22.0982 9.63778C21.3633 8.48293 20.7991 7.28387 19.8247 6.29331C18.7425 5.19303 17.5877 4.26552 16.8373 2.89247C16.0998 1.54314 15.8602 2.45827 15.2778 3.49372" stroke="#120E07" stroke-width="2" stroke-linecap="round"/>
<path d="M16.6306 3.66278C16.6306 3.40309 16.1954 3.94644 15.9824 4.09493C14.8033 4.91671 13.571 5.67649 12.4406 6.56571C10.2606 8.28067 13.324 6.81909 14.0565 6.44358C14.5031 6.21463 15.38 5.39329 15.4563 5.8893C15.5295 6.36522 13.93 7.3046 13.6243 7.50516C13.2714 7.73676 12.1746 8.06779 12.5721 8.20976C13.0601 8.38403 14.7963 7.21712 15.2214 7.02604C15.59 6.8604 16.6743 6.36852 16.3676 6.63147C15.5812 7.30549 14.5134 7.74686 13.5868 8.18157C13.2604 8.33466 12.2918 8.77632 12.6473 8.71706C13.7774 8.52871 14.9033 7.92344 15.9542 7.49577C16.1729 7.40677 16.3883 7.30872 16.6118 7.23272C16.9256 7.12603 17.0158 7.13663 16.7058 7.38303C15.9396 7.99203 14.9177 8.22164 14.1692 8.8204C13.1425 9.64176 19.1738 7.25686 17.9834 7.81519C17.451 8.06491 16.3137 8.35098 15.9824 8.88617C15.8305 9.13149 16.5666 8.90843 16.8467 8.83919C17.4028 8.70172 18.233 8.43589 18.782 8.27552C19.0277 8.20374 19.7699 8.05388 19.5429 8.17218C19.0819 8.41243 17.6233 8.97078 18.0962 8.75464C18.6857 8.48516 19.3295 8.287 19.9469 8.09702C20.8326 7.82449 21.1861 7.841 20.1442 8.3131C18.0458 9.2639 19.7343 8.5465 19.5429 7.72124C19.4517 7.32791 18.9749 7.06783 18.6598 6.89452C18.6084 6.86621 17.625 6.41295 17.664 6.36842C17.8225 6.18733 18.2341 6.18423 18.4344 6.03022C18.8118 5.7399 17.4775 5.92354 17.0064 5.99264C13.9779 6.43682 17.7554 5.52291 16.4615 5.52291" stroke="#120E07" stroke-width="2" stroke-linecap="round"/>
<path d="M15.616 9.75049C15.799 12.8628 15.7851 15.9399 15.7851 19.0511" stroke="#120E07" stroke-width="2" stroke-linecap="round"/>
<path d="M4.84438 23.7567C3.66528 23.2603 3.65454 23.5529 5.23566 23.617C7.01662 23.6892 8.93289 23.593 10.6296 23.2537" stroke="#120E07" stroke-width="2" stroke-linecap="round"/>
<path d="M6.85667 24.0082C6.43931 25.7472 6.99836 28.4896 7.35973 30.2965" stroke="#120E07" stroke-width="2" stroke-linecap="round"/>
<path d="M14.6539 25.769C13.7891 25.769 15.8461 24.2935 15.9954 24.2039C17.2055 23.4779 18.1295 24.0276 19.0138 24.9585C20.1406 26.1446 18.7475 28.6111 17.6164 29.4302C14.1819 31.9173 13.3016 28.2222 14.6539 25.5175" stroke="#120E07" stroke-width="2" stroke-linecap="round"/>
<path d="M23.2062 24.0082C23.3955 26.3984 23.4326 28.6741 23.2062 31.0511" stroke="#120E07" stroke-width="2" stroke-linecap="round"/>
<path d="M22.9545 24.0082C24.2142 23.5157 29.5173 21.5682 27.9013 25.238C27.1814 26.8726 25.1573 26.6989 23.7091 26.7751" stroke="#120E07" stroke-width="2" stroke-linecap="round"/>
</svg>
