<svg width="170" height="198" viewBox="0 0 170 198" fill="none" xmlns="http://www.w3.org/2000/svg">
<path fill-rule="evenodd" clip-rule="evenodd" d="M6.84414 112.368C9.17505 112.596 11.506 112.825 13.8369 113.053C25.0002 113.906 36.1591 115.685 47.237 116.753C47.5128 116.305 48.0527 116.378 48.3805 116.69C49.4859 116.593 50.7248 115.749 51.7261 116.627C51.7586 116.623 51.7912 116.617 51.824 116.614C53.6069 113.196 54.8392 109.549 56.0353 105.898C56.7987 103.653 57.8259 101.48 59.7239 99.9732C62.9632 97.7268 70.3851 93.1715 74.1888 93.363C74.2518 92.6826 74.5693 91.9813 75.0906 91.5283C73.9417 89.5715 78.5354 88.2948 78.8594 88.5216C78.6517 81.9841 81.7298 76.3067 88.5172 75.0048C94.5978 73.739 103.246 73.5264 106.517 79.8749C106.876 79.8344 110.551 79.8153 110.906 79.8551C111.459 79.1556 117.53 85.7835 115.042 88.0909C137.286 97.9216 149.934 96.7486 156.091 124.385C156.924 126.982 156.984 129.823 157.863 132.361C160.99 139.656 163.527 147.423 164.158 155.361C165.682 155.751 165.858 158.436 164.092 158.825C163.417 158.973 162.853 159.176 162.361 159.561C162.746 166.066 161.171 180.924 160.179 180.878C158.156 187.311 149.132 189.126 142.743 186.866C143.845 188.936 142.743 190.237 142.743 191.343C119.755 192.212 94.6205 191.712 71.6389 192.903C68.6992 192.861 65.6071 193.625 62.7076 193.185C60.9393 192.762 60.9363 189.984 62.73 189.641L54.8926 187.94C55.0678 187.874 51.662 185.611 49.0879 181.382C46.692 176.651 48.3227 170.94 47.237 165.794C38.7579 165.101 30.1385 164.805 21.7521 163.37C20.6087 166.788 15.6588 162.701 14.0854 161.056C14.0874 161.054 14.0893 161.051 14.0913 161.049C13.3298 160.841 12.7192 160.128 12.6988 159.284C12.1648 158.521 12.0527 157.447 12.5648 156.71C10.2177 143.18 6.63957 129.365 5.34625 115.708C4.88906 115.607 4.4585 115.406 4.09346 115.098L4.12304 115.068C3.50457 114.379 3.3843 113.19 4.41536 112.605C5.24707 112.133 5.94152 112.279 6.84414 112.368Z" fill="#EDB98A"/>
<path fill-rule="evenodd" clip-rule="evenodd" d="M95.4943 163.008L93.6987 164.15L79.0075 168.879L70.0296 170.021L62.684 168.879V181.436L61.2149 193.178C61.8678 194.374 68.0708 194.374 79.8237 193.178C87.3159 192.416 114.698 192.046 120.932 191.883L121.285 191.873C128.611 191.662 135.848 191.662 142.996 191.873V187.47L122.591 177.359L104.309 167.085L95.4943 163.008ZM105.904 78.8486L104.555 79.8552L107.501 84.6905L93.1501 96.2871V105.55L88.6069 109.843L86.01 105.55L82.3507 100.688L79.7502 92.8076L80.6357 87.6157L78.8551 87.4481C78.8464 87.803 78.8479 88.161 78.8593 88.5217C78.5353 88.2949 73.9417 89.5716 75.0905 91.5284C74.5693 91.9814 74.2518 92.6827 74.1887 93.363C70.3851 93.1716 62.9631 97.7269 59.7239 99.9733C57.8258 101.48 56.7987 103.653 56.0353 105.898L55.8555 106.446L55.6699 107.008L55.483 107.57C54.45 110.658 53.3346 113.718 51.8239 116.614C51.7911 116.617 51.7586 116.623 51.7261 116.627C50.7248 115.749 49.4859 116.593 48.3805 116.69C48.0603 116.386 47.5378 116.308 47.2566 116.723L47.237 116.753L61.0094 119.464L70.0951 151.304L78.0076 144.887L82.2547 145.518L93.4704 149.56L106.515 152.945L136.294 161.147H140.086L162.153 155.823L164.142 155.167C163.485 147.297 160.965 139.596 157.863 132.361C156.984 129.823 156.924 126.982 156.091 124.386C149.934 96.7487 137.286 97.9217 115.042 88.091C117.53 85.7836 111.459 79.1557 110.906 79.8552L110.871 79.8521L110.796 79.8481L110.699 79.8447C109.831 79.8195 106.839 79.8386 106.517 79.8749C106.33 79.5117 106.125 79.1699 105.904 78.8486Z" fill="white"/>
<path fill-rule="evenodd" clip-rule="evenodd" d="M4.64278 113.335L5.05301 115.619C5.15051 115.65 5.24971 115.677 5.35019 115.7C5.47912 117.061 5.63075 118.424 5.80161 119.788L8.34496 133.95C8.78364 136.456 9.20008 138.966 9.61348 141.478L10.1613 144.176L10.5005 145.853C11.2329 149.484 11.9444 153.103 12.5687 156.702C12.4745 156.838 12.4014 156.985 12.3482 157.139L12.3962 157.342L12.4296 157.477L12.4638 157.611C12.9564 159.503 13.8136 161.337 15.8336 161.894C17.3572 162.314 19.0291 162.352 20.6024 162.517L20.7768 162.536L48.3079 165.63C51.6345 166.003 54.9596 166.388 58.2843 166.777L61.1665 167.115C65.1838 167.58 69.2241 167.945 73.1822 168.787C73.3277 168.818 73.4481 168.876 73.5464 168.952C72.7493 165.938 71.9864 162.928 71.2949 159.883C70.5166 156.456 69.778 153.023 68.9455 149.608C67.2684 142.73 65.3884 135.896 63.3303 129.121C62.8984 127.699 62.4566 126.28 62.005 124.864L61.6881 123.875L61.4443 123.086C61.0669 121.884 60.5999 120.648 59.4933 119.985C58.1983 119.208 56.4323 119.08 54.9635 118.811L53.9689 118.624C52.4808 118.347 50.9907 118.08 49.4989 117.824C42.3564 116.597 35.1734 115.612 27.9639 114.873C20.4619 114.103 12.9338 113.603 5.39654 113.358L4.64278 113.335ZM72.976 160.553L72.9057 160.559L73.9341 168.772C74.0985 168.657 74.3072 168.586 74.5621 168.587C77.9353 168.597 81.1688 167.52 84.2964 166.336L84.7727 166.154L86.1005 165.645C87.4503 165.128 88.8073 164.623 90.1896 164.204L90.7483 164.035L91.0324 163.951C92.0789 163.646 93.1799 163.369 94.2685 163.3L94.4169 163.291L94.0999 163.125C94.0535 163.101 94.0129 163.074 93.9768 163.044C93.3776 163.089 92.7772 163.077 92.1451 162.963C90.9564 162.749 89.8006 162.336 88.7392 161.761L88.2652 161.504L88.0711 161.401L87.9429 161.335L87.8155 161.271C86.9039 160.817 86.0323 160.532 84.8813 160.774C83.5747 161.049 82.4298 161.752 81.252 162.347L81.0429 162.451L80.9024 162.519L80.7591 162.586L80.6141 162.652C79.0214 163.368 76.4867 164.141 75.8759 161.977C75.6306 161.108 75.8227 160.294 76.2484 159.581C75.4551 159.512 74.0379 160.446 72.976 160.553ZM33.3297 133.494L33.3106 133.592C33.0853 134.804 33.6501 135.962 34.5048 136.807C35.2059 137.5 36.4466 137.885 36.7981 138.881C36.9982 139.448 36.7854 139.986 36.3743 140.361L36.469 140.408L36.5616 140.455L36.6519 140.503L36.74 140.551L36.8258 140.599C38.2221 141.401 39.3592 142.704 38.0999 144.278C36.6713 146.064 33.6862 146.122 31.583 145.982L31.4413 145.972C29.402 145.819 26.9862 145.135 25.8804 143.254C25.3732 142.391 25.4291 141.347 26.136 140.609C26.5626 140.163 27.3234 139.705 28.0211 139.651C27.9906 139.259 28.0374 138.879 28.1757 138.559C28.4747 137.867 29.2705 137.401 30.038 137.384C29.9759 135.915 31.1538 134.465 32.0212 133.29L32.1097 133.17L32.1957 133.051C32.5936 132.498 33.4451 132.808 33.3297 133.494ZM32.166 135.058L31.3757 138.015L31.3893 138.039C31.6677 138.567 30.938 139.167 30.5052 138.723L30.4616 138.676C29.948 138.146 29.1595 138.859 29.1497 139.423C29.1357 140.217 29.6531 140.831 30.2696 141.236L30.3127 141.264L30.4264 141.335C30.9323 141.669 30.5493 142.367 29.9931 142.282C29.3049 142.177 28.741 141.632 28.3933 140.951C28.0217 141.057 27.599 141.044 27.2077 141.263C26.2217 141.814 26.7888 142.778 27.4308 143.36L27.4569 143.383L27.5092 143.429C28.6871 144.433 30.2909 144.781 31.8027 144.856L31.8898 144.86C33.4168 144.925 35.4063 144.947 36.7152 144.05C37.5297 143.491 37.7656 142.699 37.0762 141.949C36.6864 141.526 36.2929 141.098 35.8877 140.685C35.2813 140.974 34.7397 140.857 34.1196 140.583C34.0401 140.548 34.0841 140.426 34.162 140.426C34.5041 140.426 35.7596 139.791 35.8206 139.386C35.877 139.011 35.1826 138.694 34.8449 138.513L34.7959 138.486L34.7534 138.462C34.4002 138.248 34.0676 137.999 33.7637 137.719C32.9923 137.01 32.432 136.12 32.1873 135.146L32.166 135.058Z" fill="white"/>
<path fill-rule="evenodd" clip-rule="evenodd" d="M106.093 78.4005C105.4 76.6615 103.059 77.3375 103.32 79.1643C103.476 80.2586 104.076 81.4143 104.615 82.3734C105.054 83.154 105.554 83.9159 106.233 84.5011C105.025 85.627 103.771 86.7118 102.485 87.7418C101.083 88.8656 99.6074 89.9014 98.0826 90.8535C96.7456 91.6885 95.3481 92.4282 94.0878 93.3809C92.9159 94.2666 91.8483 95.3318 91.3051 96.7224C90.7264 98.2032 90.9779 99.7325 91.404 101.212L91.453 101.38C91.8883 102.846 92.642 104.613 91.597 105.994C91.065 106.697 90.2916 107.195 89.6238 107.758C89.0302 108.257 88.4731 108.801 87.9622 109.384C86.8481 110.657 85.942 112.088 85.3702 113.684L85.319 113.828C84.8289 115.241 84.4707 116.971 85.133 118.357C85.323 118.754 85.9358 118.625 86.0422 118.238C86.2828 117.362 86.2703 116.444 86.472 115.554C86.6819 114.63 87.0313 113.752 87.4875 112.922C88.3703 111.315 89.5658 109.943 90.9782 108.783L91.401 108.439C92.5029 107.536 93.5153 106.578 93.7389 105.082C93.9782 103.483 93.3367 101.959 92.9242 100.445C92.6368 99.3899 92.5429 98.3784 92.8535 97.4249C93.2331 98.0438 93.7508 98.6312 94.1604 99.1552C94.9761 100.199 95.7995 101.237 96.6207 102.276C97.4627 103.342 98.2839 104.425 99.066 105.535C99.4158 106.032 99.7618 106.532 100.107 107.032C100.366 107.408 100.728 107.784 101.011 108.168C100.942 108.373 100.947 108.609 101.072 108.777C102.571 110.801 104.704 106.578 105.26 105.512C106.393 103.339 107.236 101.031 108.373 98.8584C109.551 96.6066 110.892 94.4148 112.386 92.359C113.291 91.1156 114.304 89.9476 115.131 88.6646C117.08 90.4298 119.644 91.6131 121.999 92.6862C124.587 93.865 127.275 94.828 129.928 95.8506L130.712 96.1547C135.283 97.9371 139.966 99.8952 143.766 103.061C148.231 106.781 150.872 111.967 152.839 117.336C155.103 123.518 156.975 129.866 158.721 136.21C159.615 139.456 160.462 142.717 161.259 145.988C161.961 148.87 162.543 151.781 163.356 154.633C161.708 154.575 159.827 155.213 158.42 155.397C152.005 156.236 145.676 157.573 139.62 159.888C138.872 160.174 138.655 160.921 138.818 161.526C138.387 161.404 137.955 161.281 137.524 161.16C137.997 160.436 137.771 159.142 137.734 158.34L137.732 158.285C137.693 157.217 137.577 156.147 137.502 155.08C137.359 153.047 137.172 151.028 136.924 149.006L136.861 148.501C136.58 146.301 136.372 144.089 136.065 141.893L136.029 141.642C136.176 141.08 136.347 140.525 136.527 139.972C137.006 138.501 137.682 137.115 138.274 135.69C138.344 135.522 138.105 135.426 137.993 135.526C136.99 136.428 136.193 137.572 135.553 138.768C135.542 138.712 135.532 138.655 135.52 138.599L135.447 138.239C135.267 137.363 135.048 136.442 134.51 135.731C134.453 135.656 134.339 135.64 134.285 135.731C133.77 136.601 133.713 137.704 133.634 138.694C133.544 139.814 133.533 140.949 133.549 142.072C133.579 144.268 133.734 146.47 133.858 148.662C133.979 150.816 134.217 152.942 134.523 155.075L134.581 155.475C134.731 156.49 134.854 157.518 135.051 158.526L135.107 158.801C135.213 159.301 135.278 160.006 135.488 160.591C130.079 159.084 124.661 157.611 119.233 156.164C115.31 155.118 111.383 154.088 107.457 153.051C107.25 152.678 106.992 152.33 106.67 152.018C105.61 150.992 104.204 150.534 102.915 151.324C102.811 151.389 102.802 151.553 102.915 151.615C103.162 151.75 103.41 151.888 103.653 152.032L101.296 151.394C99.534 150.917 97.7511 150.321 95.9478 149.989C92.6265 148.351 89.0542 147.166 85.5554 145.995L85.1432 145.855C83.3517 145.245 81.4987 144.562 79.6478 144.224C78.2928 143.976 76.7022 144.275 76.1573 145.662C75.4675 146.116 74.8185 146.65 74.1921 147.175C73.7393 147.554 73.3053 147.957 72.8639 148.35L72.7825 148.421C72.4217 148.734 72.1358 148.944 72.0472 149.441C72.0015 149.699 72.1651 150.046 72.4826 150.012C73.454 149.908 74.2439 148.783 74.9027 148.112C75.4117 147.592 75.9247 147.056 76.3893 146.485C76.6601 146.632 77.0313 146.606 77.2037 146.28C78.0976 144.589 80.5462 145.76 81.9011 146.161L83.842 146.735C84.8123 147.023 85.7823 147.311 86.7507 147.605C89.4121 148.413 92.0604 149.316 94.7459 150.058C94.5056 150.322 94.5388 150.791 94.9952 150.97C97.0973 151.794 99.4035 152.22 101.587 152.785C102.966 153.142 104.344 153.502 105.722 153.863C105.958 154.246 106.128 154.678 106.2 155.182C106.462 157.033 105.955 159.168 105.462 160.959L105.387 161.226C104.981 162.665 104.384 164.43 103.141 165.338C102.837 165.56 102.451 165.714 102.061 165.749C99.6281 164.498 97.195 163.247 94.7603 161.998C94.3093 161.767 93.8925 162.08 93.7913 162.452C92.9329 162.312 92.0764 162.09 91.2963 161.825C89.9855 161.381 88.962 160.532 87.7332 159.946C85.3555 158.811 82.9274 160.205 80.7985 161.265L80.3079 161.505C79.3532 161.968 77.3671 162.857 76.909 161.592C76.466 160.367 77.8667 159.059 78.7714 158.508C79.8497 157.851 81.1053 157.499 82.324 157.206C83.0199 157.039 83.7243 156.902 84.4329 156.803C85.2367 156.69 86.0669 156.707 86.8408 156.446C87.2253 156.317 87.2844 155.707 86.8408 155.606C85.6495 155.335 84.2276 155.631 82.9844 155.932L82.3347 156.092C81.0821 156.399 79.8176 156.785 78.6767 157.397C77.8471 157.843 76.9716 158.52 76.3996 159.348C75.9029 158.887 75.2847 158.903 74.6407 159.074L74.2911 159.171C73.714 159.331 73.2461 159.441 72.6845 159.33C72.6094 158.922 72.5333 158.513 72.4519 158.105C71.6515 154.091 70.7738 150.092 69.8054 146.115C68.1348 139.255 66.2018 132.469 64.0226 125.754L63.8038 125.083C63.3012 123.547 62.8967 121.873 62.0864 120.462C61.32 119.128 60.0922 118.359 58.6334 117.952C56.9778 117.49 55.2382 117.248 53.5494 116.936C53.1727 116.867 52.7949 116.801 52.4178 116.733C52.7365 116.158 52.9744 115.505 53.1886 115.005L53.2262 114.918C53.6865 113.87 54.0999 112.802 54.4992 111.729L54.7979 110.923C55.5188 108.98 56.263 107.07 57.2765 105.253C58.3434 103.341 59.7589 101.778 61.5233 100.484C65.1207 97.8463 69.4567 96.5007 72.9458 93.6816C73.0888 93.5661 72.9055 93.3687 72.7604 93.4417C70.4044 94.6244 67.8611 95.4285 65.4106 96.3913L64.9272 96.5819C62.9903 97.3489 61.0233 98.184 59.3469 99.4259C57.4778 100.811 56.0058 102.531 54.8993 104.576C53.8089 106.592 53.1114 108.848 52.3421 111.002L52.1363 111.575C51.826 112.436 51.5055 113.293 51.1382 114.131C50.8467 114.795 50.3026 115.554 50.0553 116.314C49.3787 116.196 48.7023 116.079 48.025 115.966C33.3555 113.519 18.5222 112.081 3.65583 111.661C3.07422 111.644 2.77339 112.199 2.85908 112.705C4.28576 121.133 5.55361 129.59 6.9447 138.025C7.55194 141.706 8.17126 145.384 8.8051 149.061C9.12618 150.924 9.49738 152.779 9.80149 154.645C10.047 156.151 10.2252 157.67 10.6467 159.141C11.0248 160.461 11.6049 161.733 12.5577 162.74C13.5848 163.825 15.0183 164.35 16.4613 164.598C20.1245 165.228 23.8818 165.485 27.5747 165.905L47.2359 168.14C46.9486 170.749 46.9271 173.317 47.059 175.956L47.1341 177.397C47.1955 178.556 47.2689 179.717 47.4356 180.864C47.6445 182.303 48.3033 183.521 49.2738 184.596C50.1649 185.583 51.2475 186.425 52.3005 187.232C53.3935 188.07 54.5229 188.878 55.8081 189.397L55.9749 189.463C57.1023 189.902 59.2173 190.583 60.7584 190.335C60.5569 191.343 60.1671 192.427 60.5127 193.425C60.673 193.888 61.2794 194.119 61.6509 193.725C62.387 192.944 62.4444 191.912 62.6188 190.892C62.8001 189.832 62.9565 188.767 63.0954 187.7C63.3641 185.637 63.5732 183.555 63.637 181.475C63.7026 179.338 63.6773 177.198 63.5621 175.064C63.5028 173.968 63.4294 172.873 63.2901 171.784C63.2307 171.319 63.17 170.854 63.1006 170.391C63.0753 170.222 63.0473 170.054 63.0171 169.886L64.7818 170.085C67.4877 170.387 70.1948 170.659 72.9199 170.702C73.2426 170.707 73.4909 170.56 73.6531 170.346C73.826 170.627 74.127 170.829 74.5581 170.827C78.3636 170.813 81.9075 169.57 85.3687 168.104C87.1134 167.366 88.8309 166.566 90.5782 165.834C92.2091 165.15 93.9526 164.662 95.5442 163.892L99.7262 166.084C99.7569 166.191 99.7963 166.293 99.8381 166.379C100.11 166.934 100.647 167.235 101.196 167.462C101.722 167.68 102.267 167.748 102.798 167.693C105.97 169.353 109.142 171.012 112.317 172.667L115.492 174.321C121.818 177.612 128.12 180.956 134.486 184.17L134.954 184.406C137.153 185.507 139.515 186.624 141.955 187.457C141.998 188.074 141.971 188.674 141.919 189.327L141.907 189.47C141.834 190.241 141.678 191.208 142.298 191.758C142.62 192.044 143.196 192.045 143.415 191.614C143.813 190.833 143.456 189.601 143.33 188.752C143.285 188.45 143.23 188.14 143.15 187.839C145.947 188.671 148.83 189.074 151.676 188.607C154.448 188.153 156.595 186.408 158.325 184.274C160.152 182.023 161.45 179.399 162.146 176.586C162.939 173.385 162.99 170.079 162.972 166.8C162.952 163.309 162.823 159.8 162.398 156.333C162.863 156.223 163.38 156.129 163.85 156.161C164.084 156.534 164.536 156.691 164.944 156.642C165.833 157.621 163.579 158.622 162.859 158.872C162.609 158.959 162.636 159.365 162.924 159.353L163.106 159.344C164.219 159.285 165.368 159.095 166.023 158.062C166.547 157.234 166.389 156.253 165.764 155.578C165.352 151.678 164.365 147.881 163.446 144.077C162.545 140.343 161.542 136.633 160.48 132.942L160.004 131.29C158.331 125.503 156.582 119.669 154.274 114.111C153.122 111.336 151.795 108.612 149.995 106.193C148.318 103.937 146.338 102.007 144.062 100.359C139.818 97.2855 134.839 95.4285 129.947 93.6593L129.728 93.5802C127.193 92.664 124.664 91.7369 122.158 90.7442C119.941 89.8664 117.818 88.7534 115.611 87.8623C115.683 87.7323 115.752 87.6009 115.819 87.468L115.86 87.5022C115.867 87.5078 115.874 87.5131 115.881 87.5182C116.103 87.6718 116.43 87.5963 116.613 87.4239C117.129 86.9373 116.954 86.3971 116.609 85.8924L116.565 85.8282C116.143 85.2384 115.767 84.6147 115.378 84.0035L115.135 83.6213C114.482 82.6001 113.796 81.5722 112.925 80.7282C112.522 80.3372 112.08 80.0446 111.613 79.8266C111.653 79.7421 111.302 79.5694 111.203 79.6563C109.721 79.1146 108.016 79.2281 106.401 79.3775M48.1873 168.247L50.2473 168.482C52.5137 168.739 54.7809 168.988 57.0484 169.235L61.9737 169.77C61.9862 170.05 62.0203 170.324 62.0265 170.536C62.0587 171.628 62.0827 172.721 62.1054 173.814C62.1509 176.003 62.101 178.195 61.9567 180.381C61.8168 182.499 61.6326 184.617 61.3464 186.72L61.2877 187.141L61.2538 187.362C61.0202 187.384 60.7907 187.495 60.5999 187.723C60.1833 188.22 58.6748 187.737 58.0857 187.527C57.1169 187.183 56.2046 186.601 55.3628 186.018C54.5407 185.448 53.8004 184.784 53.0891 184.084L52.5071 183.509C51.9281 182.934 51.3485 182.322 50.9938 181.599C50.5127 180.618 50.4505 179.415 50.3095 178.347C50.1358 177.033 49.929 175.72 49.7104 174.413M107.989 154.46L108.203 154.517C115.965 156.577 123.715 158.698 131.501 160.668C135.354 161.643 139.226 162.547 143.083 163.503L143.708 163.659C146.751 164.427 149.831 165.352 152.162 167.557C152.248 167.639 152.373 167.514 152.292 167.428C149.78 164.756 146.208 163.626 142.778 162.645C142.144 162.464 141.509 162.287 140.875 162.107C145.539 160.446 150.278 159 155.125 157.97C156.374 157.704 157.636 157.509 158.884 157.243C159.753 157.057 160.603 156.788 161.464 156.565L162.141 156.395L162.15 158.532C162.161 161.56 162.155 164.585 162.001 167.612L161.972 168.173C161.791 171.542 161.51 174.981 160.313 178.157C159.341 180.738 157.791 183.17 155.764 185.05C154.738 186.001 153.636 186.742 152.273 187.107C151.007 187.447 149.681 187.487 148.38 187.396C142.14 186.961 136.585 183.574 131.164 180.77C122.298 176.184 113.43 171.6 104.555 167.032C104.795 166.868 105.021 166.679 105.226 166.467C106.416 165.239 107.044 163.558 107.456 161.93C107.895 160.197 108.158 158.339 108.188 156.55M96.6963 168.802C96.6179 168.76 96.5271 168.813 96.5236 168.901C96.4961 169.578 96.8707 170.246 97.1506 170.856L97.1802 170.921C97.5203 171.677 97.8926 172.423 98.2777 173.157C99.0473 174.623 99.8472 176.073 100.682 177.503C102.361 180.38 104.226 183.136 106.431 185.641C106.929 186.207 107.748 185.481 107.429 184.872C105.888 181.935 104.091 179.162 102.242 176.413C101.316 175.036 100.391 173.659 99.4566 172.288C99.0666 171.717 98.6716 171.147 98.2659 170.586L98.0212 170.25M4.63884 113.343C12.4279 113.578 20.2079 114.085 27.96 114.881C35.1694 115.62 42.3524 116.605 49.495 117.832C50.9868 118.088 52.4768 118.355 53.9649 118.632L54.8576 118.8C56.3459 119.082 58.1642 119.198 59.4894 119.993C60.8865 120.83 61.2641 122.58 61.729 124.023C62.2755 125.721 62.8081 127.423 63.3264 129.129C65.3844 135.904 67.2644 142.738 68.9415 149.616C69.774 153.031 70.5127 156.464 71.291 159.891C71.9824 162.936 72.7454 165.946 73.5425 168.96C73.4442 168.884 73.3237 168.826 73.1783 168.795C69.2202 167.953 65.1798 167.588 61.1626 167.123L60.7739 167.078C56.6181 166.589 52.4622 166.105 48.304 165.638L20.7729 162.544C19.1492 162.362 17.4097 162.337 15.8296 161.902C13.1431 161.162 12.5134 158.161 12.0627 155.771L12.0491 155.699C10.6901 148.479 9.60838 141.196 8.34102 133.958M72.9018 160.567C73.9706 160.497 75.4335 159.519 76.2445 159.589C75.8188 160.302 75.6267 161.116 75.872 161.985C76.5548 164.404 79.6427 163.153 81.1301 162.414C82.3497 161.808 83.5272 161.066 84.8774 160.782C86.4069 160.461 87.4431 161.068 88.7353 161.769C89.7966 162.344 90.9525 162.757 92.1412 162.971C92.7732 163.085 93.3736 163.097 93.9728 163.052C94.0089 163.082 94.0496 163.109 94.0959 163.133L94.4129 163.3C92.9796 163.365 91.5196 163.807 90.1856 164.212C88.8033 164.631 87.4463 165.136 86.0966 165.653L84.7687 166.162C81.4933 167.416 78.1029 168.605 74.5581 168.595C74.3033 168.594 74.0945 168.665 73.9301 168.78M78.882 152.988C77.826 152.859 76.8514 152.997 76.0076 153.684C74.99 154.512 74.3064 155.886 72.8434 155.976C72.4169 156.002 72.3178 156.601 72.7417 156.726C73.8307 157.049 74.7123 156.46 75.4542 155.696L75.953 155.175C76.6862 154.417 77.3624 153.83 78.6065 153.876C79.9388 153.924 81.2734 154.232 82.5971 154.388C84.0966 154.565 85.5957 154.716 87.0999 154.847C87.1698 154.853 87.1817 154.743 87.1163 154.727L85.4315 154.308M79.9013 148.675L79.7272 148.658C78.1938 148.509 76.7914 148.503 75.422 149.327L75.1593 149.486C73.9246 150.236 72.5807 151.119 71.8086 152.333C71.6823 152.532 71.891 152.765 72.1024 152.715C73.5864 152.359 74.6713 151.271 75.9192 150.457C77.3198 149.544 78.7665 149.694 80.3634 149.836C81.9096 149.974 83.455 150.162 84.9859 150.42C86.4245 150.662 87.8677 151.043 89.3208 151.165L89.3205 151.162C89.4865 151.162 89.5812 150.913 89.4119 150.828C87.9372 150.093 86.2293 149.744 84.6252 149.408M33.3197 133.534C33.4679 132.826 32.5959 132.497 32.1917 133.059L32.1058 133.178C31.2326 134.373 29.9698 135.873 30.0341 137.392C29.2665 137.409 28.4708 137.875 28.1717 138.567C28.0335 138.887 27.9866 139.267 28.0171 139.659C27.3195 139.713 26.5586 140.171 26.1321 140.617C25.4251 141.355 25.3693 142.399 25.8765 143.262C26.9823 145.143 29.398 145.827 31.4374 145.98L31.51 145.985C33.6164 146.131 36.6516 146.092 38.0959 144.286C39.4891 142.545 37.9493 141.135 36.3704 140.369C36.7814 139.994 36.9943 139.456 36.7941 138.889C36.4427 137.893 35.2019 137.508 34.5008 136.815C33.6462 135.97 33.0814 134.812 33.3066 133.6M32.162 135.066C32.3943 136.074 32.965 136.997 33.7598 137.727C34.0637 138.007 34.3962 138.256 34.7495 138.47L34.7919 138.494C35.1054 138.67 35.876 138.999 35.8167 139.394C35.7556 139.799 34.5002 140.434 34.1581 140.434C34.0802 140.434 34.0361 140.556 34.1156 140.591C34.7357 140.865 35.2774 140.982 35.8838 140.693C36.2889 141.106 36.6825 141.534 37.0723 141.957C37.7616 142.707 37.5258 143.499 36.7112 144.058C35.4024 144.955 33.4129 144.933 31.8858 144.868C30.3488 144.802 28.7058 144.46 27.5052 143.437L27.4529 143.391C26.8004 142.812 26.2045 141.829 27.2037 141.271C27.595 141.052 28.0178 141.065 28.3893 140.959C28.737 141.64 29.301 142.185 29.9892 142.29C30.5454 142.375 30.9284 141.677 30.4225 141.343L30.3088 141.272C29.6735 140.867 29.1314 140.243 29.1457 139.431C29.1556 138.867 29.944 138.154 30.4577 138.684L30.4812 138.709C30.911 139.194 31.6681 138.584 31.3854 138.047L31.3718 138.023M132.408 107.019C132.41 106.898 132.239 106.853 132.18 106.958C131.182 108.711 130.661 110.861 130.129 112.793C129.572 114.817 129.123 116.861 128.719 118.92C127.902 123.091 127.466 127.237 127.436 131.487C127.432 132.094 128.422 132.255 128.519 131.633C129.161 127.499 129.777 123.361 130.425 119.228C130.75 117.149 131.13 115.078 131.493 113.005M122.531 110.074C122.604 109.832 122.252 109.751 122.162 109.972C120.16 114.882 119.482 120.447 120.767 125.627C120.964 126.42 122.126 126.076 121.977 125.294M96.7043 105.711C96.7144 105.53 96.4791 105.501 96.3905 105.626C95.4418 106.961 95.0482 108.75 93.3837 109.44C92.5527 109.785 91.6175 109.725 90.8833 110.307C90.3924 110.696 90.016 111.31 90.3844 111.9C90.5033 112.09 90.8359 112.186 90.9972 111.979C91.2326 111.677 91.3571 111.316 91.6769 111.09C92.1279 110.771 92.7362 110.752 93.2533 110.602C93.9222 110.408 94.5118 110.069 94.9947 109.565M80.8544 83.4369C80.7566 83.3871 80.6627 83.4189 80.6002 83.5034C80.5109 83.6238 80.5219 83.7409 80.6312 83.8234C80.4851 84.1217 80.3126 84.8689 80.288 84.9777C80.1881 85.4186 80.0818 85.857 79.9706 86.295C79.7463 87.1784 79.5498 88.0687 79.3254 88.9524C79.0874 89.8891 78.8038 90.8159 78.4883 91.7293C78.4679 91.7884 78.4456 91.8488 78.4221 91.9101L78.3861 92.0026L78.3773 91.9886C78.3131 91.8873 78.1796 91.9581 78.1954 92.0651C78.2101 92.1626 78.2299 92.2596 78.2465 92.3571L78.2135 92.4445C78.0071 92.9995 77.8657 93.584 78.2444 94.0737C78.3861 94.2568 78.542 94.3653 78.7362 94.3976C79.0477 95.4233 79.4385 96.43 79.8569 97.3968L79.9795 97.6791C80.5949 99.0898 81.2512 100.482 82.2311 101.683C83.301 102.994 84.7725 103.889 85.7044 105.326C86.138 105.994 86.4396 106.697 86.6845 107.452L86.7766 107.738C86.9504 108.272 87.1509 108.789 87.6522 109.103C87.8121 109.202 88.0518 109.171 88.1807 109.034C89.2086 107.948 88.1326 105.92 87.5128 104.868C86.6512 103.406 85.4042 102.47 84.1557 101.367C82.8098 100.177 81.9513 98.5863 81.1209 97.0189C80.6123 96.0587 80.1213 95.0778 79.6043 94.1133C80.1444 93.6364 80.3173 92.6891 80.5003 92.0307L80.517 91.9716C80.8195 90.9172 81.0597 89.8353 81.2115 88.7487C81.3577 87.7039 81.4186 86.6742 81.3799 85.6235L81.3688 85.3559M78.8462 88.4095C78.9655 88.246 78.768 88.061 78.6043 88.095C77.6089 88.3007 76.6356 88.9026 75.7422 89.3894L75.6468 89.4411C74.9336 89.8253 74.216 90.296 73.8416 91.0424C73.4343 91.8536 73.4679 92.788 73.5234 93.6696L73.5287 93.7521C73.5967 94.8093 73.6077 95.9078 73.8316 96.946C73.9462 97.4773 74.4279 97.627 74.8398 97.5014C75.3298 99.0473 76.7064 100.186 77.7119 101.406C78.9939 102.961 78.7527 105.061 78.6187 106.934C78.5645 107.692 79.5086 107.908 79.9949 107.503L81.1156 106.573C81.3022 106.418 81.4886 106.262 81.6744 106.106C81.8336 105.972 81.9914 105.838 82.1478 105.701L82.3816 105.495C82.4852 105.402 82.9424 104.892 83.0761 104.871C83.3999 104.819 84.1693 105.672 84.4326 105.939L84.4659 105.973C84.9615 106.458 85.4093 106.981 85.8263 107.535C85.903 107.636 86.0531 107.552 85.9982 107.434C85.6245 106.634 85.19 105.87 84.674 105.154L84.5697 105.012C84.2265 104.55 83.7656 103.733 83.1597 103.597C82.4198 103.43 81.6811 104.172 81.1427 104.583L81.1087 104.609C80.8525 104.801 80.5994 104.996 80.3467 105.193C80.3731 103.798 80.1968 102.389 79.4761 101.188C78.968 100.34 78.2067 99.7125 77.5552 98.9841C76.8299 98.1732 76.4512 97.1764 75.7947 96.3318C75.7101 96.2232 75.5936 96.1647 75.4674 96.1461C75.4422 95.4671 75.3421 94.7813 75.2647 94.1097L75.2423 93.9086C75.1641 93.1789 74.9793 92.2875 75.337 91.604C75.6748 90.9585 76.45 90.5028 77.024 90.0648L77.4927 89.7016M111.153 80.6929C111.453 80.866 111.733 81.0815 111.987 81.3507C112.787 82.1986 113.359 83.2537 113.915 84.2687C114.215 84.8153 114.504 85.368 114.806 85.9133C114.938 86.1506 115.073 86.3853 115.209 86.6196C115.273 86.7276 115.46 86.9422 115.553 87.0745C115.45 87.2192 115.343 87.3617 115.234 87.5026C115.192 87.5564 112.323 90.6796 111.322 91.9019C109.791 93.7742 108.421 95.7519 107.251 97.8687C106.105 99.9415 105.232 102.136 104.17 104.249C103.639 105.307 103.045 106.358 102.288 107.273C102.259 107.309 102.228 107.343 102.198 107.378C101.91 106.598 101.17 105.764 100.806 105.285L100.772 105.24C99.9482 104.13 99.0779 103.053 98.1886 101.995C97.3763 101.029 96.5434 100.083 95.6903 99.1535L95.3695 98.8055C94.7751 98.1642 94.0202 97.2044 93.1501 96.7462C93.2433 96.5802 93.3512 96.4159 93.4753 96.2538C94.2905 95.1896 95.4428 94.4173 96.5799 93.7204L97.3173 93.2723C100.097 91.5801 102.833 89.8094 105.246 87.6107C106.523 86.4473 107.782 85.2286 108.855 83.8716L109.235 83.3918M106.515 79.8551C107.817 79.9642 109.222 79.9383 110.425 80.362C109.356 81.3719 108.339 82.4624 107.295 83.4893C107.202 82.7948 107.012 82.1087 106.851 81.4314" fill="#120E07"/>
<path fill-rule="evenodd" clip-rule="evenodd" d="M121.64 20.0536C120.795 19.1461 119.715 18.47 118.533 18.2539C119.613 18.7939 120.668 19.3566 121.64 20.0536ZM123.294 27.8788C123.444 27.1872 123.544 26.4889 123.576 25.7908C123.387 26.0781 123.085 26.2701 122.747 26.3692C122.965 26.8596 123.152 27.3648 123.294 27.8788ZM66.7679 38.7225C67.743 34.659 72.2922 26.8431 73.3674 25.3388C74.535 21.6139 68.167 18.6267 71.6302 15.714C73.1982 14.3997 75.2705 13.9346 77.2145 13.4685C90.6741 10.2324 105.135 11.8645 117.619 17.8154C119.517 17.4154 121.496 18.1972 122.877 19.5703C129.364 26.098 120.523 37.8759 118.59 45.235C115.273 53.4406 122.105 54.8209 121.373 61.7637C120.803 65.3505 117.175 66.2984 114.112 66.8405C113.622 66.9555 112.965 66.9728 112.807 67.4922C112.311 70.524 110.61 73.4132 108.326 75.3741C108.526 75.9664 108.374 76.6854 107.67 77.2056C101.289 81.9524 93.2447 84.3278 85.2872 83.9008C75.804 83.392 70.8998 77.9503 69.7164 76.5491C63.1733 67.7025 63.9551 56.0303 65.2898 45.4874C66.2196 38.143 65.0406 45.9208 66.7679 38.7225Z" fill="#EDB98A"/>
<path fill-rule="evenodd" clip-rule="evenodd" d="M96.0091 4.91028C95.711 3.97747 94.8672 3.41648 93.9013 3.53227C93.0461 3.63337 92.1306 4.48302 92.2349 5.42072C92.2544 5.60174 92.2805 5.77134 92.3115 5.93116L92.3074 5.93258V5.93258L92.3033 5.93279L92.3245 5.99476C92.388 6.29319 92.476 6.56064 92.6063 6.81341C92.7724 7.29776 92.9321 7.78373 93.0901 8.27134C92.862 8.26155 92.6291 8.2746 92.3929 8.31863C92.1486 7.69241 91.9026 7.06782 91.6583 6.43996C91.396 5.76971 91.2119 4.90865 90.6939 4.39006C90.031 3.72796 88.881 3.59097 88.073 4.0639C87.2195 4.56292 86.9149 5.45007 87.1006 6.40082C87.1949 6.88579 87.5186 7.22328 87.9191 7.43533L87.9623 7.45757L88.2701 8.18817C88.1756 8.1474 88.0779 8.10989 87.972 8.07891C87.8059 8.02998 87.643 7.999 87.4834 7.98595C87.0436 7.18849 86.5598 6.41387 86.0597 5.65392C85.4847 4.77982 84.3607 4.408 83.4176 4.96084C82.5738 5.45497 82.121 6.75307 82.7253 7.60598C83.1847 8.2534 83.6196 8.91387 84.048 9.58086C83.9747 9.59391 83.9014 9.61022 83.8313 9.63142C83.7988 9.58739 83.7646 9.54335 83.7287 9.49932C83.2612 8.91876 82.7172 8.48334 82.1585 8.00063C81.6356 7.54727 81.3945 6.83461 80.7071 6.49052C79.8421 6.05836 78.7996 6.26547 78.2849 7.12652C77.1805 8.97095 79.0342 10.318 80.2201 11.4351C79.189 10.7909 78.1155 10.2022 77.0144 9.69339C76.3954 9.408 75.7666 9.1324 75.1281 8.8943C74.1817 8.54205 73.4161 8.65474 72.6391 9.31015C72.2921 9.60369 72.1195 10.2448 72.2791 10.6719C72.5886 11.4905 73.0773 11.9879 73.9341 12.2244C74.5368 12.3907 75.1541 12.5032 75.7568 12.6777C76.7668 12.968 77.7474 13.3219 78.6987 13.7638C78.6302 13.8062 78.5651 13.8519 78.5048 13.9041C77.7946 13.6741 77.0714 13.4752 76.3449 13.3056C75.14 13.0227 73.9136 12.8316 72.6819 12.7121L72.2727 12.674C70.796 12.5321 69.0203 12.2703 68.114 13.6856C67.8159 14.152 67.7833 14.9217 68.114 15.3832C68.746 16.2704 69.3748 16.4465 70.4205 16.4628C69.3911 16.5721 68.3632 16.7074 67.3403 16.8656C66.6352 16.9732 65.9301 17.0952 65.2281 17.2306L64.8773 17.2994C64.0222 17.4706 63.0676 17.5701 62.333 18.0659C60.7301 19.1487 61.4827 21.2573 63.2582 21.4824C64.1166 21.59 65.0696 21.2263 65.9117 21.0567C66.7294 20.892 67.5504 20.7469 68.3746 20.6197C68.8014 20.5528 69.2282 20.4941 69.6566 20.4403C68.7851 20.5659 67.9202 20.7436 67.078 20.9948L66.8441 21.0654C65.216 21.5622 63.0184 22.3534 62.5105 24.0949C62.2027 25.1533 63.0448 26.0763 64.0645 26.1383C65.0125 26.1953 65.8026 25.6295 66.6072 25.212C67.1937 24.9086 67.7898 24.682 68.4219 24.4879C69.0751 24.2873 69.7413 24.121 70.4124 23.9856C69.8452 24.2984 69.2929 24.6423 68.7627 25.0269L68.519 25.2071C67.1097 26.2584 64.9608 27.8859 65.4572 29.8565C65.6136 30.4778 66.3059 31.0714 66.9705 31.0078C68.7004 30.8464 69.6549 29.0019 70.9597 28.0137C71.3001 27.756 71.6732 27.5016 72.0641 27.2537C70.0866 29.6151 68.5131 32.345 67.3158 35.1647C64.6846 41.3679 63.8774 47.1125 63.858 53.7823L63.8576 53.9889C63.8544 57.6679 63.9375 61.4139 64.2958 65.0766C64.6281 68.4605 65.2373 71.8004 66.7701 74.8648C69.3389 80.0032 74.3446 84.0052 79.865 85.5283C86.0076 87.2244 92.8734 85.8985 97.9051 81.9846C99.1887 80.9866 97.4865 78.8194 96.1752 79.7407C90.9383 83.4181 84.1653 84.5825 78.1546 82.0939C73.3868 80.1206 69.5474 75.8757 67.9202 70.9882C66.8844 67.8789 66.5828 64.5636 66.2134 61.3232L66.1886 61.1073C65.7977 57.7185 65.5713 54.3069 65.5745 50.8953C65.5794 44.5597 66.4883 39.3444 69.2721 33.5975C70.5818 30.8904 72.2807 28.3873 74.3104 26.1904C74.9261 26.316 75.5809 26.1399 76.2032 26.073C76.5208 26.0388 76.8384 26.0062 77.1561 25.9768C76.8316 26.1869 76.5134 26.4053 76.2006 26.6287L75.7903 26.9249C74.5065 27.8454 72.8776 28.8939 73.2076 30.6735C73.2972 31.1546 73.7761 31.5965 74.2403 31.7058C75.923 32.107 77.0795 30.4696 78.2165 29.4977C79.2052 28.6529 80.2396 27.8963 81.2935 27.1379C81.533 26.9667 81.774 26.7955 82.0167 26.6259C81.7887 26.892 81.5669 27.1623 81.3505 27.4352L81.0306 27.8411C80.0627 29.0536 78.6673 30.6297 79.5294 32.2015C79.7737 32.6451 80.295 32.9403 80.7999 32.9305C82.5364 32.8946 83.227 30.9214 84.0415 29.6754C84.7419 28.6073 85.5026 27.6011 86.2894 26.5949C86.506 26.3193 86.7243 26.0437 86.9458 25.7681C90.593 25.9572 94.227 26.44 97.7976 27.2113C100.251 27.7413 102.663 28.4281 105.058 29.1797L105.257 29.2431C106.553 29.6608 107.888 30.1954 108.822 31.1122C108.955 31.7438 108.853 32.41 108.725 33.0408L108.626 33.5236C108.216 35.5426 107.937 37.5243 108.146 39.5972C108.363 41.7351 109.006 43.6578 109.791 45.6441C110.163 46.5802 110.547 46.4106 110.679 47.4152C110.78 48.1803 110.718 48.9702 110.649 49.7418L110.591 50.3959C110.446 52.1094 110.373 53.9775 111.495 55.3914C111.669 55.6083 112.042 55.5218 112.166 55.3049C112.215 55.2185 112.267 55.1353 112.324 55.0554C112.865 54.271 113.694 53.8242 114.642 53.6513C114.763 53.6301 114.715 53.4687 114.614 53.4556C113.813 53.361 113.054 53.5616 112.409 53.9758C112.715 52.9169 115.083 53.4319 115.861 53.6377L115.888 53.6448C116.859 53.9057 117.778 54.3297 118.587 54.9298C120.216 56.1366 121.158 58.0186 121.111 60.0456C121.063 62.0385 120.036 63.8796 118.27 64.8336C117.418 65.2935 116.449 65.5153 115.484 65.5055C114.478 65.4957 113.582 65.0538 112.573 65.1158C111.99 65.1516 111.544 65.7779 111.881 66.3242C112.106 66.6895 112.399 66.9765 112.738 67.1966C111.912 69.103 110.858 70.9214 109.643 72.5994C108.97 73.5306 108.208 74.3901 107.369 75.1745C106.714 75.7876 105.295 76.497 105.375 77.5195C105.403 77.8881 105.594 78.1131 105.929 78.2501C106.972 78.6771 108.241 77.2069 108.939 76.4981L108.995 76.4416C109.865 75.574 110.658 74.6151 111.349 73.5975C112.573 71.7906 113.334 69.7537 113.649 67.6141C115.321 68.118 117.537 67.6451 118.902 67.027C123.192 65.0864 124.595 59.302 121.987 55.4501C121.482 54.7048 120.85 54.0672 120.13 53.5518C120.288 53.4654 120.436 53.3545 120.568 53.2143C121.298 52.4381 121.814 51.4252 122.326 50.4916L122.388 50.3799C122.842 49.558 123.271 48.7232 123.673 47.8755L123.823 47.5571C124.72 45.6246 125.507 44.7798 126.147 42.7479C126.763 40.7876 127.248 38.7899 127.563 36.758L127.646 36.2201C127.828 35.0411 128 33.7803 127.867 32.5831C128.781 32.8816 129.7 33.0659 130.604 32.6174C131.2 32.3222 131.529 31.4612 131.325 30.8431C131.177 30.3881 130.93 30.031 130.615 29.7505C130.803 29.6559 130.979 29.5352 131.133 29.4015L131.268 29.2842V29.2842C131.816 28.8079 131.855 27.9028 131.523 27.3059C131.49 27.2488 131.457 27.1901 131.426 27.133C131.11 26.5672 130.457 26.197 129.812 26.2068C129.708 26.2084 129.604 26.2084 129.498 26.2068C129.799 26.1399 130.094 26.0372 130.374 25.8643C131.638 25.0864 131.479 22.9778 129.949 22.606C129.307 22.4511 128.599 22.5147 127.892 22.681C127.918 22.6663 127.944 22.6516 127.97 22.6353C128.504 22.3075 128.952 21.6666 128.902 21.0094C128.846 20.2821 128.612 19.7635 127.97 19.3819C127.413 19.0525 126.624 19.0215 126.071 19.3819C125.59 19.6966 125.119 20.044 124.666 20.4175C125.121 19.8581 125.515 19.2498 125.675 18.604C125.872 17.8 125.543 16.9243 124.82 16.5003C124.243 16.1627 123.634 16.2002 123.09 16.4612C123.119 16.0388 123.016 15.6083 122.736 15.2267C122.163 14.444 121.12 13.9938 120.213 14.5646C120.094 14.6396 119.935 14.7684 119.78 14.9266C120.081 13.9661 119.809 12.9582 118.781 12.5244C118.154 12.2586 117.305 12.3923 116.761 12.8506C117.107 10.9801 114.349 9.60532 113.277 11.5378C113.034 11.9756 112.793 12.4366 112.578 12.9081L112.499 13.0854L112.49 13.0822L112.545 12.9525V12.9525L112.601 12.8229C112.899 12.1298 113.279 11.409 113.383 10.6572C113.536 9.54498 113.041 8.48986 111.832 8.32679C111.208 8.24198 110.515 8.52574 110.096 9.02166C110.322 7.29613 108.397 6.04205 107.011 7.33037C106.354 7.94029 106.004 8.83233 105.587 9.61511C105.351 10.0571 105.11 10.4974 104.874 10.9409C104.813 10.8692 104.748 10.7974 104.68 10.7273C105.03 9.67708 105.302 8.60076 105.532 7.51791C105.75 6.49704 105.24 5.43703 104.188 5.14854C103.232 4.88419 102.034 5.4747 101.821 6.49394C101.671 7.21133 101.494 7.92088 101.298 8.62685C101.165 8.59424 101.033 8.5714 100.902 8.5551C100.891 8.42246 100.879 8.2891 100.865 8.15646L100.814 7.68472C100.7 6.60686 100.585 5.37643 100.023 4.46018C99.0633 2.89463 96.6036 3.54368 96.5776 5.39463C96.5629 6.3519 96.9522 7.30102 97.0874 8.24851C97.1461 8.6611 97.1803 9.07858 97.1998 9.49606C96.9376 8.10989 96.5776 6.74166 96.1606 5.39463C96.1117 5.23318 96.0596 5.07173 96.0091 4.91028ZM117.231 58.3643C115.072 58.03 113.1 59.2352 111.821 60.923C111.588 61.2313 111.741 61.6667 111.951 61.926C112.103 62.1168 112.306 62.1396 112.536 62.169C112.8 62.2032 113.134 61.9896 113.249 61.7596C114.072 60.1158 115.54 59.077 117.231 58.4377C117.261 58.4263 117.271 58.3709 117.231 58.3643ZM114.239 28.9116L114.173 28.8413C113.737 28.3878 114.427 27.695 114.864 28.1495C115.325 28.628 115.631 29.2092 115.926 29.7982C116.207 30.3599 115.364 30.856 115.082 30.2922L114.954 30.036C114.752 29.6375 114.537 29.2439 114.239 28.9116V28.9116ZM120.3 27.9807C119.681 27.8764 119.943 26.9333 120.56 27.0373C121.358 27.172 122.154 27.3252 122.952 27.46C123.571 27.5644 123.309 28.5075 122.692 28.4036C121.894 28.2687 121.098 28.1156 120.3 27.9807ZM83.4266 21.5422C84.0245 21.3424 84.2811 22.2872 83.6864 22.4858C82.8646 22.7603 82.0495 23.0416 81.2699 23.4227C80.7068 23.698 80.2108 22.8543 80.7766 22.5778C81.6323 22.1595 82.5245 21.8436 83.4266 21.5422ZM120.441 20.2741C121.025 20.0403 121.278 20.9863 120.7 21.2177L118.589 22.0629V22.0629C118.005 22.2968 117.752 21.3509 118.33 21.1195L120.441 20.2741V20.2741ZM76.0551 17.9767L76.1321 17.9281C76.6615 17.5846 77.152 18.4313 76.6255 18.773C76.3165 18.9734 75.9407 19.1094 75.6577 19.3482L75.5985 19.401C75.1414 19.8331 74.449 19.1427 74.9074 18.709C75.2427 18.3921 75.6673 18.2156 76.0551 17.9767V17.9767Z" fill="#120E07"/>
<path fill-rule="evenodd" clip-rule="evenodd" d="M81.3118 74.6085C80.0779 74.437 78.7511 73.7388 77.5726 74.3062C77.0217 74.5714 76.7602 75.4782 77.1327 75.9823C77.7015 76.7522 78.2889 76.8796 79.2123 76.9536C79.9046 77.0091 80.6006 77.0131 81.2911 76.9334L81.4667 76.9119C82.6988 76.753 83.9793 76.4095 84.9338 75.5823C85.1291 75.413 85.029 75.0474 84.7784 74.9945C83.6449 74.7563 82.4592 74.7682 81.3118 74.6085ZM82.7641 71.7701C82.7645 71.7601 82.7494 71.7601 82.7489 71.7701C82.719 72.4746 82.5208 73.1277 82.1545 73.7304C82.1495 73.7391 82.1627 73.7468 82.1678 73.7383C82.5342 73.135 82.7342 72.4752 82.7641 71.7701ZM78.8746 57.2301C77.642 57.9786 75.7638 59.7241 77.0899 61.5798C78.6507 63.2161 80.8981 61.34 82.0055 60.4915C83.0324 59.8339 84.1861 61.5252 83.2334 62.293C75.231 68.212 71.9834 57.4258 78.2512 56.35C78.9413 56.2315 79.1976 56.9985 78.8746 57.2301ZM72.5656 48.8532C72.2762 48.8532 71.9994 48.9514 71.7472 49.133C71.4991 49.3118 71.2745 49.5726 71.0874 49.898C70.7333 50.5138 70.512 51.3639 70.512 52.304C70.512 53.244 70.7333 54.0942 71.0874 54.71C71.2745 55.0353 71.4991 55.2962 71.7472 55.475C71.9994 55.6566 72.2762 55.7547 72.5656 55.7547C72.8551 55.7547 73.1319 55.6566 73.3841 55.475C73.6322 55.2962 73.8568 55.0353 74.0439 54.71C74.398 54.0942 74.6193 53.244 74.6193 52.304C74.6193 51.3639 74.398 50.5138 74.0439 49.898C73.8568 49.5726 73.6322 49.3118 73.3841 49.133C73.1319 48.9514 72.8551 48.8532 72.5656 48.8532ZM85.9701 49.8121L85.8611 49.7914C85.2254 49.6759 84.9041 49.7148 84.3505 50.1477C83.9344 50.473 84.0536 51.1138 84.3505 51.4559C84.8677 52.0521 85.373 51.9465 86.0815 51.9693L86.1312 51.9711C86.7216 51.9951 87.3125 52.0119 87.9035 52.0208C88.0651 52.0234 88.2268 52.0228 88.3884 52.0238C88.3713 53.5177 89.2335 54.6552 90.369 55.52C91.1029 56.0792 92.0312 55.4341 92.293 54.738C92.5096 54.162 92.5562 53.4538 92.4439 52.8232C92.4023 52.5907 92.3155 52.3384 92.1829 52.1232L92.1456 52.0655L92.1517 51.983C92.1531 51.9626 92.1517 51.9429 92.1523 51.9225C93.2064 51.8585 94.2544 51.7529 95.3021 51.6202L95.6513 51.575C96.5455 51.4567 97.8587 51.4187 98.5823 50.8377C98.6052 50.8191 98.597 50.7785 98.5729 50.7656C98.1751 50.5516 97.7715 50.5637 97.3266 50.5439L97.2627 50.5409C96.7789 50.5159 96.2962 50.4951 95.8126 50.4785L95.3287 50.4634C94.0911 50.428 92.8523 50.368 91.6158 50.3023C91.4008 50.2909 91.1858 50.2773 90.9705 50.2641C90.7454 50.1699 90.5061 50.1134 90.2697 50.103C90.0738 50.0942 89.8855 50.1213 89.7084 50.1775C89.2567 50.1427 88.8054 50.1047 88.3544 50.0639L87.9035 50.0221C87.2672 49.9616 86.5982 49.9352 85.9701 49.8121ZM78.1562 38.615C76.796 37.9472 75.1421 37.9309 73.7412 38.4836L73.6484 38.5212C72.2335 39.1077 70.5287 40.4626 70.8978 42.1503C71.2356 43.695 73.6607 43.4332 73.7837 41.9732C74.5667 40.8893 76.3226 40.6516 77.4264 41.3407C78.0958 41.7589 78.5554 42.4629 78.8694 43.1729C79.1371 43.7776 79.1876 44.5244 79.5988 45.0511C79.6121 45.0682 79.6389 45.0713 79.6583 45.0668C80.8846 44.7833 80.913 42.8367 80.7039 41.8924C80.4001 40.5196 79.4251 39.2383 78.1562 38.615Z" fill="#120E07"/>
<path d="M73.5101 12.3414C71.9033 11.2078 67.3633 8.65793 65.6736 10.8482C64.7967 11.9851 65.5833 13.5831 66.4573 14.4415C67.5806 15.5446 68.6093 15.3865 69.9837 15.8578" stroke="#120E07" stroke-width="2" stroke-linecap="round"/>
<path d="M79.3422 12.9694C78.6486 12.0261 77.2709 10.4728 77.4584 9.25756C77.733 7.47782 81.7204 12.0337 81.7836 12.0903" stroke="#120E07" stroke-width="2" stroke-linecap="round"/>
<path d="M79.0711 7.19226C80.245 7.74565 81.3803 8.59852 82.2584 9.48775C82.7788 10.0147 83.3291 10.5489 83.6524 11.1971C85.7051 15.3125 82.6071 10.5413 83.2757 14.3508" stroke="#120E07" stroke-width="2" stroke-linecap="round"/>
<path d="M79.4778 9.32723C82.1058 7.84015 85.7317 8.00164 88.1281 9.81563C89.0991 10.5506 90.1169 11.8252 89.8461 13.067C89.6701 13.8744 89.2464 13.6549 88.7008 13.974" stroke="#120E07" stroke-width="2" stroke-linecap="round"/>
<path d="M86.3955 8.19705C89.116 8.10709 92.5145 8.4224 94.7972 9.90646C95.5735 10.4112 96.063 10.9884 95.9651 11.881C95.8279 13.132 94.5667 13.1294 93.7197 13.723" stroke="#120E07" stroke-width="2" stroke-linecap="round"/>
<path d="M92.4986 6.81555C94.9934 7.73086 97.5334 9.123 99.5213 10.7925C99.9344 11.1395 101.324 12.2928 100.863 13.1787C100.501 13.8741 99.259 13.7655 98.7377 14.0997" stroke="#120E07" stroke-width="2" stroke-linecap="round"/>
<path d="M96.7031 6.43884C98.3248 7.22164 99.8794 8.15943 101.315 9.20877C102.028 9.73065 102.766 10.2422 103.364 10.8763C108.916 16.7598 101.352 8.97105 103.756 13.0951" stroke="#120E07" stroke-width="2" stroke-linecap="round"/>
<path d="M99.5514 5.43408C101.16 6.4316 102.612 7.61146 103.929 8.92964C104.538 9.53824 105.167 10.1441 105.64 10.8484C109.882 17.1646 104.069 8.8183 105.655 13.095" stroke="#120E07" stroke-width="2" stroke-linecap="round"/>
<path d="M102.129 7.31799C103.55 8.18147 106.227 9.6568 107.478 10.9182C111.454 14.9268 106.177 10.0777 108.232 13.4718" stroke="#120E07" stroke-width="2" stroke-linecap="round"/>
<path d="M103.485 8.32263C105.16 9.16088 106.659 10.1992 108.036 11.4275C108.621 11.9494 109.229 12.4681 109.679 13.095C113.022 17.7613 108.322 11.6639 109.453 14.9788" stroke="#120E07" stroke-width="2" stroke-linecap="round"/>
<path d="M105.519 8.19373C107.46 9.30635 109.837 10.7683 110.824 12.7568C111.427 13.9725 111.172 15.0057 109.995 15.757C108.266 16.8603 108.067 15.9884 106.197 16.6082" stroke="#120E07" stroke-width="2" stroke-linecap="round"/>
<path d="M103.892 13.5973C106.462 12.8137 109.954 13.7539 111.826 15.5161C112.758 16.3936 112.912 17.0935 113.409 18.1534C113.664 18.6986 114.076 19.9107 115.029 19.7372C117.037 19.3714 117.88 16.2687 117.199 14.7835C116.831 13.9817 116.237 13.5117 115.247 13.6532C113.608 13.8873 112.668 15.6349 112.708 17.0301C112.781 19.6215 116.069 22.0895 118.834 21.635C121.7 21.1639 120.466 17.0831 119.173 15.7603C118.781 15.359 117.875 14.8624 117.364 15.551C116.295 16.9941 117.696 19.2194 118.623 20.2884C120.984 23.0125 125.499 25.2453 129.345 25.1097C129.531 25.1031 130.031 24.9499 129.903 25.0748C129.398 25.566 128.878 25.9857 128.426 26.533C128.275 26.7161 127.237 28.117 127.243 28.054C127.294 27.5574 127.572 27.306 128.049 27.133C129.179 26.7232 129.869 25.9482 129.88 24.7678C129.898 22.8077 127.769 22.6455 126.557 23.9794C124.995 25.6996 126.671 27.3419 128.705 27.3284C131.343 27.3108 130.288 24.3861 129.345 23.1561C128.607 22.1925 127.53 21.5469 126.226 21.7885C125.068 22.0029 125.069 22.6227 124.372 23.2677" stroke="#120E07" stroke-width="2" stroke-linecap="round"/>
<path d="M127.356 28.1656C128.277 27.7866 128.37 26.8763 128.434 25.9957C128.577 24.0181 128.214 21.8536 127.13 20.1139C126.643 19.3319 125.428 18.1434 124.53 19.2627C123.696 20.3035 124.372 21.4038 124.372 22.5141" stroke="#120E07" stroke-width="2" stroke-linecap="round"/>
<path d="M128.984 20.0022C127.425 19.7021 124.941 18.8675 123.476 19.9883C122.534 20.7089 123.208 21.9413 124.176 22.2349C127.015 23.0951 124.895 17.2949 124.644 16.4857" stroke="#120E07" stroke-width="2" stroke-linecap="round"/>
<path d="M122.202 19.6256C121.844 18.6765 119.856 12.6937 117.689 13.995C116.542 14.6831 117.305 18.3293 118.435 17.6859C118.944 17.3957 118.768 16.2157 118.706 15.9556C118.325 14.3649 117.315 12.7295 115.797 11.846C115.079 11.428 114.448 11.2622 113.71 11.6646C113.016 12.0428 113.166 12.6368 112.979 13.2205" stroke="#120E07" stroke-width="2" stroke-linecap="round"/>
<path d="M114.471 14.3508C114.491 13.2124 114.797 11.4924 115.888 10.7785C116.564 10.3361 117.214 10.7765 117.485 11.3506C118.231 12.9301 117.2 12.0972 117.455 13.7228" stroke="#120E07" stroke-width="2" stroke-linecap="round"/>
<path d="M109.859 11.3368C111.41 10.8997 113.581 10.5403 114.908 11.6717C115.614 12.2741 115.819 13.0501 115.729 13.9044C115.69 14.2771 115.581 14.6566 115.375 14.9788C114.437 16.4472 114.746 15.1005 113.521 16.2347" stroke="#120E07" stroke-width="2" stroke-linecap="round"/>
<path d="M107.282 9.95402C108.718 9.39152 110.605 9.29929 112.075 9.81448C113.241 10.2237 114.268 11.0087 114.606 12.1728C115.274 14.4701 114.064 13.3263 114.064 15.6055" stroke="#120E07" stroke-width="2" stroke-linecap="round"/>
<path d="M106.876 11.0854C107.568 10.7936 108.993 10.3105 109.513 9.67605C110.609 8.33903 108.649 7.16631 107.607 6.75263C106.281 6.22665 105.086 6.07815 103.666 6.24329C103.173 6.30053 102.683 6.42541 102.234 6.62006C100.289 7.46236 102.344 6.85652 101.043 7.82013" stroke="#120E07" stroke-width="2" stroke-linecap="round"/>
<path d="M107.011 8.07143C105.2 7.27153 102.558 6.2181 100.516 6.676C98.2194 7.19106 100.265 9.35756 100.772 10.2064" stroke="#120E07" stroke-width="2" stroke-linecap="round"/>
<path d="M101.993 8.95139C101.274 8.40996 96.2882 3.50196 99.1294 3.46735C100.628 3.44909 102.265 4.78012 102.641 6.06983C102.745 6.427 102.741 6.82941 102.611 7.1792C102.134 8.46349 101.726 7.69868 100.908 8.70022" stroke="#120E07" stroke-width="2" stroke-linecap="round"/>
<path d="M93.8551 7.69464C93.6741 6.87886 93.2321 5.29096 93.3427 4.38747C93.5092 3.02725 94.7738 3.06928 95.7464 3.71069C96.5319 4.22871 97.0409 4.87845 97.1555 5.7829C97.3498 7.31747 96.1217 7.55568 95.347 8.57376" stroke="#120E07" stroke-width="2" stroke-linecap="round"/>
<path d="M89.5148 6.81556C89.4938 6.00848 89.5491 5.031 88.8517 4.41542C87.8461 3.52768 86.2491 3.85718 85.7021 5.04336C85.0574 6.44134 85.809 8.64197 87.6763 8.78312C88.2869 8.82927 89.1428 8.46362 89.4546 7.94586C90.1154 6.84819 89.0408 7.74755 89.1079 6.81556" stroke="#120E07" stroke-width="2" stroke-linecap="round"/>
<path d="M83.4113 11.4622C82.3773 11.675 80.6543 10.7369 79.7492 10.4575" stroke="#120E07" stroke-width="2" stroke-linecap="round"/>
<path d="M76.0871 6.43873C77.1367 6.00448 78.3602 5.82694 79.493 6.11778C80.3358 6.33418 81.1216 6.79122 81.6179 7.47135C82.6551 8.89272 81.5495 7.98448 82.1906 9.45287" stroke="#120E07" stroke-width="2" stroke-linecap="round"/>
<path d="M77.9874 8.95043C77.566 7.38985 78.2182 5.66947 79.9616 5.0781C83.673 3.81916 86.0857 7.02344 88.431 8.95043" stroke="#120E07" stroke-width="2" stroke-linecap="round"/>
<path d="M80.6986 15.4812C80.1132 13.7774 76.8067 10.8835 74.7911 12.4531C73.3366 13.5857 73.7818 15.925 74.0451 17.365C74.2717 18.6041 74.5691 19.9041 74.8664 21.1327" stroke="#120E07" stroke-width="2" stroke-linecap="round"/>
<path d="M77.4446 17.7417C77.1898 18.9374 76.9759 20.1473 76.6459 21.328C76.263 22.6972 75.5867 23.7508 75.0032 25.0259" stroke="#120E07" stroke-width="2" stroke-linecap="round"/>
<path d="M82.1904 19.5C82.9807 20.709 83.4498 22.3693 83.0343 23.77C82.6919 24.9244 81.8674 25.6988 80.7889 26.2818C79.117 27.1855 79.7369 26.4655 78.1214 27.0353" stroke="#120E07" stroke-width="2" stroke-linecap="round"/>
<path d="M83.9539 22.0117C84.7774 23.0125 83.6392 25.1568 83.0271 25.9678C82.3339 26.8862 81.6252 27.4384 80.5932 28.0051C79.4378 28.6396 78.6481 28.551 77.4436 28.7935" stroke="#120E07" stroke-width="2" stroke-linecap="round"/>
<path d="M79.4781 23.2677C79.4445 24.9141 79.4254 26.7418 80.5481 28.1517C81.4807 29.3229 82.8281 29.8796 84.3608 29.9797C87.3325 30.1739 85.8724 29.4614 88.701 29.1704" stroke="#120E07" stroke-width="2" stroke-linecap="round"/>
<path d="M85.7172 22.8907C85.334 23.9044 85.9186 25.5948 86.6214 26.3654C88.5123 28.4389 91.8493 27.8837 94.3976 27.9143" stroke="#120E07" stroke-width="2" stroke-linecap="round"/>
<path d="M94.3975 24.3979C93.9964 24.955 94.0914 25.8644 94.3673 26.4353C95.1783 28.113 96.9153 28.6632 98.4664 29.5471" stroke="#120E07" stroke-width="2" stroke-linecap="round"/>
<path d="M92.6343 25.1514C92.4941 26.1678 92.429 27.2282 92.0013 28.1934C90.9444 30.579 91.7879 28.0065 90.4642 30.0493" stroke="#120E07" stroke-width="2" stroke-linecap="round"/>
<path d="M81.7836 24.7748C80.3222 24.8997 78.025 25.0205 76.5391 25.4027C71.3775 26.7304 77.9659 25.1976 74.4595 26.6586" stroke="#120E07" stroke-width="2" stroke-linecap="round"/>
<path d="M82.7333 21.8861C80.8297 22.3753 78.9334 22.8823 77.0367 23.3932" stroke="#120E07" stroke-width="2" stroke-linecap="round"/>
<path d="M80.8341 20.1298C78.8329 20.9369 76.9368 21.8415 75.0019 22.7671" stroke="#120E07" stroke-width="2" stroke-linecap="round"/>
<path d="M72.0182 20.8813C71.1794 22.0562 70.347 23.1383 70.2022 24.5862C70.0976 25.6326 70.5262 26.3271 70.7975 27.2864" stroke="#120E07" stroke-width="2" stroke-linecap="round"/>
<path d="M70.662 23.0164C70.1341 23.7321 69.6368 24.4734 69.2454 25.263C69.0317 25.694 68.8061 26.1273 68.6878 26.5887C67.7038 30.4268 69.1618 25.4001 69.0344 28.2911" stroke="#120E07" stroke-width="2" stroke-linecap="round"/>
<path d="M66.7285 25.0259C65.7709 25.9835 65.3153 26.6916 65.3948 28.0609C65.4719 29.3893 66.1191 30.2464 66.5929 31.4309" stroke="#120E07" stroke-width="2" stroke-linecap="round"/>
<path d="M67.4067 26.4073C65.8797 28.6697 68.6524 30.4855 70.3906 31.8077" stroke="#120E07" stroke-width="2" stroke-linecap="round"/>
<path d="M68.3561 29.547C67.5569 30.6159 65.8371 31.1608 64.694 31.8076" stroke="#120E07" stroke-width="2" stroke-linecap="round"/>
<path d="M67.5421 21.2552C65.585 22.4611 63.721 23.7205 61.8456 25.0229" stroke="#120E07" stroke-width="2" stroke-linecap="round"/>
<path d="M63.3378 22.7655C62.5368 24.2395 61.9295 25.5112 62.1171 27.1611" stroke="#120E07" stroke-width="2" stroke-linecap="round"/>
<path d="M61.3033 24.0212C61.3301 24.7486 61.3227 25.5733 61.4841 26.2958C61.9376 28.3253 61.5221 25.9647 62.1171 27.6633" stroke="#120E07" stroke-width="2" stroke-linecap="round"/>
<path d="M61.8458 23.77C62.1469 24.8247 62.5191 25.5023 63.0665 26.4074" stroke="#120E07" stroke-width="2" stroke-linecap="round"/>
<path d="M67.9492 21.6349C67.208 22.0561 66.4835 22.5034 65.7942 22.9954C65.4282 23.2567 65.0583 23.5161 64.7242 23.8118C61.1755 26.9523 65.923 22.7966 63.8803 25.0258" stroke="#120E07" stroke-width="2" stroke-linecap="round"/>
<path d="M70.2549 18.7463C69.9106 18.9492 69.3539 19.1012 69.0116 19.2417C68.0482 19.6373 67.2316 20.1574 66.3216 20.6302" stroke="#120E07" stroke-width="2" stroke-linecap="round"/>
<path d="M72.8319 15.9864C73.0063 16.3095 72.075 16.1763 71.6865 16.2097C70.4829 16.313 69.8325 16.0323 68.7629 15.7352" stroke="#120E07" stroke-width="2" stroke-linecap="round"/>
<path d="M74.595 15.3555C75.1365 14.16 74.0069 12.7531 72.6284 12.7531C71.6924 12.7531 70.9627 13.1642 70.3377 13.7647C70.0951 13.9979 69.8972 14.2772 69.7575 14.5741C69.164 15.8351 69.9216 14.7597 69.7123 15.8579" stroke="#120E07" stroke-width="2" stroke-linecap="round"/>
<path d="M74.0526 10.8344C72.0061 10.8596 69.962 10.7604 68.2204 11.9507C67.8316 12.2164 67.4906 12.5531 67.2258 12.9275C66.1621 14.4315 67.3193 13.3945 66.7285 14.8532" stroke="#120E07" stroke-width="2" stroke-linecap="round"/>
<path d="M69.5769 11.839C69.824 11.0384 72.2617 11.0454 72.817 11.0505C75.1413 11.0721 77.0958 11.7117 79.2068 12.4669" stroke="#120E07" stroke-width="2" stroke-linecap="round"/>
<path d="M70.7976 13.5973C69.8009 13.6812 72.7747 13.4138 72.0108 12.9135C71.4035 12.5158 69.1026 12.3466 69.8407 12.4321C70.2367 12.4779 70.4596 12.4949 70.9107 12.5228C71.4397 12.5554 72.7816 12.8972 72.5006 12.4809C72.2746 12.1462 70.8853 12.0141 71.31 12.0483C71.568 12.0691 72.96 12.1527 72.0033 12.2297C70.6517 12.3386 73.429 12.9794 71.3402 12.5925" stroke="#120E07" stroke-width="2" stroke-linecap="round"/>
<path d="M69.7125 12.2159C69.7513 12.22 72.1179 12.4954 72.5457 12.4671C72.8846 12.4447 71.7998 12.3521 71.6114 12.0903" stroke="#120E07" stroke-width="2" stroke-linecap="round"/>
<path d="M70.5262 11.8391C71.5246 11.9506 72.5161 12.0795 73.5101 12.2159" stroke="#120E07" stroke-width="2" stroke-linecap="round"/>
<path d="M69.9836 11.0857C70.09 11.0592 71.045 10.8978 71.2043 10.6531C71.3149 10.4833 70.6712 10.1048 70.7823 10.067C71.8494 9.70475 73.1947 10.3388 74.3238 10.0252C75.6592 9.65422 76.3522 9.09346 77.3077 10.3322" stroke="#120E07" stroke-width="2" stroke-linecap="round"/>
<path d="M77.8505 9.45269C76.8935 9.42411 75.7406 9.57303 74.9419 10.1085C73.9571 10.7689 75.9068 11.399 76.1551 11.1691C76.3444 10.9938 75.6468 11.011 75.3865 10.9528C75.0703 10.882 74.3536 10.7217 73.9925 10.7156C73.4829 10.7068 74.1047 10.9696 74.1432 10.9877C74.3599 11.0895 75.4247 11.6254 75.6954 11.5179C76.0196 11.3893 74.3521 11.119 74.6857 11.2249C74.9208 11.2995 76.9054 11.9594 76.9463 11.8459C77.1884 11.1732 78.294 11.1303 78.9431 11.1063C82.998 10.9561 86.6757 12.9065 90.3286 14.2251" stroke="#120E07" stroke-width="2" stroke-linecap="round"/>
<path d="M88.8365 10.8344C92.8433 11.7014 96.6318 13.2067 100.501 14.4764" stroke="#120E07" stroke-width="2" stroke-linecap="round"/>
<path d="M94.3973 9.07605C96.6558 9.53921 98.6674 10.5461 100.719 11.5181C102.115 12.1791 103.433 12.9848 104.871 13.5624C105.298 13.7339 104.223 12.9426 103.914 12.6204C103.441 12.1271 102.178 10.821 102.611 9.99703C103.162 8.94598 105.798 10.6907 106.288 10.9878C109.088 12.6867 104.372 10.0704 105.044 9.69004C105.374 9.50377 106.583 10.6547 106.725 10.7785C106.863 10.8993 107.452 11.435 107.569 11.6855C107.689 11.9435 107.303 11.772 107.282 11.839" stroke="#120E07" stroke-width="2" stroke-linecap="round"/>
<path d="M104.299 9.70398C105.89 10.8467 107.315 12.1446 108.699 13.4996C109.42 14.2053 110.139 14.9149 110.809 15.6625C117.078 22.655 108.842 13.5774 112.979 18.7464" stroke="#120E07" stroke-width="2" stroke-linecap="round"/>
<path d="M77.4712 21.6208C77.2474 21.3657 76.9143 21.169 76.5693 21.0859C75.8128 20.9035 75.6048 21.2785 75.1158 21.6967C74.1742 22.5017 73.1056 21.806 72.2386 21.3102" stroke="#EDB98A" stroke-linecap="round"/>
<path d="M104.458 21.8775C104.385 21.5952 104.23 20.8586 104.039 20.5603C103.884 20.3193 103.75 20.3567 103.51 20.4043C103.277 20.4504 103.177 20.5495 102.934 20.4624C102.551 20.3252 102.811 20.2706 102.483 20.0487" stroke="#EDB98A" stroke-linecap="round"/>
<path d="M97.2281 12.6032C96.953 12.4108 96.8072 12.2635 96.4601 12.1932C95.8643 12.0725 95.2001 12.194 94.5929 12.1224C93.8783 12.0382 93.1616 11.8318 92.467 11.6888" stroke="#EDB98A" stroke-linecap="round"/>
<path d="M85.2337 24.1738C84.9794 25.0529 84.7181 25.927 84.8796 26.8504C84.9976 27.5245 85.2065 27.9404 85.6543 28.476C85.8289 28.6848 86.0329 28.8735 86.2499 29.0448C87.055 29.6801 86.5824 29.1691 87.3704 29.658" stroke="#120E07" stroke-linecap="round"/>
<path d="M78.1112 26.5692C77.4378 27.0643 77.0312 27.5322 76.568 28.2064C76.0174 29.008 75.4658 29.8043 74.5834 30.3372C73.8723 30.7666 73.0054 30.992 72.278 30.4645C72.0967 30.333 71.9475 30.1587 71.8386 29.9708C71.3544 29.1357 71.9111 29.7095 71.6636 28.8948" stroke="#120E07" stroke-linecap="round"/>
<path d="M76.5743 26.8813C75.9796 27.6359 75.3719 28.3189 74.4293 28.721C73.7631 29.0051 73.1212 29.0378 72.4134 29.0681" stroke="#120E07" stroke-linecap="round"/>
<path d="M80.3605 22.9243C80.4352 22.8107 80.5327 22.7148 80.6229 22.6119" stroke="#120E07" stroke-linecap="round"/>
<path d="M80.8101 22.0925C80.1668 22.0191 79.7125 21.871 79.094 22.1773C77.942 22.7479 78.6067 22.8815 77.5863 23.6892" stroke="#120E07" stroke-linecap="round"/>
<path d="M77.3617 20.9457C76.9561 20.6342 76.4661 20.4659 76.0247 20.8956C75.6206 21.2889 75.38 22.0299 75.1292 22.4884C72.4812 27.3298 76.4438 20.0971 74.2878 23.4448" stroke="#120E07" stroke-linecap="round"/>
</svg>
