<svg width="151" height="200" viewBox="0 0 151 200" fill="none" xmlns="http://www.w3.org/2000/svg">
<rect x="80.2472" y="125.707" width="37.3809" height="45.9883" fill="#FDEA6B"/>
<path fill-rule="evenodd" clip-rule="evenodd" d="M69.3441 80.7249C73.3736 77.6595 83.4898 76.281 87.7904 79.2326C92.0381 82.1965 92.5012 86.9897 94.4806 91.399C96.3482 90.5192 99.4323 91.7792 99.9737 93.5105C100.645 94.327 100.675 96.6211 101.139 97.7188C121.289 100.923 124.348 116.618 126.773 134.435C129.982 152.516 137.265 170.557 134.103 189.162C134.515 189.757 134.84 190.336 135.141 191.024C135.86 192.247 134.933 193.979 133.482 193.912C131.603 193.747 129.742 193.522 127.854 193.452C122.621 193.27 117.383 193.292 112.148 193.358L111.434 193.367C85.0497 193.696 58.6669 194.342 32.2815 194.514C31.3243 194.515 30.8557 193.657 30.9835 192.811C31.2409 191.108 31.4797 189.404 31.729 187.7C25.4882 189.346 18.8536 189.761 12.6304 187.873C12.1951 187.43 13.6448 187.67 13.8748 187.603C8.14751 183.693 9.85789 175.456 10.3652 169.524C13.5199 149.196 14.632 126.704 26.8207 109.358C32.0937 102.279 39.8243 96.6744 48.7074 95.4133L48.9539 95.3796C51.5513 95.0336 54.4461 94.9221 56.7171 93.5105C59.2713 91.4734 60.3597 87.7094 63.0468 87.6742C63.9341 87.6626 65.1411 88.784 66.44 89.5454C66.537 87.8704 67.4405 86.457 67.64 85.1583L67.6561 85.0472C67.8643 83.5332 67.5792 82.171 69.3441 80.7249ZM112.649 134.972C106.986 131.042 92.3578 133.017 92.023 133.237C91.2856 133.722 90.9681 133.764 90.5693 134.394C90.1756 134.446 89.7822 134.5 89.3891 134.556C88.6005 134.813 89.1849 135.782 90.0958 135.436C89.5479 137.797 91.1602 139.475 91.8021 141.809C92.0105 142.567 91.8096 143.929 91.8021 144.704C91.8643 145.691 92.9567 146.857 92.7747 147.847C92.1274 151.368 88.6149 154.802 90.0958 158.216C91.0768 160.145 94.0275 161.128 95.9892 161.784C100.054 163.342 107.135 161.725 109.497 158.216C110.757 156.345 112.216 151.624 112.967 150.16L113.133 147.837C113.544 142.063 113.909 135.847 112.649 134.972Z" fill="#EDB98A"/>
<path fill-rule="evenodd" clip-rule="evenodd" d="M62.8373 87.6847L64.4579 88.6782L73.8697 93.3263C75.6943 93.8367 76.6067 94.4484 76.6067 95.1614V102.422C76.6067 103.393 78.3189 105.595 81.7434 109.027L84.9072 105.876L84.8365 105.464C84.5354 103.686 84.3849 102.497 84.3849 101.896C84.3849 101.251 87.4801 98.7986 93.6706 94.5406L96.3788 91.9933L96.09 91.116C97.7599 91.1948 99.5708 92.2222 99.9737 93.5105C100.645 94.327 100.675 96.6211 101.139 97.7188C121.289 100.923 124.348 116.618 126.773 134.435C129.982 152.516 137.265 170.557 134.103 189.162C134.515 189.757 134.84 190.336 135.141 191.024C135.86 192.247 134.933 193.979 133.482 193.912C131.603 193.747 129.742 193.522 127.854 193.452C122.621 193.27 117.383 193.292 112.148 193.358L111.434 193.367C85.0497 193.696 58.6669 194.342 32.2815 194.514C31.3243 194.515 30.8557 193.657 30.9835 192.811C31.2409 191.108 31.4797 189.404 31.729 187.7C25.4882 189.346 18.8536 189.761 12.6304 187.873C12.1951 187.43 13.6448 187.67 13.8748 187.603C8.14751 183.693 9.85789 175.456 10.3652 169.524C13.5199 149.196 14.632 126.704 26.8207 109.358C32.0937 102.279 39.8243 96.6744 48.7074 95.4133L48.9539 95.3796L49.2021 95.3473C51.7345 95.0252 54.5182 94.8773 56.7171 93.5105C59.2038 91.5272 60.3012 87.9069 62.8373 87.6847ZM85.3894 130.298C84.4663 130.298 82.5757 131.73 79.7177 134.595L79.4659 134.711C76.0111 136.314 73.7223 137.705 72.5997 138.883L72.5596 138.926C71.4255 140.141 69.1797 143.373 65.8221 148.622L60.9598 151.495H59.1201L57.8103 160.987L60.9598 167.764L68.0938 165.363L79.7177 162.302L86.3878 155.542L90.1504 154.28C89.694 155.598 89.5285 156.909 90.0958 158.216C91.0768 160.145 94.0275 161.128 95.9892 161.784C100.054 163.342 107.135 161.725 109.497 158.216C110.757 156.345 112.216 151.624 112.967 150.16L113.182 147.143C113.571 141.574 113.859 135.812 112.649 134.972C106.986 131.042 92.3578 133.017 92.023 133.237C91.2856 133.722 90.9681 133.764 90.5693 134.394L90.3629 134.421L91.5238 132.848L91.1127 132.629C88.1797 131.075 86.272 130.298 85.3894 130.298ZM90.0958 135.436C89.5713 137.696 91.0266 139.331 91.7149 141.514L89.9563 138.151L89.9563 135.48C90.0018 135.469 90.0483 135.454 90.0958 135.436Z" fill="white"/>
<path fill-rule="evenodd" clip-rule="evenodd" d="M62.0601 87.3337C62.4511 86.9879 63.0296 87.4225 62.7812 87.8897C62.2229 88.9397 61.6503 89.9347 60.901 90.8629C60.4467 91.4257 59.9601 91.958 59.467 92.4844C60.7325 93.5782 61.8179 94.9362 62.8429 96.2088C64.1535 97.8365 65.3926 99.5332 66.8638 101.023C68.3148 102.491 69.9191 103.518 71.859 104.203L72.2508 104.339C74.1995 105.022 76.2823 105.945 77.3808 107.789C77.5974 108.152 77.1612 108.601 76.7946 108.375C74.8859 107.194 72.6432 106.956 70.5655 106.176C68.5585 105.423 66.809 104.263 65.2631 102.783C63.7199 101.305 62.4242 99.6234 61.0726 97.9776C59.736 96.3502 58.2969 94.9603 56.716 93.5834C54.2763 95.2231 51.4915 95.9365 48.6599 96.6373L48.3508 96.7137C45.5157 97.415 42.6958 98.2294 40.0361 99.4505C37.691 100.527 35.3845 101.813 33.4744 103.564C31.4466 105.423 29.8685 107.798 28.424 110.12C25.1929 115.315 22.9213 121.006 20.9215 126.767C18.8416 132.759 17.1018 138.871 15.6974 145.055C14.983 148.201 14.4029 151.369 13.9261 154.559C13.6966 156.096 13.4927 157.636 13.3136 159.179C13.1225 160.827 13.0786 162.522 12.5725 164.107C12.3556 164.786 11.8434 165.068 11.3306 165.044L11.2265 166.345C11.0884 168.08 10.9597 169.815 10.9162 171.561C10.8441 174.463 10.8768 177.357 11.0857 180.254L11.1153 180.648C11.2796 182.762 11.6465 185.137 13.2376 186.685C14.8853 188.288 17.4192 188.792 19.64 188.821C24.8124 188.889 29.7914 186.447 34.3686 184.305C39.0825 182.099 43.6676 179.65 48.1428 176.995C50.4219 175.642 52.6764 174.245 54.9021 172.807C55.9943 172.101 57.0788 171.383 58.1552 170.653C58.7718 170.236 59.356 169.777 59.9836 169.407C59.6761 169.121 59.5388 168.671 59.7964 168.278C57.982 166.705 57.2269 163.897 57.1386 161.625C57.0673 159.792 57.3374 157.963 57.5506 156.146C57.6582 155.23 57.791 154.316 57.929 153.404C57.9835 153.044 58.0251 152.658 58.0888 152.278C53.1896 154.968 48.1531 157.363 42.9833 159.491C40.3333 160.582 37.6494 161.563 34.9285 162.461L34.377 162.643C31.7988 163.486 29.159 164.282 26.4937 164.764C26.3512 164.79 26.2355 164.58 26.3876 164.513C28.985 163.368 31.6724 162.402 34.3088 161.348L34.742 161.171V161.171C34.6922 161.169 34.6407 161.162 34.5868 161.149C33.0406 160.776 31.5065 160.201 29.9901 159.718C28.5827 159.269 27.0014 158.987 25.6859 158.309C25.5847 158.257 25.6413 158.116 25.7399 158.11C27.2185 158.007 28.8236 158.438 30.2733 158.691L30.8179 158.786C31.7302 158.947 32.6628 159.12 33.5707 159.345C33.6035 159.041 33.7734 158.736 34.0151 158.557C36.6754 156.589 36.4052 152.614 36.6898 149.683L36.9007 147.506C37.2718 143.698 37.6644 139.889 38.2609 136.109C38.2927 135.907 38.6053 135.965 38.6066 136.156C38.6374 140.842 38.2833 145.506 38.1058 150.185L38.0784 150.952C37.9802 153.839 37.9033 156.837 36.0833 159.058C36.3378 158.91 36.6819 158.91 36.8881 159.155C37.1414 159.456 37.2877 159.794 37.2831 160.126C38.9277 159.437 40.5651 158.731 42.1945 158.009C47.4333 155.691 52.5621 153.096 57.5553 150.288C58.0927 149.986 58.6035 150.224 58.8692 150.622L58.9076 150.617C58.914 150.616 58.9205 150.615 58.9272 150.615L58.9652 150.613C58.9667 150.613 58.9681 150.613 58.9694 150.613C59.6723 150.228 60.6299 150.502 61.233 151.065C61.2508 151.082 61.266 151.1 61.2818 151.118C62.0455 150.776 62.7585 150.314 63.4055 149.728C64.7297 148.529 65.8513 147.046 66.8291 145.559C68.6297 142.821 70.1592 139.777 72.5916 137.523C74.5679 135.691 77.0181 134.551 79.5885 133.836C79.5778 133.761 79.6065 133.681 79.6584 133.627C79.7904 133.492 79.8846 133.445 80.0552 133.527C80.0688 133.534 80.0769 133.543 80.0825 133.553L80.3333 133.125C80.4702 132.893 80.6108 132.659 80.6595 132.597C80.9514 132.23 81.2517 131.866 81.5567 131.509C82.0736 130.905 82.6627 130.309 83.3449 129.89C84.8385 128.974 86.4087 129.493 87.9442 129.994C88.872 130.296 89.7968 130.609 90.723 130.916L90.8185 130.948C91.5091 131.169 92.3173 131.363 92.6261 132.094C92.7484 132.383 92.7673 132.684 92.7104 132.975C99.2698 131.308 106.555 132.074 112.956 134.03C113.202 134.105 113.447 134.307 113.499 134.572C114.232 138.33 114.559 142.183 114.227 146.005C113.941 149.304 113.209 152.536 111.831 155.557L111.752 155.727C110.457 158.526 108.403 161.976 105.267 162.853C103.373 163.383 101.279 163.071 99.3472 162.974C97.4702 162.879 95.5515 162.866 93.6922 162.571C92.0364 162.308 90.5855 161.567 89.5622 160.222C88.6794 159.061 88.2145 157.659 87.8337 156.263C87.6594 156.319 87.4862 156.378 87.3158 156.444C86.5964 156.725 85.9869 157.178 85.4358 157.711C84.2721 158.837 83.3694 160.205 82.1518 161.279C81.0496 162.252 79.7937 163.008 78.4465 163.589C75.655 164.794 72.6603 165.276 69.7075 165.915L69.5016 165.959C67.2786 166.447 65.0096 167.045 63.0476 168.201C63.0092 168.542 62.854 168.862 62.6052 169.072C62.9512 169.396 63.0978 169.911 62.7937 170.393C61.9443 171.74 60.4811 172.506 59.1675 173.367L59.0821 173.424C57.7899 174.279 56.4865 175.118 55.1724 175.94C52.5011 177.611 49.7739 179.19 47.0082 180.699C42.5599 183.127 38.0161 185.417 33.39 187.495C33.6676 188.859 33.5662 190.266 33.7749 191.64L33.8069 191.836C33.896 192.346 33.7756 192.773 33.424 193.106L33.3869 193.14L33.3875 193.135L33.3545 193.166L33.3435 193.175L33.3472 193.172C33.3067 193.209 33.2649 193.244 33.2222 193.273L33.168 193.308V193.308C32.8294 193.514 32.3935 193.511 32.0468 193.33L32.0072 193.308L31.9406 193.27C31.4826 193.007 31.1667 192.354 31.3567 191.836C31.8237 190.563 32.0002 189.204 32.4314 187.922L32.0893 188.075V188.075L31.6383 188.271C26.7612 190.378 21.3437 192.153 16.0297 190.716C13.6817 190.081 11.4872 188.739 10.3124 186.55C9.15635 184.396 8.99295 181.896 8.93157 179.5C8.85583 176.543 9.0145 173.541 9.40479 170.61C9.66679 168.642 9.98363 166.637 10.4724 164.69C10.221 164.468 10.0362 164.151 9.98738 163.757C9.75673 161.897 10.1604 159.963 10.4075 158.113C10.649 156.307 10.9157 154.504 11.2174 152.706C11.8264 149.076 12.534 145.454 13.3579 141.866C14.824 135.482 16.7602 129.21 19.0912 123.089L19.2953 122.556C21.4493 116.961 23.9433 111.485 27.416 106.57C29.0773 104.218 30.8334 102.086 33.1807 100.392C35.3798 98.8039 37.8603 97.6607 40.4202 96.7869C42.9828 95.9125 45.6168 95.3266 48.2973 94.9621C51.0195 94.5919 53.893 94.3649 56.4324 93.2494C56.1112 92.6741 56.3869 91.8973 56.9275 91.5405C58.7469 90.3396 60.4294 88.7773 62.0601 87.3337ZM120.303 139.555C120.38 139.439 120.561 139.513 120.527 139.649C119.642 143.271 118.812 146.9 118.269 150.591C117.29 157.253 117.47 164.002 117.55 170.713L117.554 171.06C117.595 174.675 117.653 178.29 117.772 181.903C117.833 183.729 117.952 185.573 117.887 187.4C117.852 188.392 117.587 189.329 117.494 190.309C117.411 191.165 117.485 192.034 117.526 192.892C117.553 193.462 116.711 193.438 116.653 192.892L116.58 192.186C116.485 191.292 116.367 190.404 116.074 189.549C115.722 188.521 115.553 187.511 115.43 186.431C115.243 184.776 115.16 183.104 115.088 181.438L115.038 180.285C114.736 173.321 114.747 166.324 115.236 159.368L115.271 158.871C115.755 152.295 116.595 145.189 120.303 139.555ZM101.441 98.1091C101.21 98.0142 101.291 97.6651 101.547 97.7259L102.012 97.8368C105.423 98.653 108.772 99.5372 111.955 101.056C115.141 102.576 117.838 104.844 119.981 107.634C124.146 113.056 125.877 119.646 127.244 126.23C128.763 133.546 130.146 140.889 131.678 148.202L131.962 149.565C133.38 156.376 134.718 163.192 135.704 170.084L135.775 170.584C136.769 177.672 137.368 185.005 136.282 192.111C136.068 193.517 133.726 193.167 133.818 191.778C134.082 187.762 134.271 183.768 134.088 179.743C133.905 175.718 133.527 171.711 132.964 167.721C132.49 164.363 131.783 161.047 131.158 157.715L131.06 157.189C130.536 154.356 129.996 151.526 129.458 148.695L128.653 144.457C127.446 138.111 126.216 131.76 124.826 125.454L124.744 125.082C123.384 119.016 121.378 112.661 117.298 107.843C113.158 102.954 107.23 100.491 101.441 98.1091ZM86.3959 162.46C86.4955 162.238 86.8438 162.262 86.9509 162.46C87.3705 163.233 87.4171 164.22 87.4964 165.093L87.5048 165.183C87.6056 166.249 87.6949 167.318 87.7496 168.386C87.8533 170.415 87.9029 172.441 87.8965 174.472C87.89 176.554 87.848 178.633 87.7357 180.711L87.7053 181.268C87.6027 183.074 87.4308 185.089 86.5717 186.668C86.2594 187.242 85.4101 187.073 85.2293 186.493C84.6367 184.592 84.941 182.338 85.093 180.391L85.211 178.872C85.3278 177.353 85.4393 175.833 85.5276 174.312C85.6488 172.231 85.7487 170.148 85.8448 168.066C85.876 167.39 85.9098 166.713 85.9455 166.037L86.0004 165.023C86.0472 164.175 86.0433 163.244 86.3959 162.46ZM19.7717 165.154L20.034 164.901C20.8393 164.113 21.8568 162.901 23.0472 162.976C23.5219 163.006 23.8244 163.4 23.726 163.866C23.5157 164.864 22.4973 165.381 21.7642 165.99C20.9611 166.657 20.2042 167.37 19.4487 168.089C18.7785 168.728 18.134 169.384 17.5049 170.061L17.2697 170.315C17.0442 170.561 15.4384 172.012 15.612 172.389L15.6215 172.406C15.6698 172.478 15.5893 172.577 15.5092 172.551C14.8158 172.333 14.859 171.739 15.1212 171.137C15.6249 169.981 16.5071 168.912 17.2774 167.925C18.0456 166.94 18.8771 166.023 19.7717 165.154V165.154ZM88.9086 136.166C88.3724 134.9 86.3971 134.926 85.2756 135.002C82.4517 135.193 79.3962 135.906 76.8835 137.225C74.2785 138.592 72.5238 140.783 70.9537 143.205L70.8802 143.319C69.3499 145.695 67.8761 148.508 65.4798 150.142C64.2592 150.975 62.834 151.735 61.3532 152.064C61.2515 152.243 61.0868 152.384 60.8708 152.436L60.7704 152.459C60.3486 152.552 59.6934 152.655 59.1275 152.593C59.1312 152.87 59.1283 153.144 59.1353 153.406C59.1552 154.157 59.1637 154.911 59.1637 155.663C59.164 157.237 59.0793 158.815 59.1451 160.389C59.2034 161.782 59.4002 163.237 60.0695 164.482C60.5603 165.395 61.2082 165.999 61.9903 166.576C63.9142 165.405 66.0896 164.691 68.2975 164.154C70.9677 163.505 73.7018 163.072 76.3112 162.191C77.5672 161.767 78.7746 161.213 79.8686 160.459C81.0297 159.66 81.9166 158.577 82.8291 157.519L82.9717 157.354C83.9029 156.287 84.9191 155.266 86.2351 154.688C87.3685 154.19 88.8623 154.101 89.8533 153.33C90.3714 152.926 90.4148 152.341 90.4693 151.741C89.8346 151.832 89.1628 151.687 88.5302 151.613L88.2025 151.574C87.6044 151.503 87.02 151.425 86.4312 151.273C86.3218 151.245 86.3218 151.08 86.4312 151.052C87.1271 150.873 87.8167 150.796 88.5302 150.713L88.6978 150.692C89.3433 150.607 90.0218 150.479 90.6549 150.621C90.7685 150.19 90.9326 149.777 91.1627 149.364C91.4858 148.784 92.0971 148.127 92.1797 147.449C92.2043 147.247 92.1572 147.008 92.0617 146.829L92.0288 146.768C91.9886 146.696 91.9411 146.624 91.8715 146.579C91.8638 146.588 91.8475 146.598 91.8121 146.609C91.3248 146.762 90.8998 146.524 90.6742 146.157C89.7165 146.276 88.6713 146.236 87.7731 146.275L86.8651 146.319C85.8948 146.364 84.8804 146.383 83.9686 146.187C83.8413 146.16 83.8028 145.948 83.9303 145.894C85.0512 145.415 86.4109 145.262 87.6111 145.078C88.2813 144.975 88.9564 144.897 89.6286 144.807C90.0762 144.746 90.5513 144.647 91.015 144.623C92.1777 143.177 91.5512 140.895 89.9331 140.273C89.3436 140.532 88.8136 140.381 88.1696 140.326C87.5268 140.271 86.8824 140.233 86.2369 140.236C84.9436 140.242 83.5731 140.582 82.2924 140.435C82.0841 140.411 81.8905 140.134 82.0976 139.966C83.078 139.166 84.483 138.906 85.7275 138.735L85.9854 138.701C86.4026 138.646 86.91 138.566 87.4362 138.519C87.5552 138.287 87.7687 138.112 88.0895 138.068C88.1848 138.055 88.2806 138.048 88.3763 138.039L88.3748 138.03V138.03C89.1571 137.992 89.1231 136.672 88.9086 136.166ZM35.3561 160.86C35.3423 160.881 35.3272 160.902 35.3111 160.921L35.2863 160.95L35.4149 160.898L35.3561 160.86V160.86ZM102.559 133.337C99.2662 132.983 95.969 133.058 92.6668 133.153C92.4027 134.016 91.4833 134.751 90.5926 134.779C91.2902 135.84 91.3622 137.276 90.873 138.401C91.9117 138.814 92.8065 139.556 93.3498 140.612C94.1031 142.077 94.0045 143.708 93.26 145.061C93.8955 145.636 94.2704 146.569 94.2329 147.449C94.1909 148.43 93.6057 149.268 93.1194 150.08C92.594 150.958 92.5764 151.732 92.4149 152.715C92.1787 154.155 91.2068 155.028 89.9563 155.573L90.0227 155.835C90.3452 157.088 90.7463 158.411 91.6678 159.328C92.8532 160.508 94.6921 160.497 96.2583 160.571L96.3339 160.575C97.768 160.647 99.2015 160.731 100.635 160.812L101.71 160.872C103.361 160.963 104.946 160.974 106.294 159.883C108.494 158.104 110.002 155.159 110.956 152.552C112.96 147.079 112.984 141.074 112.064 135.375C108.98 134.382 105.78 133.682 102.559 133.337ZM75.1778 142.416L75.202 142.417C75.8799 142.495 76.3456 143.043 76.5115 143.694C76.7524 144.639 76.6342 145.494 77.2139 146.347C77.8102 147.225 78.1768 147.928 78.2635 149.012C78.299 149.458 78.2827 149.903 78.3821 150.34L78.4542 150.646C78.5308 150.972 78.5934 151.287 78.5553 151.637C78.5206 151.956 78.3648 152.205 78.0441 152.308C76.9989 152.642 76.1918 151.872 75.9218 150.899C75.6886 150.059 76 149.057 75.671 148.268C75.4886 147.83 75.1524 147.464 74.9624 147.024C74.7741 146.587 74.6796 146.131 74.6494 145.657C74.5921 144.759 75.3868 143.68 74.9434 142.867C74.849 142.694 74.9559 142.41 75.1778 142.416ZM61.2942 133.153C62.0019 133.009 62.8049 132.68 63.5029 132.954C63.8617 133.095 64.039 133.532 63.7358 133.835C63.2095 134.362 62.4446 134.392 61.7357 134.516L61.6734 134.527C60.8351 134.682 59.9955 134.829 59.1546 134.968C57.5727 135.23 55.987 135.462 54.3958 135.658C52.7615 135.86 51.1226 136.04 49.4815 136.176L48.8461 136.228C47.4598 136.338 46.0173 136.422 44.657 136.21C44.4594 136.179 44.4912 135.892 44.657 135.841C46.1472 135.391 47.7819 135.27 49.3225 135.079C50.9604 134.876 52.5955 134.662 54.2264 134.407C55.8547 134.153 57.4808 133.88 59.1009 133.579C59.8332 133.443 60.5643 133.301 61.2942 133.153ZM86.8331 131.706C86.212 131.487 85.5287 131.161 84.8556 131.27C83.695 131.458 82.6621 132.587 81.7434 133.331L82.2047 133.242C84.565 132.789 87.6906 132.3 89.6719 133.8C89.677 133.791 89.6809 133.782 89.6866 133.774C89.8466 133.531 90.0318 133.342 90.2341 133.134C90.2534 133.116 90.2721 133.097 90.2905 133.078L90.3996 132.962L90.15 132.876C89.6155 132.687 88.9822 132.443 88.8821 132.407L88.8751 132.405C88.1936 132.174 87.5113 131.946 86.8331 131.706ZM67.4404 82.2812C67.3433 81.0331 69.2876 81.0434 69.3839 82.2812C69.594 84.9834 68.9853 87.66 67.6752 90.0291C67.6655 90.0463 67.6549 90.0617 67.6448 90.078C68.4642 90.5039 69.293 90.9126 70.1402 91.2779C71.2239 91.7453 72.328 92.1709 73.4519 92.532C74.4685 92.8588 75.721 92.9878 76.5757 93.6678C78.378 95.1016 77.7009 98.0772 77.3542 100.006L77.3001 100.31C77.1275 101.303 77.0026 102.321 77.4215 103.274C77.8687 104.291 78.7732 105.046 79.5801 105.774L79.743 105.921C80.4579 106.572 81.2746 107.363 81.7989 108.244C82.2775 107.256 82.93 106.448 83.6198 105.539C84.112 104.889 83.7617 104.676 83.4081 104.041C83.0678 103.431 82.9016 102.781 83.008 102.085C83.2044 100.799 84.2329 99.8701 85.2568 99.1722C86.4658 98.3485 87.8153 97.7383 89.0652 96.972C91.6336 95.3976 94.1348 93.5976 96.3883 91.5984C96.4505 91.5431 96.5582 91.6155 96.5084 91.691C94.7283 94.396 92.641 96.7334 90.0758 98.7174C89.0356 99.5219 87.943 100.189 86.843 100.891L86.5267 101.093C86.0851 101.379 85.5342 101.761 85.3345 102.248C85.1335 102.737 85.562 103.107 85.7927 103.512C86.5251 104.8 86.1717 106.001 85.3034 107.093L85.263 107.143C84.4001 108.205 83.7462 109.193 83.4334 110.55C82.7614 113.466 83.6974 116.502 84.6773 119.239L84.716 119.347C85.246 120.822 85.8093 122.287 86.2698 123.786L86.3965 124.2C86.8137 125.579 87.1554 126.939 86.6874 128.357C86.5282 128.839 85.8699 128.953 85.5965 128.5C84.6319 126.899 84.3914 124.973 83.7868 123.214C83.1975 121.499 82.5209 119.815 81.9517 118.093C81.2188 115.876 80.7283 113.489 80.9945 111.164C80.9867 111.15 80.978 111.137 80.9715 111.123L80.7849 110.715C80.2762 109.611 79.7848 108.647 78.8596 107.767C77.8945 106.849 76.847 106.037 76.0877 104.925C74.4382 102.512 75.4583 99.8265 75.6576 97.1872L75.6804 96.8636C75.7165 96.3156 75.7364 95.5709 75.3781 95.1917C74.975 94.7647 74.0299 94.6558 73.4952 94.4668C72.1132 93.9782 70.7513 93.4089 69.4543 92.7252C68.2195 92.0746 67.0235 91.3557 65.9099 90.5136L65.3455 90.0894C64.455 89.4181 63.5315 88.685 62.9346 87.7712C62.8658 87.666 62.9828 87.4963 63.1075 87.5467C64.1039 87.9506 65.0143 88.5932 65.9465 89.1522C65.961 89.1181 65.9778 89.0837 65.9969 89.0491C67.1504 86.9637 67.6247 84.6532 67.4404 82.2812ZM99.2686 96.5694C99.6656 95.4818 101.475 95.5658 101.403 96.858C101.347 97.8508 100.926 98.7469 100.54 99.6482L100.499 99.7448C100.1 100.684 99.6403 101.566 99.0899 102.427C98.0382 104.072 96.8062 105.599 95.4904 107.04C94.2975 108.347 92.7317 109.146 90.9275 109.013C90.1673 108.957 89.3999 108.764 88.7337 108.384C87.9425 107.934 87.0833 106.58 86.0738 106.908C85.9762 106.94 85.8851 106.797 85.9695 106.729C87.1348 105.792 88.4575 107.245 89.5733 107.596C91.2544 108.123 92.9797 107.54 94.0617 106.182C95.1915 104.764 96.2313 103.177 97.1808 101.634C97.663 100.85 98.103 100.036 98.483 99.198C98.8664 98.3518 98.9536 97.4322 99.2686 96.5694ZM96.5587 89.8762C96.5097 89.726 96.6965 89.5832 96.8285 89.669C97.5943 90.167 98.2578 90.825 98.9641 91.4018C99.7478 92.0418 100.537 92.6686 101.339 93.2859C102.507 94.1859 101.152 95.8428 100.123 94.8596C98.7157 93.5147 97.1739 91.756 96.5587 89.8762ZM92.3546 84.6121C92.6657 83.4137 94.5056 83.9079 94.2374 85.0923L94.2287 85.1284C93.7208 87.0848 94.4441 89.0766 95.9881 90.3449L96.045 90.391C97.0218 91.172 95.6379 92.5373 94.6707 91.7638C92.5593 90.0756 91.6809 87.2078 92.3546 84.6121Z" fill="#120E07"/>
<path fill-rule="evenodd" clip-rule="evenodd" d="M52.7958 22.0535C53.6406 21.146 54.721 20.4699 55.9022 20.2538C54.8225 20.7937 53.7671 21.3565 52.7958 22.0535ZM51.1412 29.8787C50.9918 29.1871 50.8915 28.4888 50.8599 27.7906C51.0486 28.078 51.3502 28.2699 51.6888 28.3691C51.47 28.8595 51.284 29.3647 51.1412 29.8787ZM107.668 40.7224C106.693 36.6589 102.143 28.843 101.068 27.3387C99.9006 23.6138 106.269 20.6266 102.805 17.7138C101.237 16.3996 99.165 15.9345 97.2211 15.4684C83.7614 12.2323 69.3003 13.8644 56.8169 19.8153C54.9181 19.4152 52.9398 20.197 51.559 21.5702C45.0719 28.0979 53.9126 39.8758 55.8458 47.2349C59.1626 55.4405 52.3303 56.8208 53.063 63.7636C53.6323 67.3503 57.261 68.2983 60.3232 68.8404C60.814 68.9553 61.4701 68.9726 61.6284 69.492C62.1246 72.5238 63.8255 75.4131 66.1091 77.374C65.9094 77.9663 66.0618 78.6853 66.766 79.2055C73.1461 83.9522 81.1908 86.3277 89.1484 85.9007C98.6316 85.3918 103.536 79.9501 104.719 78.549C111.262 69.7024 110.48 58.0302 109.146 47.4873C108.216 40.1429 109.395 47.9207 107.668 40.7224Z" fill="#EDB98A"/>
<path fill-rule="evenodd" clip-rule="evenodd" d="M78.4265 6.91022C78.7246 5.97741 79.5683 5.41642 80.5343 5.5322C81.3895 5.63331 82.3049 6.48295 82.2007 7.42066C82.1811 7.60168 82.1551 7.77128 82.1241 7.9311L82.1282 7.93252V7.93252L82.1322 7.93273L82.1111 7.9947C82.0475 8.29313 81.9596 8.56058 81.8293 8.81335C81.6631 9.2977 81.5035 9.78367 81.3455 10.2713C81.5735 10.2615 81.8065 10.2745 82.0427 10.3186C82.287 9.69235 82.533 9.06776 82.7773 8.4399C83.0395 7.76965 83.2236 6.90859 83.7416 6.39C84.4046 5.7279 85.5546 5.59091 86.3625 6.06384C87.2161 6.56286 87.5207 7.45001 87.335 8.40076C87.2406 8.88573 86.917 9.22322 86.5165 9.43527L86.4733 9.45751L86.1654 10.1881C86.2599 10.1473 86.3576 10.1098 86.4635 10.0788C86.6297 10.0299 86.7926 9.99894 86.9522 9.98589C87.392 9.18843 87.8758 8.41381 88.3759 7.65386C88.9509 6.77976 90.0748 6.40794 91.018 6.96078C91.8617 7.4549 92.3146 8.75301 91.7102 9.60592C91.2509 10.2533 90.816 10.9138 90.3876 11.5808C90.4609 11.5938 90.5342 11.6102 90.6042 11.6314C90.6368 11.5873 90.671 11.5433 90.7068 11.4993C91.1743 10.9187 91.7184 10.4833 92.2771 10.0006C92.8 9.54721 93.0411 8.83455 93.7285 8.49046C94.5934 8.0583 95.6359 8.26541 96.1507 9.12646C97.2551 10.9709 95.4014 12.3179 94.2155 13.435C95.2466 12.7908 96.3201 12.2021 97.4212 11.6933C98.0402 11.4079 98.6689 11.1323 99.3075 10.8942C100.254 10.542 101.019 10.6547 101.796 11.3101C102.143 11.6036 102.316 12.2447 102.156 12.6718C101.847 13.4905 101.358 13.9878 100.501 14.2243C99.8988 14.3907 99.2814 14.5032 98.6787 14.6777C97.6688 14.968 96.6882 15.3218 95.7369 15.7638C95.8053 15.8062 95.8705 15.8518 95.9307 15.904C96.641 15.6741 97.3642 15.4751 98.0907 15.3055C99.2956 15.0227 100.522 14.8316 101.754 14.712L102.163 14.6739C103.64 14.532 105.415 14.2702 106.322 15.6855C106.62 16.1519 106.652 16.9216 106.322 17.3831C105.69 18.2703 105.061 18.4464 104.015 18.4627C105.045 18.572 106.072 18.7074 107.095 18.8655C107.8 18.9732 108.505 19.0952 109.207 19.2305L109.558 19.2993C110.413 19.4706 111.368 19.57 112.103 20.0658C113.705 21.1486 112.953 23.2573 111.177 23.4823C110.319 23.5899 109.366 23.2263 108.524 23.0567C107.706 22.892 106.885 22.7468 106.061 22.6196C105.634 22.5528 105.207 22.494 104.779 22.4402C105.65 22.5658 106.515 22.7436 107.358 22.9947L107.591 23.0654C109.22 23.5621 111.417 24.3533 111.925 26.0948C112.233 27.1532 111.391 28.0762 110.371 28.1382C109.423 28.1953 108.633 27.6294 107.828 27.2119C107.242 26.9086 106.646 26.6819 106.014 26.4878C105.361 26.2873 104.694 26.1209 104.023 25.9856C104.59 26.2984 105.143 26.6422 105.673 27.0268L105.917 27.2071C107.326 28.2583 109.475 29.8859 108.978 31.8564C108.822 32.4777 108.13 33.0713 107.465 33.0077C105.735 32.8463 104.781 31.0019 103.476 30.0136C103.135 29.7559 102.762 29.5015 102.371 29.2537C104.349 31.615 105.922 34.345 107.12 37.1646C109.751 43.3678 110.558 49.1124 110.578 55.7822L110.578 55.9888C110.581 59.6679 110.498 63.4138 110.14 67.0766C109.807 70.4604 109.198 73.8003 107.665 76.8647C105.097 82.0032 100.091 86.0051 94.5706 87.5283C88.428 89.2243 81.5621 87.8985 76.5304 83.9846C75.2468 82.9865 76.9491 80.8194 78.2603 81.7406C83.4973 85.418 90.2703 86.5824 96.281 84.0938C101.049 82.1206 104.888 77.8756 106.515 72.9882C107.551 69.8789 107.853 66.5635 108.222 63.3231L108.247 63.1072C108.638 59.7184 108.864 56.3068 108.861 52.8952C108.856 46.5596 107.947 41.3443 105.163 35.5974C103.854 32.8903 102.155 30.3872 100.125 28.1904C99.5095 28.316 98.8546 28.1398 98.2324 28.073C97.9148 28.0387 97.5971 28.0061 97.2795 27.9768C97.604 28.1868 97.9222 28.4052 98.235 28.6287L98.6453 28.9249C99.9291 29.8454 101.558 30.8938 101.228 32.6734C101.138 33.1545 100.659 33.5965 100.195 33.7057C98.5126 34.1069 97.356 32.4696 96.2191 31.4976C95.2303 30.6529 94.196 29.8962 93.1421 29.1379C92.9026 28.9666 92.6615 28.7954 92.4188 28.6258C92.6469 28.892 92.8687 29.1623 93.085 29.4351L93.4049 29.841C94.3729 31.0536 95.7683 32.6296 94.9062 34.2015C94.6618 34.6451 94.1406 34.9402 93.6356 34.9304C91.8992 34.8946 91.2085 32.9213 90.3941 31.6754C89.6937 30.6072 88.933 29.601 88.1462 28.5948C87.9295 28.3192 87.7113 28.0436 87.4897 27.768C83.8426 27.9572 80.2085 28.4399 76.6379 29.2113C74.1848 29.7413 71.7724 30.428 69.3779 31.1796L69.1789 31.243C67.883 31.6607 66.5478 32.1953 65.6135 33.1121C65.4801 33.7437 65.5825 34.4099 65.7101 35.0407L65.8095 35.5235C66.2192 37.5426 66.4984 39.5242 66.2895 41.5971C66.0728 43.7351 65.4294 45.6578 64.6443 47.6441C64.2729 48.5801 63.8885 48.4105 63.7565 49.4151C63.6554 50.1803 63.7179 50.9702 63.787 51.7418L63.8447 52.3959C63.9895 54.1094 64.0622 55.9775 62.9404 57.3913C62.7661 57.6082 62.3931 57.5218 62.2693 57.3049C62.2204 57.2184 62.1683 57.1353 62.1113 57.0554C61.5705 56.271 60.7414 55.8241 59.7934 55.6512C59.6728 55.63 59.7201 55.4686 59.8211 55.4556C60.6225 55.361 61.3816 55.5616 62.0266 55.9758C61.7207 54.9168 59.3526 55.4318 58.5741 55.6376L58.5473 55.6447C57.5764 55.9056 56.6577 56.3297 55.8481 56.9298C54.2192 58.1366 53.2777 60.0185 53.325 62.0456C53.3722 64.0384 54.4 65.8796 56.1658 66.8336C57.0177 67.2935 57.9869 67.5152 58.9512 67.5055C59.9579 67.4957 60.8538 67.0537 61.8621 67.1157C62.4452 67.1516 62.8916 67.7778 62.5544 68.3241C62.3296 68.6894 62.0364 68.9764 61.6976 69.1966C62.5234 71.103 63.5773 72.9213 64.7925 74.5994C65.4652 75.5306 66.2276 76.39 67.0665 77.1744C67.7213 77.7876 69.1401 78.497 69.0602 79.5195C69.0325 79.888 68.842 80.1131 68.5064 80.2501C67.4632 80.6771 66.1946 79.2068 65.4969 78.498L65.4408 78.4415C64.571 77.5739 63.7777 76.615 63.087 75.5974C61.8621 73.7905 61.1014 71.7537 60.787 69.6141C59.1141 70.118 56.8988 69.6451 55.5338 69.027C51.2432 67.0863 49.8407 61.3019 52.4486 57.45C52.9536 56.7047 53.5856 56.0671 54.3056 55.5518C54.1476 55.4653 53.9993 55.3544 53.8674 55.2142C53.1375 54.438 52.6215 53.4251 52.1094 52.4915L52.0479 52.3799C51.5933 51.558 51.1643 50.7232 50.7623 49.8755L50.6128 49.557C49.7153 47.6245 48.9285 46.7798 48.2884 44.7478C47.6726 42.7876 47.1872 40.7899 46.8729 38.7579L46.7893 38.2201C46.6075 37.041 46.4355 35.7802 46.5682 34.5831C45.6544 34.8815 44.7357 35.0658 43.8317 34.6173C43.2355 34.3222 42.9065 33.4611 43.1101 32.843C43.2583 32.388 43.5059 32.0309 43.8203 31.7504C43.6329 31.6558 43.457 31.5351 43.3023 31.4014L43.1671 31.2842V31.2842C42.6198 30.8078 42.5807 29.9027 42.913 29.3059C42.9455 29.2488 42.9781 29.1901 43.0091 29.133C43.3251 28.5671 43.9783 28.1969 44.6233 28.2067C44.7276 28.2083 44.8318 28.2083 44.9377 28.2067C44.6364 28.1398 44.3415 28.0371 44.0614 27.8642C42.7973 27.0863 42.957 24.9777 44.4865 24.6059C45.1283 24.451 45.8369 24.5146 46.5438 24.6809C46.5177 24.6663 46.4917 24.6516 46.4656 24.6353C45.9313 24.3075 45.4834 23.6666 45.5339 23.0094C45.5893 22.282 45.8238 21.7634 46.4656 21.3818C47.0227 21.0524 47.8111 21.0214 48.3649 21.3818C48.8455 21.6966 49.3162 22.0439 49.7691 22.4174C49.3146 21.858 48.9204 21.2498 48.7608 20.604C48.5637 19.8 48.8927 18.9242 49.6159 18.5002C50.1926 18.1627 50.8018 18.2002 51.3458 18.4611C51.3165 18.0387 51.4191 17.6082 51.6993 17.2266C52.2727 16.444 53.3152 15.9937 54.2225 16.5645C54.3414 16.6395 54.501 16.7683 54.6558 16.9265C54.3544 15.966 54.6265 14.9582 55.6543 14.5244C56.2814 14.2586 57.1301 14.3923 57.6742 14.8505C57.3288 12.98 60.0866 11.6053 61.1584 13.5377C61.4016 13.9755 61.6423 14.4365 61.8575 14.9081L61.937 15.0854L61.9452 15.0821L61.8904 14.9525V14.9525L61.8344 14.8228C61.5363 14.1297 61.1568 13.4089 61.0525 12.6571C60.8994 11.5449 61.3946 10.4898 62.6032 10.3267C63.2271 10.2419 63.921 10.5257 64.3397 11.0216C64.1132 9.29607 66.0386 8.04199 67.4248 9.33031C68.0813 9.94023 68.4315 10.8323 68.8485 11.615C69.0847 12.057 69.3258 12.4973 69.5619 12.9409C69.6222 12.8691 69.6874 12.7974 69.7558 12.7272C69.4056 11.677 69.1335 10.6007 68.9039 9.51785C68.6856 8.49698 69.1954 7.43697 70.2477 7.14848C71.2039 6.88413 72.4011 7.47464 72.6145 8.49388C72.7644 9.21126 72.9419 9.92082 73.1374 10.6268C73.271 10.5942 73.4029 10.5713 73.5332 10.555C73.5441 10.4224 73.5564 10.289 73.5702 10.1564L73.6214 9.68466C73.7353 8.6068 73.8502 7.37637 74.4128 6.46012C75.3723 4.89457 77.8319 5.54362 77.858 7.39457C77.8726 8.35184 77.4833 9.30096 77.3481 10.2484C77.2895 10.661 77.2553 11.0785 77.2357 11.496C77.498 10.1098 77.858 8.7416 78.275 7.39457C78.3239 7.23312 78.376 7.07167 78.4265 6.91022ZM57.205 60.3643C59.3633 60.03 61.3359 61.2351 62.6146 62.923C62.8476 63.2312 62.6944 63.6666 62.4843 63.9259C62.3328 64.1167 62.1292 64.1396 61.8995 64.1689C61.6357 64.2032 61.3017 63.9895 61.1861 63.7596C60.3635 62.1157 58.8958 61.0769 57.205 60.4377C57.1741 60.4262 57.1643 60.3708 57.205 60.3643ZM60.197 30.9115L60.2623 30.8412C60.699 30.3877 60.0089 29.695 59.5712 30.1495C59.1104 30.6279 58.8041 31.2091 58.5096 31.7982C58.229 32.3598 59.0718 32.8559 59.3536 32.2922L59.4819 32.0359C59.6833 31.6375 59.8981 31.2439 60.197 30.9115V30.9115ZM54.1357 29.9807C54.7547 29.8763 54.4922 28.9332 53.8759 29.0373C53.0774 29.172 52.282 29.3251 51.4833 29.46C50.8645 29.5643 51.1269 30.5074 51.7433 30.4035C52.5418 30.2687 53.3372 30.1155 54.1357 29.9807ZM91.009 23.5422C90.411 23.3424 90.1545 24.2871 90.7492 24.4857C91.571 24.7602 92.3861 25.0415 93.1657 25.4226C93.7288 25.6979 94.2248 24.8543 93.6589 24.5777C92.8032 24.1594 91.9111 23.8435 91.009 23.5422ZM53.9949 22.2741C53.411 22.0402 53.1574 22.9862 53.7351 23.2176L55.8462 24.0629V24.0629C56.4302 24.2967 56.6838 23.3509 56.106 23.1195L53.9949 22.2741V22.2741ZM98.3805 19.9767L98.3034 19.928C97.774 19.5846 97.2836 20.4313 97.81 20.7729C98.1191 20.9734 98.4949 21.1093 98.7779 21.3481L98.837 21.4009C99.2941 21.8331 99.9866 21.1426 99.5282 20.709C99.1928 20.392 98.7683 20.2156 98.3805 19.9767V19.9767Z" fill="#120E07"/>
<path fill-rule="evenodd" clip-rule="evenodd" d="M95.598 74.8517C94.3955 75.1997 93.1048 75.2308 91.8791 74.8715C90.7673 74.5455 89.6258 73.8282 88.8075 72.879C88.0807 72.0358 87.6099 71.0111 87.6284 69.9173C87.6305 69.7924 87.6752 69.6881 87.744 69.6072C87.818 69.5201 87.9214 69.4602 88.0322 69.4343C88.1462 69.4076 88.2666 69.417 88.3692 69.4636C88.462 69.5057 88.5416 69.5773 88.5913 69.6819C88.717 69.8469 88.8423 70.0095 88.968 70.1676C89.9791 71.4148 90.9583 72.3469 92.4786 72.6813C93.3035 72.8627 94.1274 72.7822 94.8833 72.5054C95.6925 72.2091 96.424 71.6881 96.9972 71.0214C97.2562 70.7201 97.562 70.5972 97.8611 70.5951C98.2 70.5927 98.5349 70.7501 98.7873 71.0015C99.0353 71.2487 99.2014 71.5845 99.2165 71.9359C99.2297 72.2442 99.129 72.5663 98.8611 72.8537C97.9788 73.8003 96.8353 74.4937 95.598 74.8517ZM95.5609 59.2301C96.7936 59.9787 98.6717 61.7241 97.3457 63.5798C95.7848 65.2161 93.5375 63.34 92.43 62.4915C91.4032 61.834 90.2494 63.5252 91.2021 64.293C99.2045 70.212 102.452 59.4259 96.1844 58.35C95.4943 58.2315 95.238 58.9986 95.5609 59.2301ZM84.0301 55.9364C83.6339 55.6833 83.1678 55.5964 82.6513 55.8312C82.2477 56.0145 81.5398 56.6259 81.0471 57.4295C80.7101 57.9792 80.4711 58.6242 80.5208 59.296C80.5324 59.452 80.4747 59.567 80.3837 59.6521C80.3118 59.7193 80.2079 59.7686 80.086 59.7841C79.9824 59.7972 79.8665 59.7854 79.7723 59.756C79.593 59.7001 79.4982 59.5839 79.4624 59.4891C79.1175 58.5738 79.2661 57.5525 79.6527 56.6311C80.1744 55.3876 81.1219 54.346 81.7427 54.0102C82.805 53.4353 84.0581 53.4089 85.1219 53.9945C86.0275 54.493 86.5937 55.2977 87.1569 56.118C87.2766 56.2923 87.3954 56.4654 87.5182 56.6355C87.7643 56.9762 87.7888 57.3142 87.6935 57.604C87.5879 57.925 87.3187 58.1959 86.982 58.3377C86.6709 58.4688 86.3098 58.4872 85.9902 58.3526C85.7203 58.2388 85.4725 58.0171 85.3158 57.6409C85.0518 57.0072 84.6119 56.3082 84.0301 55.9364V55.9364ZM104.151 57.3461C103.88 57.4874 103.668 57.5299 103.367 57.4399C103.2 57.3899 103.036 57.2942 102.907 57.1655C102.779 57.038 102.687 56.8794 102.652 56.7035C102.563 56.2693 102.326 55.8629 101.987 55.598C101.697 55.3715 101.332 55.2515 100.926 55.3192C100.489 55.3922 100.072 55.6725 99.7847 56.0031C99.6887 56.1136 99.6135 56.2393 99.5379 56.364C99.3964 56.5973 99.259 56.8142 99.0639 56.9856C98.9899 57.0507 98.8785 57.0959 98.7705 57.0959C98.7267 57.0959 98.6821 57.0888 98.6397 57.0756C98.2042 56.6389 98.1205 56.3076 98.1345 55.979C98.1492 55.6345 98.2852 55.2856 98.5049 54.9601C99.0204 54.1966 99.999 53.5706 100.659 53.4288C101.564 53.2346 102.462 53.4677 103.182 53.9724C103.923 54.4916 104.472 55.2978 104.643 56.2063C104.684 56.4251 104.667 56.6613 104.584 56.8661C104.502 57.0662 104.36 57.2376 104.151 57.3461ZM86.0247 47.7959C85.4819 48.3242 84.8395 48.4061 84.1897 48.4788C83.8286 48.5197 83.5403 48.5526 83.2566 48.6165C82.477 48.7923 81.7063 49.0572 81.0032 49.4385C80.2682 49.8372 79.4672 50.318 78.891 50.934C78.7539 51.0806 78.6248 51.2344 78.4954 51.3885C78.3775 51.5291 78.2639 51.6644 78.1441 51.7949C78.0066 51.9447 77.876 52.1018 77.7461 52.2585C77.6658 52.3906 77.6499 52.4232 77.6338 52.457C77.6094 52.5078 77.5811 52.5648 77.5488 52.6258C77.5045 52.7094 77.4526 52.801 77.3983 52.884C77.3079 53.0357 77.2594 53.0774 77.2175 53.0961C77.1479 53.1271 77.082 53.1423 77.018 53.1341C76.958 53.1263 76.9015 53.0975 76.8457 53.0504C76.567 52.8152 76.4848 52.4292 76.4933 52.0195C76.506 51.3977 76.7356 50.7092 76.9472 50.2861C77.4393 49.3027 78.1217 48.2805 78.9422 47.5466C79.8785 46.7089 80.9029 46.0747 82.0795 45.6377C82.8107 45.366 83.6573 45.1166 84.4539 45.1481C85.0273 45.1708 85.5747 45.3411 86.0267 45.7663C86.3043 46.0274 86.4375 46.3987 86.4375 46.7697C86.4375 47.1481 86.2991 47.5288 86.0247 47.7959ZM105.255 52.6337C105.221 52.6902 105.173 52.7291 105.12 52.7525C105.064 52.777 105.002 52.7841 104.942 52.774C104.883 52.764 104.826 52.7371 104.781 52.696C104.738 52.6566 104.706 52.6043 104.691 52.5402C104.331 50.9591 103.631 49.7827 102.138 49.0241C101.403 48.6509 100.558 48.4138 99.7586 48.2247C99.5262 48.1698 99.2806 48.1342 99.0333 48.0981C98.2583 47.9851 97.4777 47.8556 96.9725 47.2298C96.668 46.8528 96.5402 46.3706 96.6125 45.9297C96.6805 45.5145 96.9233 45.1339 97.3648 44.9057C98.4638 44.3381 99.8294 44.8951 100.939 45.3696C101.022 45.4048 101.102 45.4394 101.181 45.4727C102.267 45.9304 103.257 46.5345 104.07 47.3984C104.716 48.0838 105.314 49.0971 105.555 50.1394C105.755 51.0066 105.708 51.8919 105.255 52.6337Z" fill="#120E07"/>
<path d="M97.5198 14.9606C99.0604 13.7146 103.413 10.912 105.033 13.3195C105.874 14.569 105.12 16.3255 104.282 17.2689C103.205 18.4815 102.219 18.3076 100.901 18.8257" stroke="#120E07" stroke-width="2" stroke-linecap="round"/>
<path d="M91.9277 15.651C92.5927 14.6142 93.9137 12.9069 93.7339 11.5711C93.4706 9.61494 89.6475 14.6225 89.5869 14.6847" stroke="#120E07" stroke-width="2" stroke-linecap="round"/>
<path d="M92.1878 9.30109C91.0622 9.90934 89.9738 10.8468 89.1318 11.8241C88.6329 12.4033 88.1052 12.9906 87.7952 13.703C85.8271 18.2264 88.7975 12.9821 88.1565 17.1694" stroke="#120E07" stroke-width="2" stroke-linecap="round"/>
<path d="M91.7977 11.6477C89.2779 10.0132 85.8015 10.1907 83.5037 12.1845C82.5728 12.9923 81.5969 14.3934 81.8565 15.7582C82.0253 16.6456 82.4315 16.4044 82.9547 16.7552" stroke="#120E07" stroke-width="2" stroke-linecap="round"/>
<path d="M85.1654 10.4053C82.557 10.3064 79.2985 10.653 77.1099 12.2842C76.3655 12.8389 75.8962 13.4734 75.9901 14.4545C76.1216 15.8295 77.3309 15.8267 78.143 16.479" stroke="#120E07" stroke-width="2" stroke-linecap="round"/>
<path d="M79.3134 8.88702C76.9214 9.89308 74.4861 11.4232 72.58 13.2583C72.1839 13.6396 70.8519 14.9073 71.294 15.881C71.6411 16.6454 72.8316 16.526 73.3314 16.8933" stroke="#120E07" stroke-width="2" stroke-linecap="round"/>
<path d="M75.2819 8.4726C73.727 9.333 72.2365 10.3638 70.8604 11.5171C70.1761 12.0908 69.4691 12.653 68.8953 13.35C63.5717 19.8168 70.8242 11.2559 68.5196 15.7887" stroke="#120E07" stroke-width="2" stroke-linecap="round"/>
<path d="M72.5512 7.36823C71.0089 8.46464 69.6171 9.76147 68.3537 11.2103C67.7703 11.8793 67.1672 12.5452 66.7137 13.3193C62.6466 20.2617 68.2194 11.088 66.6992 15.7887" stroke="#120E07" stroke-width="2" stroke-linecap="round"/>
<path d="M70.0803 9.43903C68.7178 10.3881 66.1503 12.0097 64.9508 13.3962C61.1388 17.8022 66.1986 12.4723 64.2283 16.203" stroke="#120E07" stroke-width="2" stroke-linecap="round"/>
<path d="M68.7799 10.5433C67.1734 11.4647 65.7367 12.606 64.4162 13.956C63.8551 14.5296 63.2719 15.0998 62.8412 15.7888C59.6357 20.9178 64.1419 14.2158 63.0579 17.8594" stroke="#120E07" stroke-width="2" stroke-linecap="round"/>
<path d="M66.8292 10.4053C64.9681 11.6283 62.6888 13.2352 61.743 15.4208C61.1648 16.757 61.4092 17.8927 62.5377 18.7184C64.1952 19.9311 64.3866 18.9728 66.179 19.654" stroke="#120E07" stroke-width="2" stroke-linecap="round"/>
<path d="M68.3898 16.3409C65.9252 15.4795 62.577 16.5129 60.7822 18.4498C59.8885 19.4143 59.7413 20.1837 59.265 21.3487C59.0201 21.9478 58.6246 23.2801 57.7117 23.0895C55.7858 22.6873 54.9774 19.277 55.631 17.6446C55.9838 16.7634 56.5527 16.2467 57.5022 16.4022C59.0735 16.6596 59.9749 18.5805 59.9369 20.114C59.8663 22.9622 56.7141 25.6749 54.0633 25.1754C51.3153 24.6576 52.4981 20.1722 53.7382 18.7182C54.1143 18.2771 54.9829 17.7314 55.4721 18.4882C56.4974 20.0744 55.1538 22.5203 54.2656 23.6953C52.0021 26.6895 47.6725 29.1436 43.9848 28.9945C43.8064 28.9873 43.327 28.8189 43.4502 28.9562C43.9347 29.4961 44.4332 29.9575 44.8663 30.559C45.0111 30.7602 46.0067 32.3 46.0005 32.2308C45.9515 31.6849 45.6848 31.4086 45.2275 31.2185C44.1442 30.768 43.4822 29.9162 43.4719 28.6187C43.4547 26.4643 45.4964 26.2861 46.658 27.7522C48.156 29.643 46.5493 31.4481 44.5989 31.4332C42.0691 31.4139 43.0809 28.1993 43.9848 26.8472C44.6929 25.7881 45.725 25.0786 46.9759 25.3441C48.0855 25.5797 48.0853 26.261 48.7531 26.9699" stroke="#120E07" stroke-width="2" stroke-linecap="round"/>
<path d="M45.892 32.3536C45.009 31.937 44.9202 30.9365 44.8589 29.9686C44.7212 27.795 45.0694 25.4158 46.1088 23.5037C46.576 22.6442 47.7409 21.3378 48.6013 22.5681C49.4012 23.7121 48.753 24.9215 48.753 26.1418" stroke="#120E07" stroke-width="2" stroke-linecap="round"/>
<path d="M44.3314 23.381C45.8262 23.0511 48.2079 22.1339 49.6127 23.3657C50.516 24.1578 49.8696 25.5124 48.9408 25.8351C46.2192 26.7805 48.2514 20.4054 48.4928 19.5159" stroke="#120E07" stroke-width="2" stroke-linecap="round"/>
<path d="M50.8339 22.967C51.1776 21.9238 53.0832 15.3479 55.1614 16.7782C56.2604 17.5345 55.5289 21.5422 54.4462 20.835C53.9578 20.516 54.1263 19.219 54.1861 18.9331C54.5516 17.1848 55.5198 15.3872 56.9748 14.4162C57.6634 13.9566 58.2684 13.7744 58.9761 14.2168C59.6411 14.6325 59.4978 15.2854 59.6769 15.9269" stroke="#120E07" stroke-width="2" stroke-linecap="round"/>
<path d="M58.2462 17.1693C58.2268 15.9181 57.9341 14.0276 56.8879 13.2428C56.2398 12.7566 55.6162 13.2407 55.3563 13.8717C54.6411 15.6078 55.63 14.6923 55.3852 16.4791" stroke="#120E07" stroke-width="2" stroke-linecap="round"/>
<path d="M62.6678 13.8562C61.1806 13.3758 59.0997 12.9808 57.8272 14.2243C57.1497 14.8864 56.9534 15.7394 57.0397 16.6784C57.0774 17.088 57.1819 17.5051 57.3793 17.8594C58.2788 19.4732 57.9821 17.9931 59.1566 19.2398" stroke="#120E07" stroke-width="2" stroke-linecap="round"/>
<path d="M65.1387 12.3379C63.762 11.7196 61.9524 11.6182 60.5438 12.1845C59.425 12.6343 58.4406 13.4972 58.1163 14.7766C57.4763 17.3017 58.6365 16.0444 58.6365 18.5497" stroke="#120E07" stroke-width="2" stroke-linecap="round"/>
<path d="M65.5287 13.58C64.8644 13.2592 63.4987 12.7282 63 12.0309C61.9492 10.5613 63.8284 9.27229 64.8279 8.81759C66.0987 8.23947 67.2445 8.07625 68.6064 8.25777C69.0784 8.32067 69.5482 8.45793 69.9791 8.67189C71.8435 9.5977 69.8733 8.93179 71.1206 9.99093" stroke="#120E07" stroke-width="2" stroke-linecap="round"/>
<path d="M65.3988 10.2674C67.1355 9.38817 69.6689 8.2303 71.6265 8.73359C73.8285 9.29972 71.8671 11.681 71.3808 12.614" stroke="#120E07" stroke-width="2" stroke-linecap="round"/>
<path d="M70.2103 11.2336C70.8991 10.6385 75.6798 5.24388 72.9557 5.20583C71.5184 5.18576 69.9489 6.64875 69.589 8.06632C69.4894 8.4589 69.4933 8.9012 69.6179 9.28567C70.0753 10.6973 70.4666 9.85665 71.2507 10.9575" stroke="#120E07" stroke-width="2" stroke-linecap="round"/>
<path d="M78.013 9.85322C78.1865 8.95656 78.6103 7.21124 78.5043 6.21817C78.3446 4.72309 77.1321 4.7693 76.1996 5.47429C75.4465 6.04367 74.9584 6.75783 74.8486 7.75195C74.6622 9.43865 75.8398 9.70048 76.5825 10.8195" stroke="#120E07" stroke-width="2" stroke-linecap="round"/>
<path d="M82.1744 8.88693C82.1946 7.99983 82.1416 6.92545 82.8102 6.24883C83.7744 5.27308 85.3056 5.63525 85.8301 6.93903C86.4482 8.4756 85.7276 10.8944 83.9373 11.0495C83.3517 11.1003 82.5311 10.6984 82.2322 10.1293C81.5986 8.9228 82.6289 9.91131 82.5646 8.88693" stroke="#120E07" stroke-width="2" stroke-linecap="round"/>
<path d="M88.0264 13.9944C89.0177 14.2282 90.6698 13.1971 91.5376 12.8901" stroke="#120E07" stroke-width="2" stroke-linecap="round"/>
<path d="M95.0488 8.47303C94.0424 7.99573 92.8693 7.80058 91.7832 8.12026C90.9751 8.35811 90.2217 8.86046 89.7459 9.60802C88.7514 11.1703 89.8114 10.172 89.1968 11.786" stroke="#120E07" stroke-width="2" stroke-linecap="round"/>
<path d="M93.2282 11.2335C93.6322 9.51822 93.0069 7.62728 91.3354 6.97728C87.7769 5.59353 85.4636 9.11548 83.2148 11.2335" stroke="#120E07" stroke-width="2" stroke-linecap="round"/>
<path d="M90.6273 18.4115C91.1887 16.5388 94.3589 13.358 96.2915 15.0832C97.686 16.3281 97.2591 18.8993 97.0067 20.4821C96.7895 21.844 96.5044 23.2729 96.2192 24.6233" stroke="#120E07" stroke-width="2" stroke-linecap="round"/>
<path d="M93.7483 20.8964C93.9926 22.2107 94.1976 23.5406 94.5141 24.8382C94.8811 26.3432 95.5296 27.5013 96.0891 28.9027" stroke="#120E07" stroke-width="2" stroke-linecap="round"/>
<path d="M89.1967 22.8288C88.4389 24.1577 87.9891 25.9826 88.3875 27.5221C88.7159 28.791 89.5064 29.6421 90.5405 30.2829C92.1435 31.2763 91.5491 30.4848 93.098 31.1112" stroke="#120E07" stroke-width="2" stroke-linecap="round"/>
<path d="M87.5063 25.5897C86.7167 26.6897 87.808 29.0466 88.3949 29.938C89.0595 30.9475 89.739 31.5544 90.7285 32.1773C91.8363 32.8746 92.5934 32.7774 93.7484 33.0439" stroke="#120E07" stroke-width="2" stroke-linecap="round"/>
<path d="M91.7977 26.97C91.8299 28.7797 91.8482 30.7886 90.7718 32.3382C89.8776 33.6256 88.5858 34.2374 87.1161 34.3475C84.2668 34.5609 85.6668 33.7778 82.9547 33.4579" stroke="#120E07" stroke-width="2" stroke-linecap="round"/>
<path d="M85.8156 26.5558C86.183 27.67 85.6225 29.528 84.9487 30.3749C83.1356 32.654 79.9361 32.0438 77.4928 32.0774" stroke="#120E07" stroke-width="2" stroke-linecap="round"/>
<path d="M77.4929 28.2126C77.8774 28.8249 77.7863 29.8245 77.5218 30.452C76.7442 32.2961 75.0788 32.9008 73.5916 33.8723" stroke="#120E07" stroke-width="2" stroke-linecap="round"/>
<path d="M79.1833 29.0408C79.3177 30.158 79.3802 31.3235 79.7902 32.3844C80.8036 35.0065 79.9948 32.1789 81.2641 34.4243" stroke="#120E07" stroke-width="2" stroke-linecap="round"/>
<path d="M89.5869 28.6267C90.9881 28.764 93.1906 28.8968 94.6153 29.3169C99.5643 30.7762 93.2473 29.0914 96.6093 30.6973" stroke="#120E07" stroke-width="2" stroke-linecap="round"/>
<path d="M88.6766 25.4516C90.5018 25.9893 92.32 26.5465 94.1385 27.1081" stroke="#120E07" stroke-width="2" stroke-linecap="round"/>
<path d="M90.4971 23.5189C92.4159 24.406 94.2338 25.4003 96.089 26.4178" stroke="#120E07" stroke-width="2" stroke-linecap="round"/>
<path d="M98.9501 24.3473C99.7543 25.6386 100.552 26.828 100.691 28.4195C100.792 29.5696 100.381 30.3329 100.12 31.3873" stroke="#120E07" stroke-width="2" stroke-linecap="round"/>
<path d="M100.251 26.694C100.757 27.4808 101.234 28.2956 101.609 29.1634C101.814 29.6371 102.03 30.1134 102.143 30.6205C103.087 34.8392 101.689 29.3141 101.811 32.4917" stroke="#120E07" stroke-width="2" stroke-linecap="round"/>
<path d="M104.022 28.9029C104.94 29.9555 105.377 30.7337 105.301 32.2389C105.227 33.6989 104.606 34.641 104.152 35.9429" stroke="#120E07" stroke-width="2" stroke-linecap="round"/>
<path d="M103.372 30.4211C104.836 32.9077 102.177 34.9036 100.511 36.3568" stroke="#120E07" stroke-width="2" stroke-linecap="round"/>
<path d="M102.461 33.872C103.228 35.0469 104.876 35.6458 105.972 36.3567" stroke="#120E07" stroke-width="2" stroke-linecap="round"/>
<path d="M103.242 24.7613C105.118 26.0867 106.905 27.4709 108.703 28.9025" stroke="#120E07" stroke-width="2" stroke-linecap="round"/>
<path d="M107.273 26.418C108.041 28.0381 108.623 29.4358 108.443 31.2494" stroke="#120E07" stroke-width="2" stroke-linecap="round"/>
<path d="M109.224 27.7983C109.198 28.5978 109.205 29.5043 109.05 30.2984C108.615 32.5291 109.014 29.9345 108.443 31.8015" stroke="#120E07" stroke-width="2" stroke-linecap="round"/>
<path d="M108.703 27.5223C108.415 28.6816 108.058 29.4263 107.533 30.4211" stroke="#120E07" stroke-width="2" stroke-linecap="round"/>
<path d="M102.851 25.1757C103.562 25.6386 104.257 26.1304 104.918 26.6712C105.269 26.9583 105.623 27.2434 105.943 27.5684C109.346 31.0203 104.794 26.4526 106.753 28.9028" stroke="#120E07" stroke-width="2" stroke-linecap="round"/>
<path d="M100.641 22.0005C100.971 22.2235 101.505 22.3906 101.833 22.545C102.756 22.9799 103.539 23.5515 104.412 24.0711" stroke="#120E07" stroke-width="2" stroke-linecap="round"/>
<path d="M98.1698 18.9641C98.0025 19.3198 98.8955 19.1732 99.268 19.2099C100.422 19.3236 101.046 19.0147 102.071 18.6877" stroke="#120E07" stroke-width="2" stroke-linecap="round"/>
<path d="M96.4793 18.2735C95.9602 16.9594 97.0433 15.413 98.365 15.413C99.2624 15.413 99.962 15.8649 100.561 16.525C100.794 16.7812 100.984 17.0883 101.118 17.4145C101.687 18.8006 100.96 17.6186 101.161 18.8256" stroke="#120E07" stroke-width="2" stroke-linecap="round"/>
<path d="M96.9995 13.3041C98.9618 13.3319 100.922 13.2229 102.591 14.5312C102.964 14.8233 103.291 15.1933 103.545 15.6048C104.565 17.2579 103.455 16.1181 104.022 17.7214" stroke="#120E07" stroke-width="2" stroke-linecap="round"/>
<path d="M101.291 14.4084C101.054 13.5284 98.7167 13.5362 98.1843 13.5418C95.9557 13.5655 94.0818 14.2685 92.0577 15.0986" stroke="#120E07" stroke-width="2" stroke-linecap="round"/>
<path d="M100.12 16.3409C101.076 16.4332 98.2249 16.1393 98.9573 15.5894C99.5396 15.1522 101.746 14.9663 101.038 15.0602C100.658 15.1106 100.445 15.1293 100.012 15.1599C99.5049 15.1958 98.2183 15.5715 98.4877 15.1139C98.7044 14.746 100.036 14.6009 99.6292 14.6384C99.3819 14.6613 98.0472 14.7532 98.9646 14.8378C100.26 14.9575 97.5976 15.6618 99.6003 15.2366" stroke="#120E07" stroke-width="2" stroke-linecap="round"/>
<path d="M101.161 14.8227C101.124 14.8272 98.8548 15.1303 98.4445 15.0991C98.1196 15.0745 99.1597 14.9725 99.3404 14.6844" stroke="#120E07" stroke-width="2" stroke-linecap="round"/>
<path d="M100.381 14.4083C99.4235 14.5309 98.4728 14.6729 97.5198 14.8229" stroke="#120E07" stroke-width="2" stroke-linecap="round"/>
<path d="M100.901 13.5802C100.799 13.5512 99.8831 13.3738 99.7303 13.1048C99.6243 12.9181 100.241 12.5021 100.135 12.4606C99.1118 12.0624 97.8219 12.7593 96.7393 12.4146C95.4589 12.0068 94.7945 11.3905 93.8783 12.752" stroke="#120E07" stroke-width="2" stroke-linecap="round"/>
<path d="M93.3582 11.7857C94.2758 11.7542 95.3812 11.9179 96.147 12.5065C97.0912 13.2323 95.2219 13.9249 94.9838 13.6722C94.8022 13.4795 95.4712 13.4985 95.7207 13.4345C96.0238 13.3567 96.7111 13.1805 97.0573 13.1737C97.5459 13.1641 96.9497 13.4529 96.9128 13.4728C96.705 13.5847 95.6841 14.1737 95.4245 14.0557C95.1136 13.9142 96.7125 13.6171 96.3926 13.7336C96.1672 13.8156 94.2644 14.5409 94.2252 14.4161C93.993 13.6767 92.933 13.6296 92.3107 13.6032C88.4228 13.4381 84.8966 15.5819 81.3942 17.0312" stroke="#120E07" stroke-width="2" stroke-linecap="round"/>
<path d="M82.8245 13.3041C78.9828 14.2571 75.3504 15.9116 71.6407 17.3073" stroke="#120E07" stroke-width="2" stroke-linecap="round"/>
<path d="M77.4928 11.3714C75.3274 11.8805 73.3987 12.9872 71.4313 14.0555C70.0933 14.782 68.8293 15.6677 67.4505 16.3025C67.041 16.491 68.0715 15.6213 68.3681 15.2672C68.8221 14.725 70.0323 13.2894 69.6179 12.3837C69.0893 11.2284 66.5617 13.1462 66.0923 13.4727C63.4078 15.34 67.9288 12.4643 67.2843 12.0463C66.9687 11.8415 65.8088 13.1065 65.6732 13.2426C65.5411 13.3754 64.9763 13.9642 64.8641 14.2396C64.7486 14.5231 65.1188 14.3346 65.1386 14.4083" stroke="#120E07" stroke-width="2" stroke-linecap="round"/>
<path d="M67.9996 12.0617C66.4741 13.3178 65.1079 14.7442 63.7804 16.2336C63.089 17.0093 62.4 17.7893 61.7575 18.6109C55.7471 26.2967 63.6438 16.3192 59.6768 22.0006" stroke="#120E07" stroke-width="2" stroke-linecap="round"/>
<path d="M93.7212 25.16C93.9357 24.8797 94.2551 24.6635 94.586 24.5721C95.3112 24.3717 95.5107 24.7839 95.9796 25.2435C96.8823 26.1284 97.9069 25.3637 98.7383 24.8187" stroke="#EDB98A" stroke-linecap="round"/>
<path d="M67.8464 25.4421C67.9166 25.1319 68.0652 24.3222 68.2485 23.9944C68.3966 23.7295 68.5258 23.7706 68.7557 23.8229C68.9787 23.8736 69.0749 23.9825 69.308 23.8867C69.6749 23.7359 69.4261 23.6759 69.7401 23.4321" stroke="#EDB98A" stroke-linecap="round"/>
<path d="M74.7787 15.2483C75.0425 15.0368 75.1823 14.8749 75.5151 14.7976C76.0863 14.665 76.7232 14.7985 77.3054 14.7199C77.9905 14.6273 78.6777 14.4004 79.3437 14.2433" stroke="#EDB98A" stroke-linecap="round"/>
<path d="M86.2791 27.966C86.523 28.9323 86.7735 29.8929 86.6186 30.9079C86.5055 31.6489 86.3051 32.106 85.8758 32.6947C85.7084 32.9242 85.5129 33.1316 85.3047 33.3199C84.5328 34.0181 84.9859 33.4565 84.2305 33.9939" stroke="#120E07" stroke-linecap="round"/>
<path d="M93.1082 30.5985C93.7538 31.1427 94.1436 31.6569 94.5878 32.398C95.1157 33.279 95.6446 34.1544 96.4907 34.7401C97.1724 35.212 98.0036 35.4598 98.7011 34.88C98.8749 34.7354 99.018 34.5439 99.1224 34.3374C99.5866 33.4194 99.0529 34.0501 99.2901 33.1547" stroke="#120E07" stroke-linecap="round"/>
<path d="M94.5817 30.942C95.1519 31.7714 95.7346 32.5221 96.6383 32.964C97.277 33.2764 97.8926 33.3123 98.5712 33.3456" stroke="#120E07" stroke-linecap="round"/>
<path d="M90.9514 26.5931C90.8798 26.4681 90.7864 26.3625 90.6998 26.2493" stroke="#120E07" stroke-linecap="round"/>
<path d="M90.5203 25.677C91.137 25.5964 91.5726 25.4336 92.1656 25.7703C93.2702 26.3974 92.6329 26.5442 93.6112 27.432" stroke="#120E07" stroke-linecap="round"/>
<path d="M93.8269 24.418C94.2158 24.0757 94.6856 23.8907 95.1088 24.3629C95.4963 24.7953 95.727 25.6097 95.9674 26.1137C98.5063 31.4351 94.7069 23.4853 96.7741 27.1649" stroke="#120E07" stroke-linecap="round"/>
</svg>
