<svg width="151" height="207" viewBox="0 0 151 207" fill="none" xmlns="http://www.w3.org/2000/svg">
<rect x="80.2472" y="132.707" width="37.3809" height="45.9883" fill="#FDEA6B"/>
<path fill-rule="evenodd" clip-rule="evenodd" d="M69.3441 87.7249C73.3736 84.6595 83.4898 83.281 87.7904 86.2326C92.0381 89.1965 92.5012 93.9897 94.4806 98.399C96.3482 97.5192 99.4323 98.7792 99.9737 100.51C100.645 101.327 100.675 103.621 101.139 104.719C121.289 107.923 124.348 123.618 126.773 141.435C129.982 159.516 137.265 177.557 134.103 196.162C134.515 196.757 134.84 197.336 135.141 198.024C135.86 199.247 134.933 200.979 133.482 200.912C131.603 200.747 129.742 200.522 127.854 200.452C122.621 200.27 117.383 200.292 112.148 200.358L111.434 200.367C85.0497 200.696 58.6669 201.342 32.2815 201.514C31.3243 201.515 30.8557 200.657 30.9835 199.811C31.2409 198.108 31.4797 196.404 31.729 194.7C25.4882 196.346 18.8536 196.761 12.6304 194.873C12.1951 194.43 13.6448 194.67 13.8748 194.603C8.14751 190.693 9.85789 182.456 10.3652 176.524C13.5199 156.196 14.632 133.704 26.8207 116.358C32.0937 109.279 39.8243 103.674 48.7074 102.413L48.9539 102.38C51.5513 102.034 54.4461 101.922 56.7171 100.51C59.2713 98.4734 60.3597 94.7094 63.0468 94.6742C63.9341 94.6626 65.1411 95.784 66.44 96.5454C66.537 94.8704 67.4405 93.457 67.64 92.1583L67.6561 92.0472C67.8643 90.5332 67.5792 89.171 69.3441 87.7249ZM112.649 141.972C106.986 138.042 92.3578 140.017 92.023 140.237C91.2856 140.722 90.9681 140.764 90.5693 141.394C90.1756 141.446 89.7822 141.5 89.3891 141.556C88.6005 141.813 89.1849 142.782 90.0958 142.436C89.5479 144.797 91.1602 146.475 91.8021 148.809C92.0105 149.567 91.8096 150.929 91.8021 151.704C91.8643 152.691 92.9567 153.857 92.7747 154.847C92.1274 158.368 88.6149 161.802 90.0958 165.216C91.0768 167.145 94.0275 168.128 95.9892 168.784C100.054 170.342 107.135 168.725 109.497 165.216C110.757 163.345 112.216 158.624 112.967 157.16L113.133 154.837C113.544 149.063 113.909 142.847 112.649 141.972Z" fill="#EDB98A"/>
<path fill-rule="evenodd" clip-rule="evenodd" d="M62.8373 94.6847L64.4579 95.6782L73.8697 100.326C75.6943 100.837 76.6067 101.448 76.6067 102.161V109.422C76.6067 110.393 78.3189 112.595 81.7434 116.027L84.9072 112.876L84.8365 112.464C84.5354 110.686 84.3849 109.497 84.3849 108.896C84.3849 108.251 87.4801 105.799 93.6706 101.541L96.3788 98.9933L96.09 98.116C97.7599 98.1948 99.5708 99.2222 99.9737 100.51C100.645 101.327 100.675 103.621 101.139 104.719C121.289 107.923 124.348 123.618 126.773 141.435C129.982 159.516 137.265 177.557 134.103 196.162C134.515 196.757 134.84 197.336 135.141 198.024C135.86 199.247 134.933 200.979 133.482 200.912C131.603 200.747 129.742 200.522 127.854 200.452C122.621 200.27 117.383 200.292 112.148 200.358L111.434 200.367C85.0497 200.696 58.6669 201.342 32.2815 201.514C31.3243 201.515 30.8557 200.657 30.9835 199.811C31.2409 198.108 31.4797 196.404 31.729 194.7C25.4882 196.346 18.8536 196.761 12.6304 194.873C12.1951 194.43 13.6448 194.67 13.8748 194.603C8.14751 190.693 9.85789 182.456 10.3652 176.524C13.5199 156.196 14.632 133.704 26.8207 116.358C32.0937 109.279 39.8243 103.674 48.7074 102.413L48.9539 102.38L49.2021 102.347C51.7345 102.025 54.5182 101.877 56.7171 100.51C59.2038 98.5272 60.3012 94.9069 62.8373 94.6847ZM85.3894 137.298C84.4663 137.298 82.5757 138.73 79.7177 141.595L79.4659 141.711C76.0111 143.314 73.7223 144.705 72.5997 145.883L72.5596 145.926C71.4255 147.141 69.1797 150.373 65.8221 155.622L60.9598 158.495H59.1201L57.8103 167.987L60.9598 174.764L68.0938 172.363L79.7177 169.302L86.3878 162.542L90.1504 161.28C89.694 162.598 89.5285 163.909 90.0958 165.216C91.0768 167.145 94.0275 168.128 95.9892 168.784C100.054 170.342 107.135 168.725 109.497 165.216C110.757 163.345 112.216 158.624 112.967 157.16L113.182 154.143C113.571 148.574 113.859 142.812 112.649 141.972C106.986 138.042 92.3578 140.017 92.023 140.237C91.2856 140.722 90.9681 140.764 90.5693 141.394L90.3629 141.421L91.5238 139.848L91.1127 139.629C88.1797 138.075 86.272 137.298 85.3894 137.298ZM90.0958 142.436C89.5713 144.696 91.0266 146.331 91.7149 148.514L89.9563 145.151L89.9563 142.48C90.0018 142.469 90.0483 142.454 90.0958 142.436Z" fill="white"/>
<path fill-rule="evenodd" clip-rule="evenodd" d="M62.0601 94.3337C62.4511 93.9879 63.0296 94.4225 62.7812 94.8897C62.2229 95.9397 61.6503 96.9347 60.901 97.8629C60.4467 98.4257 59.9601 98.958 59.467 99.4844C60.7325 100.578 61.8179 101.936 62.8429 103.209C64.1535 104.837 65.3926 106.533 66.8638 108.023C68.3148 109.491 69.9191 110.518 71.859 111.203L72.2508 111.339C74.1995 112.022 76.2823 112.945 77.3808 114.789C77.5974 115.152 77.1612 115.601 76.7946 115.375C74.8859 114.194 72.6432 113.956 70.5655 113.176C68.5585 112.423 66.809 111.263 65.2631 109.783C63.7199 108.305 62.4242 106.623 61.0726 104.978C59.736 103.35 58.2969 101.96 56.716 100.583C54.2763 102.223 51.4915 102.937 48.6599 103.637L48.3508 103.714C45.5157 104.415 42.6958 105.229 40.0361 106.451C37.691 107.527 35.3845 108.813 33.4744 110.564C31.4466 112.423 29.8685 114.798 28.424 117.12C25.1929 122.315 22.9213 128.006 20.9215 133.767C18.8416 139.759 17.1018 145.871 15.6974 152.055C14.983 155.201 14.4029 158.369 13.9261 161.559C13.6966 163.096 13.4927 164.636 13.3136 166.179C13.1225 167.827 13.0786 169.522 12.5725 171.107C12.3556 171.786 11.8434 172.068 11.3306 172.044L11.2265 173.345C11.0884 175.08 10.9597 176.815 10.9162 178.561C10.8441 181.463 10.8768 184.357 11.0857 187.254L11.1153 187.648C11.2796 189.762 11.6465 192.137 13.2376 193.685C14.8853 195.288 17.4192 195.792 19.64 195.821C24.8124 195.889 29.7914 193.447 34.3686 191.305C39.0825 189.099 43.6676 186.65 48.1428 183.995C50.4219 182.642 52.6764 181.245 54.9021 179.807C55.9943 179.101 57.0788 178.383 58.1552 177.653C58.7718 177.236 59.356 176.777 59.9836 176.407C59.6761 176.121 59.5388 175.671 59.7964 175.278C57.982 173.705 57.2269 170.897 57.1386 168.625C57.0673 166.792 57.3374 164.963 57.5506 163.146C57.6582 162.23 57.791 161.316 57.929 160.404C57.9835 160.044 58.0251 159.658 58.0888 159.278C53.1896 161.968 48.1531 164.363 42.9833 166.491C40.3333 167.582 37.6494 168.563 34.9285 169.461L34.377 169.643C31.7988 170.486 29.159 171.282 26.4937 171.764C26.3512 171.79 26.2355 171.58 26.3876 171.513C28.985 170.368 31.6724 169.402 34.3088 168.348L34.742 168.171V168.171C34.6922 168.169 34.6407 168.162 34.5868 168.149C33.0406 167.776 31.5065 167.201 29.9901 166.718C28.5827 166.269 27.0014 165.987 25.6859 165.309C25.5847 165.257 25.6413 165.116 25.7399 165.11C27.2185 165.007 28.8236 165.438 30.2733 165.691L30.8179 165.786C31.7302 165.947 32.6628 166.12 33.5707 166.345C33.6035 166.041 33.7734 165.736 34.0151 165.557C36.6754 163.589 36.4052 159.614 36.6898 156.683L36.9007 154.506C37.2718 150.698 37.6644 146.889 38.2609 143.109C38.2927 142.907 38.6053 142.965 38.6066 143.156C38.6374 147.842 38.2833 152.506 38.1058 157.185L38.0784 157.952C37.9802 160.839 37.9033 163.837 36.0833 166.058C36.3378 165.91 36.6819 165.91 36.8881 166.155C37.1414 166.456 37.2877 166.794 37.2831 167.126C38.9277 166.437 40.5651 165.731 42.1945 165.009C47.4333 162.691 52.5621 160.096 57.5553 157.288C58.0927 156.986 58.6035 157.224 58.8692 157.622L58.9076 157.617C58.914 157.616 58.9205 157.615 58.9272 157.615L58.9652 157.613C58.9667 157.613 58.9681 157.613 58.9694 157.613C59.6723 157.228 60.6299 157.502 61.233 158.065C61.2508 158.082 61.266 158.1 61.2818 158.118C62.0455 157.776 62.7585 157.314 63.4055 156.728C64.7297 155.529 65.8513 154.046 66.8291 152.559C68.6297 149.821 70.1592 146.777 72.5916 144.523C74.5679 142.691 77.0181 141.551 79.5885 140.836C79.5778 140.761 79.6065 140.681 79.6584 140.627C79.7904 140.492 79.8846 140.445 80.0552 140.527C80.0688 140.534 80.0769 140.543 80.0825 140.553L80.3333 140.125C80.4702 139.893 80.6108 139.659 80.6595 139.597C80.9514 139.23 81.2517 138.866 81.5567 138.509C82.0736 137.905 82.6627 137.309 83.3449 136.89C84.8385 135.974 86.4087 136.493 87.9442 136.994C88.872 137.296 89.7968 137.609 90.723 137.916L90.8185 137.948C91.5091 138.169 92.3173 138.363 92.6261 139.094C92.7484 139.383 92.7673 139.684 92.7104 139.975C99.2698 138.308 106.555 139.074 112.956 141.03C113.202 141.105 113.447 141.307 113.499 141.572C114.232 145.33 114.559 149.183 114.227 153.005C113.941 156.304 113.209 159.536 111.831 162.557L111.752 162.727C110.457 165.526 108.403 168.976 105.267 169.853C103.373 170.383 101.279 170.071 99.3472 169.974C97.4702 169.879 95.5515 169.866 93.6922 169.571C92.0364 169.308 90.5855 168.567 89.5622 167.222C88.6794 166.061 88.2145 164.659 87.8337 163.263C87.6594 163.319 87.4862 163.378 87.3158 163.444C86.5964 163.725 85.9869 164.178 85.4358 164.711C84.2721 165.837 83.3694 167.205 82.1518 168.279C81.0496 169.252 79.7937 170.008 78.4465 170.589C75.655 171.794 72.6603 172.276 69.7075 172.915L69.5016 172.959C67.2786 173.447 65.0096 174.045 63.0476 175.201C63.0092 175.542 62.854 175.862 62.6052 176.072C62.9512 176.396 63.0978 176.911 62.7937 177.393C61.9443 178.74 60.4811 179.506 59.1675 180.367L59.0821 180.424C57.7899 181.279 56.4865 182.118 55.1724 182.94C52.5011 184.611 49.7739 186.19 47.0082 187.699C42.5599 190.127 38.0161 192.417 33.39 194.495C33.6676 195.859 33.5662 197.266 33.7749 198.64L33.8069 198.836C33.896 199.346 33.7756 199.773 33.424 200.106L33.3869 200.14L33.3875 200.135L33.3545 200.166L33.3435 200.175L33.3472 200.172C33.3067 200.209 33.2649 200.244 33.2222 200.273L33.168 200.308V200.308C32.8294 200.514 32.3935 200.511 32.0468 200.33L32.0072 200.308L31.9406 200.27C31.4826 200.007 31.1667 199.354 31.3567 198.836C31.8237 197.563 32.0002 196.204 32.4314 194.922L32.0893 195.075V195.075L31.6383 195.271C26.7612 197.378 21.3437 199.153 16.0297 197.716C13.6817 197.081 11.4872 195.739 10.3124 193.55C9.15635 191.396 8.99295 188.896 8.93157 186.5C8.85583 183.543 9.0145 180.541 9.40479 177.61C9.66679 175.642 9.98363 173.637 10.4724 171.69C10.221 171.468 10.0362 171.151 9.98738 170.757C9.75673 168.897 10.1604 166.963 10.4075 165.113C10.649 163.307 10.9157 161.504 11.2174 159.706C11.8264 156.076 12.534 152.454 13.3579 148.866C14.824 142.482 16.7602 136.21 19.0912 130.089L19.2953 129.556C21.4493 123.961 23.9433 118.485 27.416 113.57C29.0773 111.218 30.8334 109.086 33.1807 107.392C35.3798 105.804 37.8603 104.661 40.4202 103.787C42.9828 102.913 45.6168 102.327 48.2973 101.962C51.0195 101.592 53.893 101.365 56.4324 100.249C56.1112 99.6741 56.3869 98.8973 56.9275 98.5405C58.7469 97.3396 60.4294 95.7773 62.0601 94.3337ZM120.303 146.555C120.38 146.439 120.561 146.513 120.527 146.649C119.642 150.271 118.812 153.9 118.269 157.591C117.29 164.253 117.47 171.002 117.55 177.713L117.554 178.06C117.595 181.675 117.653 185.29 117.772 188.903C117.833 190.729 117.952 192.573 117.887 194.4C117.852 195.392 117.587 196.329 117.494 197.309C117.411 198.165 117.485 199.034 117.526 199.892C117.553 200.462 116.711 200.438 116.653 199.892L116.58 199.186C116.485 198.292 116.367 197.404 116.074 196.549C115.722 195.521 115.553 194.511 115.43 193.431C115.243 191.776 115.16 190.104 115.088 188.438L115.038 187.285C114.736 180.321 114.747 173.324 115.236 166.368L115.271 165.871C115.755 159.295 116.595 152.189 120.303 146.555ZM101.441 105.109C101.21 105.014 101.291 104.665 101.547 104.726L102.012 104.837C105.423 105.653 108.772 106.537 111.955 108.056C115.141 109.576 117.838 111.844 119.981 114.634C124.146 120.056 125.877 126.646 127.244 133.23C128.763 140.546 130.146 147.889 131.678 155.202L131.962 156.565C133.38 163.376 134.718 170.192 135.704 177.084L135.775 177.584C136.769 184.672 137.368 192.005 136.282 199.111C136.068 200.517 133.726 200.167 133.818 198.778C134.082 194.762 134.271 190.768 134.088 186.743C133.905 182.718 133.527 178.711 132.964 174.721C132.49 171.363 131.783 168.047 131.158 164.715L131.06 164.189C130.536 161.356 129.996 158.526 129.458 155.695L128.653 151.457C127.446 145.111 126.216 138.76 124.826 132.454L124.744 132.082C123.384 126.016 121.378 119.661 117.298 114.843C113.158 109.954 107.23 107.491 101.441 105.109ZM86.3959 169.46C86.4955 169.238 86.8438 169.262 86.9509 169.46C87.3705 170.233 87.4171 171.22 87.4964 172.093L87.5048 172.183C87.6056 173.249 87.6949 174.318 87.7496 175.386C87.8533 177.415 87.9029 179.441 87.8965 181.472C87.89 183.554 87.848 185.633 87.7357 187.711L87.7053 188.268C87.6027 190.074 87.4308 192.089 86.5717 193.668C86.2594 194.242 85.4101 194.073 85.2293 193.493C84.6367 191.592 84.941 189.338 85.093 187.391L85.211 185.872C85.3278 184.353 85.4393 182.833 85.5276 181.312C85.6488 179.231 85.7487 177.148 85.8448 175.066C85.876 174.39 85.9098 173.713 85.9455 173.037L86.0004 172.023C86.0472 171.175 86.0433 170.244 86.3959 169.46ZM19.7717 172.154L20.034 171.901C20.8393 171.113 21.8568 169.901 23.0472 169.976C23.5219 170.006 23.8244 170.4 23.726 170.866C23.5157 171.864 22.4973 172.381 21.7642 172.99C20.9611 173.657 20.2042 174.37 19.4487 175.089C18.7785 175.728 18.134 176.384 17.5049 177.061L17.2697 177.315C17.0442 177.561 15.4384 179.012 15.612 179.389L15.6215 179.406C15.6698 179.478 15.5893 179.577 15.5092 179.551C14.8158 179.333 14.859 178.739 15.1212 178.137C15.6249 176.981 16.5071 175.912 17.2774 174.925C18.0456 173.94 18.8771 173.023 19.7717 172.154V172.154ZM88.9086 143.166C88.3724 141.9 86.3971 141.926 85.2756 142.002C82.4517 142.193 79.3962 142.906 76.8835 144.225C74.2785 145.592 72.5238 147.783 70.9537 150.205L70.8802 150.319C69.3499 152.695 67.8761 155.508 65.4798 157.142C64.2592 157.975 62.834 158.735 61.3532 159.064C61.2515 159.243 61.0868 159.384 60.8708 159.436L60.7704 159.459C60.3486 159.552 59.6934 159.655 59.1275 159.593C59.1312 159.87 59.1283 160.144 59.1353 160.406C59.1552 161.157 59.1637 161.911 59.1637 162.663C59.164 164.237 59.0793 165.815 59.1451 167.389C59.2034 168.782 59.4002 170.237 60.0695 171.482C60.5603 172.395 61.2082 172.999 61.9903 173.576C63.9142 172.405 66.0896 171.691 68.2975 171.154C70.9677 170.505 73.7018 170.072 76.3112 169.191C77.5672 168.767 78.7746 168.213 79.8686 167.459C81.0297 166.66 81.9166 165.577 82.8291 164.519L82.9717 164.354C83.9029 163.287 84.9191 162.266 86.2351 161.688C87.3685 161.19 88.8623 161.101 89.8533 160.33C90.3714 159.926 90.4148 159.341 90.4693 158.741C89.8346 158.832 89.1628 158.687 88.5302 158.613L88.2025 158.574C87.6044 158.503 87.02 158.425 86.4312 158.273C86.3218 158.245 86.3218 158.08 86.4312 158.052C87.1271 157.873 87.8167 157.796 88.5302 157.713L88.6978 157.692C89.3433 157.607 90.0218 157.479 90.6549 157.621C90.7685 157.19 90.9326 156.777 91.1627 156.364C91.4858 155.784 92.0971 155.127 92.1797 154.449C92.2043 154.247 92.1572 154.008 92.0617 153.829L92.0288 153.768C91.9886 153.696 91.9411 153.624 91.8715 153.579C91.8638 153.588 91.8475 153.598 91.8121 153.609C91.3248 153.762 90.8998 153.524 90.6742 153.157C89.7165 153.276 88.6713 153.236 87.7731 153.275L86.8651 153.319C85.8948 153.364 84.8804 153.383 83.9686 153.187C83.8413 153.16 83.8028 152.948 83.9303 152.894C85.0512 152.415 86.4109 152.262 87.6111 152.078C88.2813 151.975 88.9564 151.897 89.6286 151.807C90.0762 151.746 90.5513 151.647 91.015 151.623C92.1777 150.177 91.5512 147.895 89.9331 147.273C89.3436 147.532 88.8136 147.381 88.1696 147.326C87.5268 147.271 86.8824 147.233 86.2369 147.236C84.9436 147.242 83.5731 147.582 82.2924 147.435C82.0841 147.411 81.8905 147.134 82.0976 146.966C83.078 146.166 84.483 145.906 85.7275 145.735L85.9854 145.701C86.4026 145.646 86.91 145.566 87.4362 145.519C87.5552 145.287 87.7687 145.112 88.0895 145.068C88.1848 145.055 88.2806 145.048 88.3763 145.039L88.3748 145.03V145.03C89.1571 144.992 89.1231 143.672 88.9086 143.166ZM35.3561 167.86C35.3423 167.881 35.3272 167.902 35.3111 167.921L35.2863 167.95L35.4149 167.898L35.3561 167.86V167.86ZM102.559 140.337C99.2662 139.983 95.969 140.058 92.6668 140.153C92.4027 141.016 91.4833 141.751 90.5926 141.779C91.2902 142.84 91.3622 144.276 90.873 145.401C91.9117 145.814 92.8065 146.556 93.3498 147.612C94.1031 149.077 94.0045 150.708 93.26 152.061C93.8955 152.636 94.2704 153.569 94.2329 154.449C94.1909 155.43 93.6057 156.268 93.1194 157.08C92.594 157.958 92.5764 158.732 92.4149 159.715C92.1787 161.155 91.2068 162.028 89.9563 162.573L90.0227 162.835C90.3452 164.088 90.7463 165.411 91.6678 166.328C92.8532 167.508 94.6921 167.497 96.2583 167.571L96.3339 167.575C97.768 167.647 99.2015 167.731 100.635 167.812L101.71 167.872C103.361 167.963 104.946 167.974 106.294 166.883C108.494 165.104 110.002 162.159 110.956 159.552C112.96 154.079 112.984 148.074 112.064 142.375C108.98 141.382 105.78 140.682 102.559 140.337ZM75.1778 149.416L75.202 149.417C75.8799 149.495 76.3456 150.043 76.5115 150.694C76.7524 151.639 76.6342 152.494 77.2139 153.347C77.8102 154.225 78.1768 154.928 78.2635 156.012C78.299 156.458 78.2827 156.903 78.3821 157.34L78.4542 157.646C78.5308 157.972 78.5934 158.287 78.5553 158.637C78.5206 158.956 78.3648 159.205 78.0441 159.308C76.9989 159.642 76.1918 158.872 75.9218 157.899C75.6886 157.059 76 156.057 75.671 155.268C75.4886 154.83 75.1524 154.464 74.9624 154.024C74.7741 153.587 74.6796 153.131 74.6494 152.657C74.5921 151.759 75.3868 150.68 74.9434 149.867C74.849 149.694 74.9559 149.41 75.1778 149.416ZM61.2942 140.153C62.0019 140.009 62.8049 139.68 63.5029 139.954C63.8617 140.095 64.039 140.532 63.7358 140.835C63.2095 141.362 62.4446 141.392 61.7357 141.516L61.6734 141.527C60.8351 141.682 59.9955 141.829 59.1546 141.968C57.5727 142.23 55.987 142.462 54.3958 142.658C52.7615 142.86 51.1226 143.04 49.4815 143.176L48.8461 143.228C47.4598 143.338 46.0173 143.422 44.657 143.21C44.4594 143.179 44.4912 142.892 44.657 142.841C46.1472 142.391 47.7819 142.27 49.3225 142.079C50.9604 141.876 52.5955 141.662 54.2264 141.407C55.8547 141.153 57.4808 140.88 59.1009 140.579C59.8332 140.443 60.5643 140.301 61.2942 140.153ZM86.8331 138.706C86.212 138.487 85.5287 138.161 84.8556 138.27C83.695 138.458 82.6621 139.587 81.7434 140.331L82.2047 140.242C84.565 139.789 87.6906 139.3 89.6719 140.8C89.677 140.791 89.6809 140.782 89.6866 140.774C89.8466 140.531 90.0318 140.342 90.2341 140.134C90.2534 140.116 90.2721 140.097 90.2905 140.078L90.3996 139.962L90.15 139.876C89.6155 139.687 88.9822 139.443 88.8821 139.407L88.8751 139.405C88.1936 139.174 87.5113 138.946 86.8331 138.706ZM67.4404 89.2812C67.3433 88.0331 69.2876 88.0434 69.3839 89.2812C69.594 91.9834 68.9853 94.66 67.6752 97.0291C67.6655 97.0463 67.6549 97.0617 67.6448 97.078C68.4642 97.5039 69.293 97.9126 70.1402 98.2779C71.2239 98.7453 72.328 99.1709 73.4519 99.532C74.4685 99.8588 75.721 99.9878 76.5757 100.668C78.378 102.102 77.7009 105.077 77.3542 107.006L77.3001 107.31C77.1275 108.303 77.0026 109.321 77.4215 110.274C77.8687 111.291 78.7732 112.046 79.5801 112.774L79.743 112.921C80.4579 113.572 81.2746 114.363 81.7989 115.244C82.2775 114.256 82.93 113.448 83.6198 112.539C84.112 111.889 83.7617 111.676 83.4081 111.041C83.0678 110.431 82.9016 109.781 83.008 109.085C83.2044 107.799 84.2329 106.87 85.2568 106.172C86.4658 105.349 87.8153 104.738 89.0652 103.972C91.6336 102.398 94.1348 100.598 96.3883 98.5984C96.4505 98.5431 96.5582 98.6155 96.5084 98.691C94.7283 101.396 92.641 103.733 90.0758 105.717C89.0356 106.522 87.943 107.189 86.843 107.891L86.5267 108.093C86.0851 108.379 85.5342 108.761 85.3345 109.248C85.1335 109.737 85.562 110.107 85.7927 110.512C86.5251 111.8 86.1717 113.001 85.3034 114.093L85.263 114.143C84.4001 115.205 83.7462 116.193 83.4334 117.55C82.7614 120.466 83.6974 123.502 84.6773 126.239L84.716 126.347C85.246 127.822 85.8093 129.287 86.2698 130.786L86.3965 131.2C86.8137 132.579 87.1554 133.939 86.6874 135.357C86.5282 135.839 85.8699 135.953 85.5965 135.5C84.6319 133.899 84.3914 131.973 83.7868 130.214C83.1975 128.499 82.5209 126.815 81.9517 125.093C81.2188 122.876 80.7283 120.489 80.9945 118.164C80.9867 118.15 80.978 118.137 80.9715 118.123L80.7849 117.715C80.2762 116.611 79.7848 115.647 78.8596 114.767C77.8945 113.849 76.847 113.037 76.0877 111.925C74.4382 109.512 75.4583 106.826 75.6576 104.187L75.6804 103.864C75.7165 103.316 75.7364 102.571 75.3781 102.192C74.975 101.765 74.0299 101.656 73.4952 101.467C72.1132 100.978 70.7513 100.409 69.4543 99.7252C68.2195 99.0746 67.0235 98.3557 65.9099 97.5136L65.3455 97.0894C64.455 96.4181 63.5315 95.685 62.9346 94.7712C62.8658 94.666 62.9828 94.4963 63.1075 94.5467C64.1039 94.9506 65.0143 95.5932 65.9465 96.1522C65.961 96.1181 65.9778 96.0837 65.9969 96.0491C67.1504 93.9637 67.6247 91.6532 67.4404 89.2812ZM99.2686 103.569C99.6656 102.482 101.475 102.566 101.403 103.858C101.347 104.851 100.926 105.747 100.54 106.648L100.499 106.745C100.1 107.684 99.6403 108.566 99.0899 109.427C98.0382 111.072 96.8062 112.599 95.4904 114.04C94.2975 115.347 92.7317 116.146 90.9275 116.013C90.1673 115.957 89.3999 115.764 88.7337 115.384C87.9425 114.934 87.0833 113.58 86.0738 113.908C85.9762 113.94 85.8851 113.797 85.9695 113.729C87.1348 112.792 88.4575 114.245 89.5733 114.596C91.2544 115.123 92.9797 114.54 94.0617 113.182C95.1915 111.764 96.2313 110.177 97.1808 108.634C97.663 107.85 98.103 107.036 98.483 106.198C98.8664 105.352 98.9536 104.432 99.2686 103.569ZM96.5587 96.8762C96.5097 96.726 96.6965 96.5832 96.8285 96.669C97.5943 97.167 98.2578 97.825 98.9641 98.4018C99.7478 99.0418 100.537 99.6686 101.339 100.286C102.507 101.186 101.152 102.843 100.123 101.86C98.7157 100.515 97.1739 98.756 96.5587 96.8762ZM92.3546 91.6121C92.6657 90.4137 94.5056 90.9079 94.2374 92.0923L94.2287 92.1284C93.7208 94.0848 94.4441 96.0766 95.9881 97.3449L96.045 97.391C97.0218 98.172 95.6379 99.5373 94.6707 98.7638C92.5593 97.0756 91.6809 94.2078 92.3546 91.6121Z" fill="#120E07"/>
<path fill-rule="evenodd" clip-rule="evenodd" d="M52.7958 29.0535C53.6406 28.146 54.721 27.4699 55.9022 27.2538C54.8225 27.7937 53.7671 28.3565 52.7958 29.0535ZM51.1412 36.8787C50.9918 36.1871 50.8915 35.4888 50.8599 34.7906C51.0486 35.078 51.3502 35.2699 51.6888 35.3691C51.47 35.8595 51.284 36.3647 51.1412 36.8787ZM107.668 47.7224C106.693 43.6589 102.143 35.843 101.068 34.3387C99.9006 30.6138 106.269 27.6266 102.805 24.7138C101.237 23.3996 99.165 22.9345 97.2211 22.4684C83.7614 19.2323 69.3003 20.8644 56.8169 26.8153C54.9181 26.4152 52.9398 27.197 51.559 28.5702C45.0719 35.0979 53.9126 46.8758 55.8458 54.2349C59.1626 62.4405 52.3303 63.8208 53.063 70.7636C53.6323 74.3503 57.261 75.2983 60.3232 75.8404C60.814 75.9553 61.4701 75.9726 61.6284 76.492C62.1246 79.5238 63.8255 82.4131 66.1091 84.374C65.9094 84.9663 66.0618 85.6853 66.766 86.2055C73.1461 90.9522 81.1908 93.3277 89.1484 92.9007C98.6316 92.3918 103.536 86.9501 104.719 85.549C111.262 76.7024 110.48 65.0302 109.146 54.4873C108.216 47.1429 109.395 54.9207 107.668 47.7224Z" fill="#EDB98A"/>
<path fill-rule="evenodd" clip-rule="evenodd" d="M78.4265 13.9102C78.7246 12.9774 79.5683 12.4164 80.5343 12.5322C81.3895 12.6333 82.3049 13.483 82.2007 14.4207C82.1811 14.6017 82.1551 14.7713 82.1241 14.9311L82.1282 14.9325V14.9325L82.1322 14.9327L82.1111 14.9947C82.0475 15.2931 81.9596 15.5606 81.8293 15.8134C81.6631 16.2977 81.5035 16.7837 81.3455 17.2713C81.5735 17.2615 81.8065 17.2745 82.0427 17.3186C82.287 16.6923 82.533 16.0678 82.7773 15.4399C83.0395 14.7696 83.2236 13.9086 83.7416 13.39C84.4046 12.7279 85.5546 12.5909 86.3625 13.0638C87.2161 13.5629 87.5207 14.45 87.335 15.4008C87.2406 15.8857 86.917 16.2232 86.5165 16.4353L86.4733 16.4575L86.1654 17.1881C86.2599 17.1473 86.3576 17.1098 86.4635 17.0788C86.6297 17.0299 86.7926 16.9989 86.9522 16.9859C87.392 16.1884 87.8758 15.4138 88.3759 14.6539C88.9509 13.7798 90.0748 13.4079 91.018 13.9608C91.8617 14.4549 92.3146 15.753 91.7102 16.6059C91.2509 17.2533 90.816 17.9138 90.3876 18.5808C90.4609 18.5938 90.5342 18.6102 90.6042 18.6314C90.6368 18.5873 90.671 18.5433 90.7068 18.4993C91.1743 17.9187 91.7184 17.4833 92.2771 17.0006C92.8 16.5472 93.0411 15.8346 93.7285 15.4905C94.5934 15.0583 95.6359 15.2654 96.1507 16.1265C97.2551 17.9709 95.4014 19.3179 94.2155 20.435C95.2466 19.7908 96.3201 19.2021 97.4212 18.6933C98.0402 18.4079 98.6689 18.1323 99.3075 17.8942C100.254 17.542 101.019 17.6547 101.796 18.3101C102.143 18.6036 102.316 19.2447 102.156 19.6718C101.847 20.4905 101.358 20.9878 100.501 21.2243C99.8988 21.3907 99.2814 21.5032 98.6787 21.6777C97.6688 21.968 96.6882 22.3218 95.7369 22.7638C95.8053 22.8062 95.8705 22.8518 95.9307 22.904C96.641 22.6741 97.3642 22.4751 98.0907 22.3055C99.2956 22.0227 100.522 21.8316 101.754 21.712L102.163 21.6739C103.64 21.532 105.415 21.2702 106.322 22.6855C106.62 23.1519 106.652 23.9216 106.322 24.3831C105.69 25.2703 105.061 25.4464 104.015 25.4627C105.045 25.572 106.072 25.7074 107.095 25.8655C107.8 25.9732 108.505 26.0952 109.207 26.2305L109.558 26.2993C110.413 26.4706 111.368 26.57 112.103 27.0658C113.705 28.1486 112.953 30.2573 111.177 30.4823C110.319 30.5899 109.366 30.2263 108.524 30.0567C107.706 29.892 106.885 29.7468 106.061 29.6196C105.634 29.5528 105.207 29.494 104.779 29.4402C105.65 29.5658 106.515 29.7436 107.358 29.9947L107.591 30.0654C109.22 30.5621 111.417 31.3533 111.925 33.0948C112.233 34.1532 111.391 35.0762 110.371 35.1382C109.423 35.1953 108.633 34.6294 107.828 34.2119C107.242 33.9086 106.646 33.6819 106.014 33.4878C105.361 33.2873 104.694 33.1209 104.023 32.9856C104.59 33.2984 105.143 33.6422 105.673 34.0268L105.917 34.2071C107.326 35.2583 109.475 36.8859 108.978 38.8564C108.822 39.4777 108.13 40.0713 107.465 40.0077C105.735 39.8463 104.781 38.0019 103.476 37.0136C103.135 36.7559 102.762 36.5015 102.371 36.2537C104.349 38.615 105.922 41.345 107.12 44.1646C109.751 50.3678 110.558 56.1124 110.578 62.7822L110.578 62.9888C110.581 66.6679 110.498 70.4138 110.14 74.0766C109.807 77.4604 109.198 80.8003 107.665 83.8647C105.097 89.0032 100.091 93.0051 94.5706 94.5283C88.428 96.2243 81.5621 94.8985 76.5304 90.9846C75.2468 89.9865 76.9491 87.8194 78.2603 88.7406C83.4973 92.418 90.2703 93.5824 96.281 91.0938C101.049 89.1206 104.888 84.8756 106.515 79.9882C107.551 76.8789 107.853 73.5635 108.222 70.3231L108.247 70.1072C108.638 66.7184 108.864 63.3068 108.861 59.8952C108.856 53.5596 107.947 48.3443 105.163 42.5974C103.854 39.8903 102.155 37.3872 100.125 35.1904C99.5095 35.316 98.8546 35.1398 98.2324 35.073C97.9148 35.0387 97.5971 35.0061 97.2795 34.9768C97.604 35.1868 97.9222 35.4052 98.235 35.6287L98.6453 35.9249C99.9291 36.8454 101.558 37.8938 101.228 39.6734C101.138 40.1545 100.659 40.5965 100.195 40.7057C98.5126 41.1069 97.356 39.4696 96.2191 38.4976C95.2303 37.6529 94.196 36.8962 93.1421 36.1379C92.9026 35.9666 92.6615 35.7954 92.4188 35.6258C92.6469 35.892 92.8687 36.1623 93.085 36.4351L93.4049 36.841C94.3729 38.0536 95.7683 39.6296 94.9062 41.2015C94.6618 41.6451 94.1406 41.9402 93.6356 41.9304C91.8992 41.8946 91.2085 39.9213 90.3941 38.6754C89.6937 37.6072 88.933 36.601 88.1462 35.5948C87.9295 35.3192 87.7113 35.0436 87.4897 34.768C83.8426 34.9572 80.2085 35.4399 76.6379 36.2113C74.1848 36.7413 71.7724 37.428 69.3779 38.1796L69.1789 38.243C67.883 38.6607 66.5478 39.1953 65.6135 40.1121C65.4801 40.7437 65.5825 41.4099 65.7101 42.0407L65.8095 42.5235C66.2192 44.5426 66.4984 46.5242 66.2895 48.5971C66.0728 50.7351 65.4294 52.6578 64.6443 54.6441C64.2729 55.5801 63.8885 55.4105 63.7565 56.4151C63.6554 57.1803 63.7179 57.9702 63.787 58.7418L63.8447 59.3959C63.9895 61.1094 64.0622 62.9775 62.9404 64.3913C62.7661 64.6082 62.3931 64.5218 62.2693 64.3049C62.2204 64.2184 62.1683 64.1353 62.1113 64.0554C61.5705 63.271 60.7414 62.8241 59.7934 62.6512C59.6728 62.63 59.7201 62.4686 59.8211 62.4556C60.6225 62.361 61.3816 62.5616 62.0266 62.9758C61.7207 61.9168 59.3526 62.4318 58.5741 62.6376L58.5473 62.6447C57.5764 62.9056 56.6577 63.3297 55.8481 63.9298C54.2192 65.1366 53.2777 67.0185 53.325 69.0456C53.3722 71.0384 54.4 72.8796 56.1658 73.8336C57.0177 74.2935 57.9869 74.5152 58.9512 74.5055C59.9579 74.4957 60.8538 74.0537 61.8621 74.1157C62.4452 74.1516 62.8916 74.7778 62.5544 75.3241C62.3296 75.6894 62.0364 75.9764 61.6976 76.1966C62.5234 78.103 63.5773 79.9213 64.7925 81.5994C65.4652 82.5306 66.2276 83.39 67.0665 84.1744C67.7213 84.7876 69.1401 85.497 69.0602 86.5195C69.0325 86.888 68.842 87.1131 68.5064 87.2501C67.4632 87.6771 66.1946 86.2068 65.4969 85.498L65.4408 85.4415C64.571 84.5739 63.7777 83.615 63.087 82.5974C61.8621 80.7905 61.1014 78.7537 60.787 76.6141C59.1141 77.118 56.8988 76.6451 55.5338 76.027C51.2432 74.0863 49.8407 68.3019 52.4486 64.45C52.9536 63.7047 53.5856 63.0671 54.3056 62.5518C54.1476 62.4653 53.9993 62.3544 53.8674 62.2142C53.1375 61.438 52.6215 60.4251 52.1094 59.4915L52.0479 59.3799C51.5933 58.558 51.1643 57.7232 50.7623 56.8755L50.6128 56.557C49.7153 54.6245 48.9285 53.7798 48.2884 51.7478C47.6726 49.7876 47.1872 47.7899 46.8729 45.7579L46.7893 45.2201C46.6075 44.041 46.4355 42.7802 46.5682 41.5831C45.6544 41.8815 44.7357 42.0658 43.8317 41.6173C43.2355 41.3222 42.9065 40.4611 43.1101 39.843C43.2583 39.388 43.5059 39.0309 43.8203 38.7504C43.6329 38.6558 43.457 38.5351 43.3023 38.4014L43.1671 38.2842V38.2842C42.6198 37.8078 42.5807 36.9027 42.913 36.3059C42.9455 36.2488 42.9781 36.1901 43.0091 36.133C43.3251 35.5671 43.9783 35.1969 44.6233 35.2067C44.7276 35.2083 44.8318 35.2083 44.9377 35.2067C44.6364 35.1398 44.3415 35.0371 44.0614 34.8642C42.7973 34.0863 42.957 31.9777 44.4865 31.6059C45.1283 31.451 45.8369 31.5146 46.5438 31.6809C46.5177 31.6663 46.4917 31.6516 46.4656 31.6353C45.9313 31.3075 45.4834 30.6666 45.5339 30.0094C45.5893 29.282 45.8238 28.7634 46.4656 28.3818C47.0227 28.0524 47.8111 28.0214 48.3649 28.3818C48.8455 28.6966 49.3162 29.0439 49.7691 29.4174C49.3146 28.858 48.9204 28.2498 48.7608 27.604C48.5637 26.8 48.8927 25.9242 49.6159 25.5002C50.1926 25.1627 50.8018 25.2002 51.3458 25.4611C51.3165 25.0387 51.4191 24.6082 51.6993 24.2266C52.2727 23.444 53.3152 22.9937 54.2225 23.5645C54.3414 23.6395 54.501 23.7683 54.6558 23.9265C54.3544 22.966 54.6265 21.9582 55.6543 21.5244C56.2814 21.2586 57.1301 21.3923 57.6742 21.8505C57.3288 19.98 60.0866 18.6053 61.1584 20.5377C61.4016 20.9755 61.6423 21.4365 61.8575 21.9081L61.937 22.0854L61.9452 22.0821L61.8904 21.9525V21.9525L61.8344 21.8228C61.5363 21.1297 61.1568 20.4089 61.0525 19.6571C60.8994 18.5449 61.3946 17.4898 62.6032 17.3267C63.2271 17.2419 63.921 17.5257 64.3397 18.0216C64.1132 16.2961 66.0386 15.042 67.4248 16.3303C68.0813 16.9402 68.4315 17.8323 68.8485 18.615C69.0847 19.057 69.3258 19.4973 69.5619 19.9409C69.6222 19.8691 69.6874 19.7974 69.7558 19.7272C69.4056 18.677 69.1335 17.6007 68.9039 16.5179C68.6856 15.497 69.1954 14.437 70.2477 14.1485C71.2039 13.8841 72.4011 14.4746 72.6145 15.4939C72.7644 16.2113 72.9419 16.9208 73.1374 17.6268C73.271 17.5942 73.4029 17.5713 73.5332 17.555C73.5441 17.4224 73.5564 17.289 73.5702 17.1564L73.6214 16.6847C73.7353 15.6068 73.8502 14.3764 74.4128 13.4601C75.3723 11.8946 77.8319 12.5436 77.858 14.3946C77.8726 15.3518 77.4833 16.301 77.3481 17.2484C77.2895 17.661 77.2553 18.0785 77.2357 18.496C77.498 17.1098 77.858 15.7416 78.275 14.3946C78.3239 14.2331 78.376 14.0717 78.4265 13.9102ZM57.205 67.3643C59.3633 67.03 61.3359 68.2351 62.6146 69.923C62.8476 70.2312 62.6944 70.6666 62.4843 70.9259C62.3328 71.1167 62.1292 71.1396 61.8995 71.1689C61.6357 71.2032 61.3017 70.9895 61.1861 70.7596C60.3635 69.1157 58.8958 68.0769 57.205 67.4377C57.1741 67.4262 57.1643 67.3708 57.205 67.3643ZM60.197 37.9115L60.2623 37.8412C60.699 37.3877 60.0089 36.695 59.5712 37.1495C59.1104 37.6279 58.8041 38.2091 58.5096 38.7982C58.229 39.3598 59.0718 39.8559 59.3536 39.2922L59.4819 39.0359C59.6833 38.6375 59.8981 38.2439 60.197 37.9115V37.9115ZM54.1357 36.9807C54.7547 36.8763 54.4922 35.9332 53.8759 36.0373C53.0774 36.172 52.282 36.3251 51.4833 36.46C50.8645 36.5643 51.1269 37.5074 51.7433 37.4035C52.5418 37.2687 53.3372 37.1155 54.1357 36.9807ZM91.009 30.5422C90.411 30.3424 90.1545 31.2871 90.7492 31.4857C91.571 31.7602 92.3861 32.0415 93.1657 32.4226C93.7288 32.6979 94.2248 31.8543 93.6589 31.5777C92.8032 31.1594 91.9111 30.8435 91.009 30.5422ZM53.9949 29.2741C53.411 29.0402 53.1574 29.9862 53.7351 30.2176L55.8462 31.0629V31.0629C56.4302 31.2967 56.6838 30.3509 56.106 30.1195L53.9949 29.2741V29.2741ZM98.3805 26.9767L98.3034 26.928C97.774 26.5846 97.2836 27.4313 97.81 27.7729C98.1191 27.9734 98.4949 28.1093 98.7779 28.3481L98.837 28.4009C99.2941 28.8331 99.9866 28.1426 99.5282 27.709C99.1928 27.392 98.7683 27.2156 98.3805 26.9767V26.9767Z" fill="#120E07"/>
<path fill-rule="evenodd" clip-rule="evenodd" d="M95.598 81.8517C94.3955 82.1997 93.1048 82.2308 91.8791 81.8715C90.7673 81.5455 89.6258 80.8282 88.8075 79.879C88.0807 79.0358 87.6099 78.0111 87.6284 76.9173C87.6305 76.7924 87.6752 76.6881 87.744 76.6072C87.818 76.5201 87.9214 76.4602 88.0322 76.4343C88.1462 76.4076 88.2666 76.417 88.3692 76.4636C88.462 76.5057 88.5416 76.5773 88.5913 76.6819C88.717 76.8469 88.8423 77.0095 88.968 77.1676C89.9791 78.4148 90.9583 79.3469 92.4786 79.6813C93.3035 79.8627 94.1274 79.7822 94.8833 79.5054C95.6925 79.2091 96.424 78.6881 96.9972 78.0214C97.2562 77.7201 97.562 77.5972 97.8611 77.5951C98.2 77.5927 98.5349 77.7501 98.7873 78.0015C99.0353 78.2487 99.2014 78.5845 99.2165 78.9359C99.2297 79.2442 99.129 79.5663 98.8611 79.8537C97.9788 80.8003 96.8353 81.4937 95.598 81.8517ZM95.5609 66.2301C96.7936 66.9787 98.6717 68.7241 97.3457 70.5798C95.7848 72.2161 93.5375 70.34 92.43 69.4915C91.4032 68.834 90.2494 70.5252 91.2021 71.293C99.2045 77.212 102.452 66.4259 96.1844 65.35C95.4943 65.2315 95.238 65.9986 95.5609 66.2301ZM84.0301 62.9364C83.6339 62.6833 83.1678 62.5964 82.6513 62.8312C82.2477 63.0145 81.5398 63.6259 81.0471 64.4295C80.7101 64.9792 80.4711 65.6242 80.5208 66.296C80.5324 66.452 80.4747 66.567 80.3837 66.6521C80.3118 66.7193 80.2079 66.7686 80.086 66.7841C79.9824 66.7972 79.8665 66.7854 79.7723 66.756C79.593 66.7001 79.4982 66.5839 79.4624 66.4891C79.1175 65.5738 79.2661 64.5525 79.6527 63.6311C80.1744 62.3876 81.1219 61.346 81.7427 61.0102C82.805 60.4353 84.0581 60.4089 85.1219 60.9945C86.0275 61.493 86.5937 62.2977 87.1569 63.118C87.2766 63.2923 87.3954 63.4654 87.5182 63.6355C87.7643 63.9762 87.7888 64.3142 87.6935 64.604C87.5879 64.925 87.3187 65.1959 86.982 65.3377C86.6709 65.4688 86.3098 65.4872 85.9902 65.3526C85.7203 65.2388 85.4725 65.0171 85.3158 64.6409C85.0518 64.0072 84.6119 63.3082 84.0301 62.9364V62.9364ZM104.151 64.3461C103.88 64.4874 103.668 64.5299 103.367 64.4399C103.2 64.3899 103.036 64.2942 102.907 64.1655C102.779 64.038 102.687 63.8794 102.652 63.7035C102.563 63.2693 102.326 62.8629 101.987 62.598C101.697 62.3715 101.332 62.2515 100.926 62.3192C100.489 62.3922 100.072 62.6725 99.7847 63.0031C99.6887 63.1136 99.6135 63.2393 99.5379 63.364C99.3964 63.5973 99.259 63.8142 99.0639 63.9856C98.9899 64.0507 98.8785 64.0959 98.7705 64.0959C98.7267 64.0959 98.6821 64.0888 98.6397 64.0756C98.2042 63.6389 98.1205 63.3076 98.1345 62.979C98.1492 62.6345 98.2852 62.2856 98.5049 61.9601C99.0204 61.1966 99.999 60.5706 100.659 60.4288C101.564 60.2346 102.462 60.4677 103.182 60.9724C103.923 61.4916 104.472 62.2978 104.643 63.2063C104.684 63.4251 104.667 63.6613 104.584 63.8661C104.502 64.0662 104.36 64.2376 104.151 64.3461ZM86.0247 54.7959C85.4819 55.3242 84.8395 55.4061 84.1897 55.4788C83.8286 55.5197 83.5403 55.5526 83.2566 55.6165C82.477 55.7923 81.7063 56.0572 81.0032 56.4385C80.2682 56.8372 79.4672 57.318 78.891 57.934C78.7539 58.0806 78.6248 58.2344 78.4954 58.3885C78.3775 58.5291 78.2639 58.6644 78.1441 58.7949C78.0066 58.9447 77.876 59.1018 77.7461 59.2585C77.6658 59.3906 77.6499 59.4232 77.6338 59.457C77.6094 59.5078 77.5811 59.5648 77.5488 59.6258C77.5045 59.7094 77.4526 59.801 77.3983 59.884C77.3079 60.0357 77.2594 60.0774 77.2175 60.0961C77.1479 60.1271 77.082 60.1423 77.018 60.1341C76.958 60.1263 76.9015 60.0975 76.8457 60.0504C76.567 59.8152 76.4848 59.4292 76.4933 59.0195C76.506 58.3977 76.7356 57.7092 76.9472 57.2861C77.4393 56.3027 78.1217 55.2805 78.9422 54.5466C79.8785 53.7089 80.9029 53.0747 82.0795 52.6377C82.8107 52.366 83.6573 52.1166 84.4539 52.1481C85.0273 52.1708 85.5747 52.3411 86.0267 52.7663C86.3043 53.0274 86.4375 53.3987 86.4375 53.7697C86.4375 54.1481 86.2991 54.5288 86.0247 54.7959ZM105.255 59.6337C105.221 59.6902 105.173 59.7291 105.12 59.7525C105.064 59.777 105.002 59.7841 104.942 59.774C104.883 59.764 104.826 59.7371 104.781 59.696C104.738 59.6566 104.706 59.6043 104.691 59.5402C104.331 57.9591 103.631 56.7827 102.138 56.0241C101.403 55.6509 100.558 55.4138 99.7586 55.2247C99.5262 55.1698 99.2806 55.1342 99.0333 55.0981C98.2583 54.9851 97.4777 54.8556 96.9725 54.2298C96.668 53.8528 96.5402 53.3706 96.6125 52.9297C96.6805 52.5145 96.9233 52.1339 97.3648 51.9057C98.4638 51.3381 99.8294 51.8951 100.939 52.3696C101.022 52.4048 101.102 52.4394 101.181 52.4727C102.267 52.9304 103.257 53.5345 104.07 54.3984C104.716 55.0838 105.314 56.0971 105.555 57.1394C105.755 58.0066 105.708 58.8919 105.255 59.6337Z" fill="#120E07"/>
</svg>
