<svg width="68" height="33" viewBox="0 0 68 33" fill="none" xmlns="http://www.w3.org/2000/svg">
<path d="M2.84892 31.0091C2.63975 30.9859 1.76504 30.7947 2.01534 30.3542C4.64535 25.7253 13.181 21.5024 17.3176 19.0412C32.5651 9.96953 48.8944 4.773 66.0825 1" stroke="black" stroke-width="2" stroke-linecap="round"/>
<path d="M3.9208 26.1862C3.9208 25.5991 2.92561 24.1852 2.34294 23.8938C1.87042 23.6576 2.263 24.9479 2.19408 25.4717C2.01191 26.8562 1.68127 28.1878 1.27118 29.5205C0.894242 30.7456 0.677154 31.2 2.25363 30.9495C5.16896 30.4864 7.49618 30.4732 10.3513 30.4732" stroke="black" stroke-width="2" stroke-linecap="round"/>
<path d="M30.9753 17.473C31.6411 18.865 32.2277 20.3546 32.4466 21.8869" stroke="black" stroke-width="1.5" stroke-linecap="round"/>
<path d="M29.6877 17.4746C30.6083 15.8176 33.4574 16.6384 34.4899 17.7811C36.0484 19.506 34.0139 21.2209 32.6303 22.0724" stroke="black" stroke-width="1.5" stroke-linecap="round"/>
<path d="M38.148 16.1856C38.0224 16.1542 37.9641 16.075 37.9641 15.9404C37.9641 15.6116 38.1136 16.5807 38.1889 16.9008C38.2702 17.2465 38.9022 20.6464 38.3217 19.1588C37.9766 18.2744 36.9999 15.5929 38.3626 15.0719C39.9061 14.4817 40.9774 17.2465 41.4585 18.2086" stroke="black" stroke-width="1.5" stroke-linecap="round"/>
<path d="M37.9641 18.2087C38.9909 18.022 39.9874 16.6805 40.7228 16.0017" stroke="black" stroke-width="1.5" stroke-linecap="round"/>
<path d="M42.1938 14.3464C42.4465 15.1324 43.3268 16.7559 43.2156 17.5342C43.0585 18.6335 42.0638 14.0566 43.1645 14.2034C43.9696 14.3107 46.7817 16.7755 47.323 15.6543C47.8624 14.5367 47.0719 11.868 46.2399 11.036" stroke="black" stroke-width="1.5" stroke-linecap="round"/>
</svg>
