<svg width="60" height="106" viewBox="0 0 60 106" fill="none" xmlns="http://www.w3.org/2000/svg">
<path d="M40.9593 0.789693C47.3359 8.15077 52.1961 17.2055 50.1353 38.4091C48.4291 55.9631 41.5488 76.3003 28.5485 90.5179C24.2395 95.2305 19.0761 99.1501 14.0012 103.213C13.0977 103.937 12.7029 104.703 12.9064 103.485" stroke="#120E07" stroke-width="1.5" stroke-linecap="round"/>
<path d="M11.6793 104.227C12.3915 104.142 12.9056 102.736 13.0911 102.325C13.5572 101.29 13.8666 100.221 14.1374 99.1426C14.2918 98.5273 14.1679 98.2317 14.4184 98.8076C14.7937 99.6701 15.3912 100.463 16.005 101.202C17.0269 102.432 16.6518 101.89 17.6205 102.937C17.8417 103.176 18.2655 103.407 17.748 103.618C16.6766 104.055 15.2791 104.163 14.1494 104.433C13.3542 104.623 12.557 104.813 11.7647 104.948" stroke="#120E07" stroke-width="1.5" stroke-linecap="round"/>
<path d="M17.3892 91.2721C17.3477 90.9221 17.2852 90.4373 16.742 90.3721C16.2265 90.3103 15.7133 90.6248 15.5218 91.0218C15.0197 92.0628 16.0705 92.5125 17.083 92.5656C18.1629 92.6223 20.1912 92.1391 20.4285 93.4883C20.7258 95.1787 18.0505 94.8677 16.9746 94.9583" stroke="#120E07" stroke-width="1.5" stroke-linecap="round"/>
<path d="M21.364 89.7987C20.3073 88.6481 19.6241 91.3331 19.8627 91.9172C20.6162 93.7612 23.04 92.4847 24.2257 91.6759" stroke="#120E07" stroke-width="1.5" stroke-linecap="round"/>
<path d="M22.2578 88.6019C23.6529 87.6222 26.8263 89.9559 25.8903 90.5613C24.9752 91.153 25.0317 88.7074 25.0394 88.6485C25.142 87.8594 25.385 86.9957 25.5618 86.2191" stroke="#120E07" stroke-width="1.5" stroke-linecap="round"/>
<path d="M26.6063 84.6933C27.4465 82.5189 31.1909 83.622 29.9911 85.6078C29.5655 86.3121 28.4176 86.9121 27.6146 86.3199C26.9201 85.8077 26.7497 84.9764 26.8056 84.2391" stroke="#120E07" stroke-width="1.5" stroke-linecap="round"/>
<path d="M27.1573 79.1925C28.2667 79.648 29.039 80.7978 29.782 81.5753C30.2461 82.0609 30.7266 82.5745 31.3675 82.9078C32.0199 83.2471 32.5389 83.1466 33.2522 83.2568" stroke="#120E07" stroke-width="1.5" stroke-linecap="round"/>
<path d="M28.975 77.6116C29.2972 77.5337 29.7624 77.9971 29.9297 78.1201C30.8085 78.7662 31.6112 79.4776 32.5129 80.1042C33.0684 80.4903 33.8397 81.0308 34.6628 81.0273C35.3822 81.0243 35.4075 80.6218 35.7028 80.2498" stroke="#120E07" stroke-width="1.5" stroke-linecap="round"/>
</svg>
